<?xml version="1.0" encoding="utf-8"?>
<!-- Generator: Adobe Illustrator 16.0.0, SVG Export Plug-In . SVG Version: 6.00 Build 0)  -->
<!DOCTYPE svg PUBLIC "-//W3C//DTD SVG 1.1//EN" "http://www.w3.org/Graphics/SVG/1.1/DTD/svg11.dtd">
<svg version="1.1" id="Capa_1" xmlns="http://www.w3.org/2000/svg" xmlns:xlink="http://www.w3.org/1999/xlink" x="0px" y="0px"
	 width="25px" height="29.473px" viewBox="0 0 25 29.473" enable-background="new 0 0 25 29.473" xml:space="preserve">
<title>engine-icon</title>
<g>
	<g>
		<g>
			<circle fill="#6CBF6C" cx="15.183" cy="22.769" r="0.894"/>
		</g>
	</g>
	<g>
		<g>
			<circle fill="#6CBF6C" cx="9.816" cy="13.826" r="0.894"/>
		</g>
	</g>
	<g>
		<g>
			<path fill="#6CBF6C" d="M17.466,6.715c-1.464-1.865-2.975-3.792-4.195-5.862c-0.321-0.545-1.219-0.545-1.539,0
				c-1.222,2.07-2.733,3.998-4.196,5.862C4.57,10.498,1.77,14.072,1.77,18.297c0,5.918,4.813,10.732,10.73,10.732
				s10.73-4.814,10.73-10.732C23.23,14.072,20.431,10.498,17.466,6.715z M9.816,11.143c1.479,0,2.684,1.205,2.684,2.684
				c0,1.478-1.204,2.683-2.684,2.683c-1.479,0-2.683-1.205-2.683-2.683C7.134,12.348,8.338,11.143,9.816,11.143z M8.662,23.4
				c-0.176,0.176-0.404,0.262-0.634,0.262c-0.229,0-0.457-0.086-0.633-0.262c-0.349-0.348-0.349-0.914,0-1.264l8.943-8.942
				c0.348-0.349,0.914-0.349,1.264,0c0.349,0.349,0.351,0.916,0.003,1.265L8.662,23.4z M15.183,25.451
				c-1.479,0-2.683-1.203-2.683-2.682c0-1.48,1.204-2.684,2.683-2.684s2.683,1.203,2.683,2.684
				C17.865,24.248,16.661,25.451,15.183,25.451z"/>
		</g>
	</g>
</g>
</svg>
