<?xml version="1.0" encoding="utf-8"?>
<!-- Generator: Adobe Illustrator 16.0.3, SVG Export Plug-In . SVG Version: 6.00 Build 0)  -->
<!DOCTYPE svg PUBLIC "-//W3C//DTD SVG 1.1//EN" "http://www.w3.org/Graphics/SVG/1.1/DTD/svg11.dtd">
<svg version="1.1" id="Layer_1" xmlns="http://www.w3.org/2000/svg" xmlns:xlink="http://www.w3.org/1999/xlink" x="0px" y="0px"
	 width="20px" height="20px" viewBox="0 0 20 20" enable-background="new 0 0 20 20" xml:space="preserve">
<g>
	<g>
		<path d="M9.974,0C4.474,0,0,4.474,0,9.974c0,5.499,4.474,9.974,9.974,9.974c5.5,0,9.973-4.475,9.973-9.974
			C19.947,4.474,15.475,0,9.974,0z M9.974,18.721c-4.823,0-8.747-3.924-8.747-8.747c0-4.823,3.923-8.746,8.747-8.746
			c4.824,0,8.747,3.923,8.747,8.746C18.721,14.797,14.798,18.721,9.974,18.721z"/>
	</g>
</g>
<circle fill="#41C363" cx="9.997" cy="14.985" r="1.074"/>
<path fill="#41C363" d="M9.997,4.247c-1.895,0-3.437,1.542-3.437,3.437c0,0.475,0.385,0.859,0.86,0.859
	c0.474,0,0.859-0.384,0.859-0.859c0-0.947,0.771-1.719,1.718-1.719s1.718,0.771,1.718,1.719s-0.771,1.718-1.718,1.718
	c-0.475,0-0.859,0.385-0.859,0.859v2.147c0,0.476,0.385,0.858,0.859,0.858s0.859-0.383,0.859-0.858v-1.396
	c1.479-0.383,2.577-1.73,2.577-3.328C13.433,5.789,11.892,4.247,9.997,4.247z"/>
</svg>
