<?xml version="1.0" encoding="utf-8"?>
<!-- Generator: Adobe Illustrator 16.0.0, SVG Export Plug-In . SVG Version: 6.00 Build 0)  -->
<!DOCTYPE svg PUBLIC "-//W3C//DTD SVG 1.1//EN" "http://www.w3.org/Graphics/SVG/1.1/DTD/svg11.dtd">
<svg version="1.1" id="Layer_1" xmlns="http://www.w3.org/2000/svg" xmlns:xlink="http://www.w3.org/1999/xlink" x="0px" y="0px"
	 width="20px" height="17px" viewBox="0 12.5 20 17" enable-background="new 0 12.5 20 17" xml:space="preserve">
<g>
	<g>
		<path fill="#FFFFFF" d="M19.679,15.588c0,1.011-0.82,1.832-1.83,1.832H7.698c-1.012,0-1.83-0.82-1.83-1.832l0,0
			c0-1.011,0.819-1.832,1.83-1.832h10.15C18.858,13.756,19.679,14.577,19.679,15.588L19.679,15.588z"/>
		<circle fill="#FFFFFF" cx="2.147" cy="15.614" r="1.827"/>
	</g>
	<g>
		<path fill="#FFFFFF" d="M19.679,20.989c0,1.013-0.82,1.832-1.83,1.832H7.698c-1.012,0-1.83-0.82-1.83-1.832l0,0
			c0-1.012,0.819-1.831,1.83-1.831h10.15C18.858,19.158,19.679,19.978,19.679,20.989L19.679,20.989z"/>
		<circle fill="#FFFFFF" cx="2.147" cy="21.015" r="1.826"/>
	</g>
	<g>
		<path fill="#FFFFFF" d="M19.679,26.391c0,1.012-0.82,1.832-1.83,1.832H7.698c-1.012,0-1.83-0.82-1.83-1.832l0,0
			c0-1.012,0.819-1.832,1.83-1.832h10.15C18.858,24.559,19.679,25.379,19.679,26.391L19.679,26.391z"/>
		<circle fill="#FFFFFF" cx="2.147" cy="26.417" r="1.827"/>
	</g>
</g>
</svg>
