<?xml version="1.0" encoding="utf-8"?>
<!-- Generator: Adobe Illustrator 16.0.0, SVG Export Plug-In . SVG Version: 6.00 Build 0)  -->
<!DOCTYPE svg PUBLIC "-//W3C//DTD SVG 1.1//EN" "http://www.w3.org/Graphics/SVG/1.1/DTD/svg11.dtd">
<svg version="1.1" id="Layer_1" xmlns="http://www.w3.org/2000/svg" xmlns:xlink="http://www.w3.org/1999/xlink" x="0px" y="0px"
	 width="30px" height="30px" viewBox="0 0 30 30" enable-background="new 0 0 30 30" xml:space="preserve">
<g>
	<path fill-rule="evenodd" clip-rule="evenodd" d="M14.757,26.595c0.741-0.949,1.439-1.844,2.156-2.762
		c0.315,0.224,0.635,0.45,1.016,0.72c-1.042,1.358-2.073,2.703-3.146,4.102c-0.391-0.46-0.754-0.854-1.08-1.276
		c-2.537-3.288-4.934-6.671-6.878-10.352c-0.79-1.495-1.51-3.027-1.819-4.707C4.661,10.448,5.006,8.66,5.807,6.967
		c1.782-3.77,5.526-5.939,9.687-5.662c4.444,0.296,8.257,3.761,8.96,8.152c0.087,0.542,0.122,1.092,0.185,1.67
		c-0.443,0-0.832,0-1.222,0c-0.084-0.6-0.134-1.208-0.258-1.8c-0.771-3.672-3.896-6.442-7.641-6.77
		c-5.183-0.454-9.431,3.662-9.39,8.608c0.01,1.249,0.461,2.393,0.954,3.515c1.274,2.901,2.992,5.543,4.804,8.125
		c0.805,1.146,1.674,2.249,2.516,3.37C14.494,26.298,14.599,26.409,14.757,26.595z"/>
	<path fill-rule="evenodd" clip-rule="evenodd" d="M20.956,11.142c0.023,3.069-2.288,6.253-6.284,6.233
		c-3.667-0.019-6.138-2.947-6.149-6.223c-0.012-3.61,3.02-6.223,6.212-6.226C17.972,4.923,20.975,7.583,20.956,11.142z
		 M19.708,11.139c0-2.735-2.208-4.957-4.927-4.959C11.989,6.178,9.751,8.4,9.76,11.167c0.008,2.716,2.276,4.968,4.994,4.96
		C17.485,16.119,19.708,13.882,19.708,11.139z"/>
	<path fill-rule="evenodd" clip-rule="evenodd" fill="#FFFFFF" d="M19.708,11.139c0,2.743-2.223,4.98-4.954,4.988
		c-2.718,0.008-4.986-2.244-4.994-4.96C9.751,8.4,11.989,6.178,14.781,6.18C17.5,6.182,19.708,8.404,19.708,11.139z"/>
</g>
<g>
	<path fill-rule="evenodd" clip-rule="evenodd" fill="#41C363" d="M17.954,24.538c-0.374-0.267-0.695-0.494-1.053-0.748
		c0.339-0.486,0.676-0.96,1.003-1.439c1.709-2.504,3.354-5.045,4.556-7.842c0.431-1.001,0.791-2.024,0.884-3.123
		c0.006-0.069,0.027-0.137,0.043-0.208c0.409,0,0.8,0,1.211,0c0.016,1.051-0.271,2.02-0.626,2.97
		c-0.904,2.424-2.21,4.638-3.606,6.801C19.593,22.145,18.778,23.314,17.954,24.538z"/>
</g>
</svg>
