<?xml version="1.0" encoding="utf-8"?>
<!-- Generator: Adobe Illustrator 16.0.0, SVG Export Plug-In . SVG Version: 6.00 Build 0)  -->
<!DOCTYPE svg PUBLIC "-//W3C//DTD SVG 1.1//EN" "http://www.w3.org/Graphics/SVG/1.1/DTD/svg11.dtd">
<svg version="1.1" id="Capa_1" xmlns="http://www.w3.org/2000/svg" xmlns:xlink="http://www.w3.org/1999/xlink" x="0px" y="0px"
	 width="25px" height="29.473px" viewBox="0 0 25 29.473" enable-background="new 0 0 25 29.473" xml:space="preserve">
<title>engine-icon</title>
<g>
	<g>
		<g>
			<path fill="#4664B9" d="M0.899,13.728c0.566,0,0.828,0.183,1.16,0.414c0.38,0.265,0.854,0.595,1.737,0.595
				c0.884,0,1.358-0.33,1.738-0.595c0.333-0.231,0.595-0.414,1.162-0.414c0.567,0,0.831,0.183,1.164,0.414
				c0.38,0.265,0.854,0.595,1.738,0.595s1.358-0.33,1.739-0.595c0.332-0.231,0.596-0.414,1.164-0.414
				c0.278,0,0.505-0.226,0.505-0.504s-0.227-0.504-0.505-0.504c-0.884,0-1.358,0.329-1.74,0.594
				c-0.333,0.231-0.595,0.414-1.163,0.414s-0.831-0.183-1.163-0.414c-0.381-0.265-0.855-0.594-1.739-0.594
				c-0.883,0-1.357,0.329-1.738,0.594c-0.333,0.231-0.595,0.414-1.162,0.414c-0.566,0-0.828-0.183-1.16-0.414
				c-0.381-0.265-0.854-0.594-1.737-0.594c-0.279,0-0.505,0.226-0.505,0.504S0.621,13.728,0.899,13.728z"/>
			<path fill="#4664B9" d="M12.501,22.808c0.278,0,0.505-0.226,0.505-0.505s-0.227-0.506-0.505-0.506
				c-0.884,0-1.358,0.33-1.74,0.595c-0.333,0.232-0.595,0.416-1.163,0.416s-0.831-0.184-1.163-0.416
				c-0.381-0.265-0.855-0.595-1.739-0.595c-0.883,0-1.357,0.33-1.738,0.595c-0.333,0.232-0.595,0.416-1.162,0.416
				c-0.566,0-0.828-0.184-1.16-0.415c-0.381-0.265-0.854-0.596-1.737-0.596c-0.279,0-0.505,0.227-0.505,0.506
				s0.226,0.505,0.505,0.505c0.566,0,0.828,0.183,1.16,0.413c0.38,0.265,0.854,0.595,1.737,0.595c0.884,0,1.358-0.33,1.738-0.595
				c0.333-0.23,0.595-0.413,1.162-0.413c0.567,0,0.831,0.183,1.164,0.413c0.38,0.265,0.854,0.595,1.738,0.595
				s1.358-0.33,1.739-0.595C11.669,22.989,11.932,22.808,12.501,22.808z"/>
			<path fill="#4664B9" d="M0.899,19.781c0.566,0,0.828,0.183,1.16,0.413c0.38,0.265,0.854,0.595,1.737,0.595
				c0.279,0,0.505-0.226,0.505-0.505c0-0.277-0.226-0.503-0.505-0.503c-0.566,0-0.828-0.185-1.16-0.415
				c-0.381-0.265-0.854-0.595-1.737-0.595c-0.279,0-0.505,0.226-0.505,0.505C0.395,19.555,0.621,19.781,0.899,19.781z"/>
			<path fill="#4664B9" d="M14.284,19.355c-0.427-0.273-0.912-0.584-1.783-0.584c-0.884,0-1.358,0.328-1.74,0.594
				c-0.333,0.231-0.595,0.416-1.163,0.416s-0.831-0.185-1.164-0.416c-0.38-0.266-0.855-0.594-1.739-0.594
				c-0.278,0-0.504,0.226-0.504,0.505c0,0.278,0.226,0.505,0.504,0.505c0.567,0,0.831,0.183,1.164,0.413
				c0.38,0.265,0.855,0.595,1.739,0.595s1.358-0.33,1.739-0.595c0.332-0.231,0.596-0.413,1.164-0.413
				c0.577,0,0.869,0.186,1.24,0.425c0.429,0.272,0.913,0.583,1.785,0.583c0.278,0,0.505-0.226,0.505-0.505
				c0-0.277-0.227-0.503-0.505-0.503C14.949,19.781,14.656,19.593,14.284,19.355z"/>
			<path fill="#4664B9" d="M0.899,16.755c0.566,0,0.828,0.183,1.16,0.413c0.38,0.265,0.854,0.595,1.737,0.595
				c0.884,0,1.358-0.33,1.738-0.595c0.333-0.23,0.595-0.413,1.162-0.413c0.279,0,0.505-0.227,0.505-0.505s-0.226-0.504-0.505-0.504
				c-0.883,0-1.357,0.328-1.738,0.594c-0.333,0.23-0.595,0.415-1.162,0.415c-0.566,0-0.828-0.185-1.16-0.415
				c-0.381-0.264-0.854-0.594-1.737-0.594c-0.279,0-0.505,0.226-0.505,0.504S0.621,16.755,0.899,16.755z"/>
			<path fill="#4664B9" d="M18.298,16.755c0.279,0,0.504-0.227,0.504-0.505s-0.225-0.504-0.504-0.504
				c-0.885,0-1.358,0.328-1.738,0.594c-0.333,0.23-0.596,0.415-1.162,0.415s-0.829-0.185-1.16-0.415
				c-0.381-0.264-0.854-0.594-1.737-0.594c-0.884,0-1.357,0.328-1.739,0.594c-0.333,0.23-0.596,0.415-1.163,0.415
				c-0.279,0-0.504,0.226-0.504,0.503c0,0.279,0.226,0.505,0.504,0.505c0.884,0,1.358-0.33,1.739-0.595
				c0.332-0.23,0.596-0.413,1.164-0.413c0.565,0,0.827,0.183,1.159,0.413c0.38,0.265,0.854,0.595,1.737,0.595
				c0.884,0,1.357-0.33,1.739-0.595C17.468,16.938,17.73,16.755,18.298,16.755z"/>
			<path fill="#4664B9" d="M15.865,2.761c-0.191-0.174-0.485-0.174-0.678,0c-0.178,0.162-4.379,3.995-6.902,8.721
				c-0.13,0.243-0.042,0.545,0.2,0.679c0.206,0.114,0.388,0.229,0.569,0.356c0.077,0.056,0.155,0.11,0.248,0.154
				c0.071,0.033,0.144,0.042,0.226,0.047l0.182-0.005c0.071-0.002,0.141-0.019,0.206-0.05c0.074-0.036,0.147-0.086,0.271-0.177
				c0.444-0.308,1.115-0.775,2.315-0.775c0.833,0,1.513,0.679,1.513,1.513c0,0.443-0.197,0.771-0.361,0.966
				c-0.104,0.125-0.144,0.292-0.102,0.45c0.039,0.157,0.154,0.285,0.306,0.345c0.396,0.154,0.693,0.345,0.999,0.558
				c0.075,0.058,0.155,0.112,0.248,0.156c0.071,0.031,0.147,0.048,0.229,0.047l0.178-0.005c0.072-0.004,0.141-0.02,0.205-0.052
				c0.073-0.035,0.146-0.085,0.269-0.177c0.444-0.309,1.114-0.775,2.314-0.775c0.834,0,1.513,0.68,1.513,1.514
				s-0.679,1.513-1.513,1.513c-0.04,0-0.079,0.005-0.118,0.014c-0.24,0.058-0.371,0.15-0.469,0.219
				c-0.22,0.155-0.495,0.346-0.867,0.5c-0.148,0.063-0.26,0.194-0.296,0.354c-0.037,0.156,0.005,0.322,0.111,0.445
				c0.174,0.198,0.381,0.531,0.381,0.99c0,0.835-0.68,1.513-1.514,1.513c-0.299,0-0.588-0.034-0.906-0.108
				c-0.154-0.037-0.313,0.05-0.434,0.151c-0.122,0.103-0.183,0.304-0.173,0.463c0,0.834-0.68,1.513-1.514,1.513
				c-0.04,0-0.079,0.005-0.118,0.014c-0.223,0.053-0.35,0.135-0.47,0.22c-0.246,0.171-0.585,0.388-1.035,0.55
				c-0.182,0.066-0.311,0.231-0.33,0.424c-0.02,0.193,0.073,0.38,0.237,0.48c1.427,0.875,3.066,1.339,4.741,1.339
				c5.006,0,9.079-4.073,9.079-9.079C24.605,10.747,16.222,3.084,15.865,2.761z"/>
		</g>
	</g>
</g>
</svg>
