<?xml version="1.0" encoding="utf-8"?>
<!-- Generator: Adobe Illustrator 16.0.0, SVG Export Plug-In . SVG Version: 6.00 Build 0)  -->
<!DOCTYPE svg PUBLIC "-//W3C//DTD SVG 1.1//EN" "http://www.w3.org/Graphics/SVG/1.1/DTD/svg11.dtd">
<svg version="1.1" id="Layer_1" xmlns="http://www.w3.org/2000/svg" xmlns:xlink="http://www.w3.org/1999/xlink" x="0px" y="0px"
	 width="272px" height="68px" viewBox="0 0 272 68" enable-background="new 0 0 272 68" xml:space="preserve">
<rect fill="#8B7100" fill-opacity="0" width="34" height="34"/>
<rect x="34" fill="#8B7100" fill-opacity="0" width="34" height="34"/>
<rect x="67.984" fill="#8B7100" fill-opacity="0" width="34" height="34"/>
<rect x="101.984" fill="#8B7100" fill-opacity="0" width="34" height="34"/>
<rect x="135.984" fill="#8B7100" fill-opacity="0" width="34" height="34"/>
<rect x="169.965" fill="#8B7100" fill-opacity="0" width="34" height="34"/>
<rect x="203.981" fill="#8B7100" fill-opacity="0" width="33.999" height="34"/>
<rect x="238.001" fill="#8B7100" fill-opacity="0" width="33.998" height="34"/>
<g>
	<g>
		<path fill="none" stroke="#FFFFFF" stroke-width="1.5" d="M9.54,23.587c-1.653,0.006-3.306,0.01-4.958,0.016
			c-0.689,0.005-0.832-0.138-0.888-0.82c-0.189-2.267,0.176-4.446,1.173-6.488c1.929-3.941,5.059-6.406,9.382-7.178
			c5.71-1.018,11.144,1.767,13.75,6.936c1.051,2.083,1.474,4.302,1.293,6.634c-0.008,0.104-0.008,0.209-0.016,0.314
			c-0.027,0.35-0.258,0.596-0.607,0.596c-1.805,0.001-3.043-0.004-4.849-0.014"/>
		<path fill="none" stroke="#FFFFFF" stroke-width="1.5" d="M16.983,26.053c-1.358-0.031-2.471-0.758-2.99-2.008
			c-0.589-1.415-0.934-2.903-1.223-4.403c-0.202-1.049-0.364-2.107-0.528-3.162c-0.025-0.161-0.01-0.349,0.043-0.503
			c0.096-0.273,0.43-0.413,0.714-0.321c0.125,0.042,0.25,0.104,0.355,0.181c1.832,1.349,3.623,2.748,5.233,4.362
			c0.276,0.275,0.535,0.573,0.797,0.867c1.484,1.66,0.684,4.202-1.504,4.829C17.588,25.975,17.283,26.001,16.983,26.053z"/>
		<path fill="none" stroke="#41C363" stroke-width="1.5" d="M21.661,9.969c2.673,1.174,4.924,3.277,6.338,6.084
			c1.051,2.083,1.474,4.302,1.293,6.634c-0.007,0.104-0.007,0.209-0.016,0.314c-0.027,0.35-0.258,0.596-0.607,0.596
			c-1.804,0.002-3.043-0.004-4.849-0.014"/>
	</g>
</g>
<rect y="33.994" fill="#8B7100" fill-opacity="0" width="34" height="34.006"/>
<g>
	<g>
		<path fill="none" stroke="#FFFFFF" stroke-width="1.5" d="M9.54,57.586c-1.653,0.006-3.306,0.01-4.958,0.016
			c-0.689,0.005-0.832-0.138-0.888-0.82c-0.189-2.267,0.176-4.446,1.173-6.489c1.929-3.941,5.059-6.406,9.382-7.179
			c5.71-1.019,11.144,1.768,13.75,6.938c1.051,2.083,1.474,4.303,1.293,6.635c-0.008,0.104-0.008,0.209-0.016,0.313
			c-0.027,0.351-0.258,0.597-0.607,0.597c-1.805,0.001-3.043-0.004-4.849-0.014"/>
		<path fill="none" stroke="#FFFFFF" stroke-width="1.5" d="M16.983,60.052c-1.358-0.031-2.471-0.758-2.99-2.008
			c-0.589-1.416-0.934-2.903-1.223-4.404c-0.202-1.049-0.364-2.106-0.528-3.162c-0.025-0.161-0.01-0.35,0.043-0.503
			c0.096-0.273,0.43-0.413,0.714-0.321c0.125,0.042,0.25,0.104,0.355,0.181c1.832,1.35,3.623,2.749,5.233,4.363
			c0.276,0.275,0.535,0.573,0.797,0.867c1.484,1.66,0.684,4.202-1.504,4.829C17.588,59.973,17.283,60,16.983,60.052z"/>
		<path fill="none" stroke="#000000" stroke-width="1.5" d="M21.661,43.965c2.673,1.174,4.924,3.277,6.338,6.085
			c1.051,2.083,1.474,4.303,1.293,6.635c-0.007,0.104-0.007,0.209-0.016,0.313c-0.027,0.351-0.258,0.597-0.607,0.597
			c-1.804,0.002-3.043-0.004-4.849-0.014"/>
	</g>
</g>
<g>
	
		<line fill="none" stroke="#FFFFFF" stroke-width="1.5" stroke-miterlimit="10" x1="118.069" y1="26.808" x2="118.069" y2="29.397"/>
	
		<line fill="none" stroke="#FFFFFF" stroke-width="1.5" stroke-miterlimit="10" x1="115.819" y1="26.851" x2="125.025" y2="26.851"/>
	<g>
		<path fill="none" stroke="#FFFFFF" stroke-width="1.5" stroke-miterlimit="10" d="M128.774,29.167
			c-0.343,0.169-0.729,0.264-1.135,0.264c-1.42,0-2.57-1.154-2.57-2.573s1.152-2.572,2.57-2.572c0.019,0,0.037,0,0.056,0"/>
	</g>
	
		<line fill="none" stroke="#FFFFFF" stroke-width="1.5" stroke-miterlimit="10" x1="122.069" y1="26.808" x2="122.069" y2="31.397"/>
	<g>
		<path fill="none" stroke="#41C363" stroke-width="1.5" stroke-miterlimit="10" d="M127.639,24.284
			c1.418,0,2.572,1.153,2.572,2.572c0,1.025-0.604,1.913-1.474,2.326"/>
	</g>
</g>
<g>
	<path fill="none" stroke="#FFFFFF" stroke-width="1.5" stroke-miterlimit="10" d="M122.01,24.349c0-0.195-0.01-0.388-0.027-0.579
		c-0.291-3.132-2.928-5.581-6.131-5.581"/>
	<circle fill="none" stroke="#FFFFFF" stroke-width="1.5" stroke-miterlimit="10" cx="115.854" cy="8.992" r="6.158"/>
	<path fill="none" stroke="#41C363" stroke-width="1.5" stroke-miterlimit="10" d="M115.854,18.188c-3.399,0-6.16,2.756-6.16,6.16"
		/>
	<path fill="none" stroke="#FFFFFF" stroke-width="1.5" stroke-miterlimit="10" d="M109.695,24.349v6.43h5.083"/>
	<path fill="none" stroke="#FFFFFF" stroke-width="1.5" stroke-miterlimit="10" d="M122.01,24.349"/>
	<path fill="none" stroke="#FFFFFF" stroke-width="1.5" stroke-miterlimit="10" d="M111.928,30.777"/>
</g>
<rect x="101.984" y="34.016" fill="#8B7100" fill-opacity="0" width="34" height="34.001"/>
<g>
	
		<line fill="none" stroke="#FFFFFF" stroke-width="1.5" stroke-miterlimit="10" x1="118.069" y1="60.824" x2="118.069" y2="63.414"/>
	
		<line fill="none" stroke="#FFFFFF" stroke-width="1.5" stroke-miterlimit="10" x1="115.819" y1="60.867" x2="125.025" y2="60.867"/>
	<g>
		<path fill="none" stroke="#FFFFFF" stroke-width="1.5" stroke-miterlimit="10" d="M128.774,63.183
			c-0.343,0.169-0.729,0.265-1.135,0.265c-1.42,0-2.57-1.154-2.57-2.573s1.152-2.572,2.57-2.572c0.019,0,0.037,0,0.056,0"/>
	</g>
	
		<line fill="none" stroke="#FFFFFF" stroke-width="1.5" stroke-miterlimit="10" x1="122.069" y1="60.824" x2="122.069" y2="65.414"/>
	<g>
		<path fill="none" stroke="#000000" stroke-width="1.5" stroke-miterlimit="10" d="M127.639,58.3c1.418,0,2.572,1.153,2.572,2.572
			c0,1.024-0.604,1.913-1.474,2.326"/>
	</g>
</g>
<g>
	<path fill="none" stroke="#FFFFFF" stroke-width="1.5" stroke-miterlimit="10" d="M122.01,58.365c0-0.195-0.01-0.389-0.027-0.579
		c-0.291-3.132-2.928-5.581-6.131-5.581"/>
	<circle fill="none" stroke="#FFFFFF" stroke-width="1.5" stroke-miterlimit="10" cx="115.854" cy="43.009" r="6.158"/>
	<path fill="none" stroke="#000000" stroke-width="1.5" stroke-miterlimit="10" d="M115.854,52.205c-3.399,0-6.16,2.756-6.16,6.16"
		/>
	<path fill="none" stroke="#FFFFFF" stroke-width="1.5" stroke-miterlimit="10" d="M109.695,58.365v6.43h5.083"/>
	<path fill="none" stroke="#FFFFFF" stroke-width="1.5" stroke-miterlimit="10" d="M122.01,58.365"/>
	<path fill="none" stroke="#FFFFFF" stroke-width="1.5" stroke-miterlimit="10" d="M111.928,64.794"/>
</g>
<g>
	<path fill="none" stroke="#FFFFFF" stroke-width="1.5" stroke-miterlimit="10" d="M56.644,23.17c0-3.404-2.759-6.16-6.158-6.16"/>
	<circle fill="none" stroke="#FFFFFF" stroke-width="1.5" stroke-miterlimit="10" cx="50.488" cy="7.814" r="6.158"/>
	<path fill="none" stroke="#41C363" stroke-width="1.5" stroke-miterlimit="10" d="M50.488,17.01c-3.399,0-6.16,2.756-6.16,6.16"/>
	<path fill="none" stroke="#FFFFFF" stroke-width="1.5" stroke-miterlimit="10" d="M44.329,23.17v6.43h10.083"/>
	<path fill="none" stroke="#FFFFFF" stroke-width="1.5" stroke-miterlimit="10" d="M46.562,29.599h10.083v-6.43"/>
</g>
<rect x="34" y="34.016" fill="#8B7100" fill-opacity="0" width="34" height="34.001"/>
<g>
	<path fill="none" stroke="#FFFFFF" stroke-width="1.5" stroke-miterlimit="10" d="M56.644,57.187c0-3.404-2.759-6.16-6.158-6.16"/>
	<circle fill="none" stroke="#FFFFFF" stroke-width="1.5" stroke-miterlimit="10" cx="50.488" cy="41.83" r="6.158"/>
	<path fill="none" stroke="#000000" stroke-width="1.5" stroke-miterlimit="10" d="M50.488,51.026c-3.399,0-6.16,2.756-6.16,6.16"/>
	<path fill="none" stroke="#FFFFFF" stroke-width="1.5" stroke-miterlimit="10" d="M44.329,57.187v6.43h10.083"/>
	<path fill="none" stroke="#FFFFFF" stroke-width="1.5" stroke-miterlimit="10" d="M46.562,63.615h10.083v-6.43"/>
</g>
<g>
	<g>
		<g>
			<path fill="none" stroke="#FFFFFF" stroke-width="1.5" stroke-miterlimit="10" d="M147.971,23.104
				c-0.875,0.397-1.645,0.734-2.324,1.031c-3.012,1.313-4.137,1.81-4.137,3.438c0,1.227,1.119,2.344,2.344,2.344h8.039"/>
		</g>
	</g>
	<g>
		<g>
			<path fill="none" stroke="#FFFFFF" stroke-width="1.5" stroke-miterlimit="10" d="M159.635,16.273
				c0.238,0.309,0.584,0.524,1.002,0.524h0.645c0.705,0,1.271-0.572,1.271-1.277v-2.558c0.002-0.704-0.57-1.275-1.271-1.275h-0.643
				c0-4.223-3.426-8.278-7.646-8.278s-7.645,4.056-7.645,8.278h-0.646c-0.703,0-1.27,0.571-1.27,1.274v2.56
				c0,0.705,0.564,1.275,1.27,1.275h0.646c0.377,0,0.705-0.173,0.938-0.43c0.043,0.055,0.076,0.109,0.119,0.161 M146.389,14.075
				c0-0.032,0-0.063,0-0.092c0-4.723,2.965-7.933,6.604-7.933c3.646,0,6.607,3.21,6.607,7.933c0,4.722-2.971,9.193-6.609,9.193"/>
		</g>
	</g>
	<path fill="none" stroke="#FFFFFF" stroke-width="1.5" stroke-miterlimit="10" d="M151.094,18.697
		c-2.238,0-3.996-1.528-4.797-2.167"/>
	<path fill="#FFFFFF" d="M153.659,18.581c0,0.782-0.633,1.411-1.41,1.411c-0.781,0-1.414-0.629-1.414-1.411
		c0-0.779,0.633-1.408,1.414-1.408C153.026,17.173,153.659,17.802,153.659,18.581z"/>
	<g>
		<g>
			<path fill="none" stroke="#41C363" stroke-width="1.5" stroke-miterlimit="10" d="M151.862,29.918h10.248
				c1.229,0,2.346-1.118,2.346-2.344c0.014-1.629-1.111-2.123-4.125-3.438c-0.682-0.297-1.449-0.631-2.322-1.031l-0.043-0.02"/>
		</g>
	</g>
	<path fill="none" stroke="#41C363" stroke-width="1.5" stroke-miterlimit="10" d="M152.989,23.179
		c-2.412,0-4.523-1.691-5.676-4.208c-0.348-0.649-0.689-2.078-0.689-2.078c-0.146-0.727-0.238-2.119-0.238-2.908"/>
</g>
<rect x="135.984" fill="#8B7100" fill-opacity="0" width="34" height="34"/>
<g>
	<g>
		<g>
			<path fill="none" stroke="#FFFFFF" stroke-width="1.5" stroke-miterlimit="10" d="M147.971,23.104
				c-0.875,0.397-1.645,0.734-2.324,1.031c-3.012,1.313-4.137,1.81-4.137,3.438c0,1.227,1.119,2.344,2.344,2.344h8.039"/>
		</g>
	</g>
	<g>
		<g>
			<path fill="none" stroke="#FFFFFF" stroke-width="1.5" stroke-miterlimit="10" d="M159.635,16.273
				c0.238,0.309,0.584,0.524,1.002,0.524h0.645c0.705,0,1.271-0.572,1.271-1.277v-2.558c0.002-0.704-0.57-1.275-1.271-1.275h-0.643
				c0-4.223-3.426-8.278-7.646-8.278s-7.645,4.056-7.645,8.278h-0.646c-0.703,0-1.27,0.571-1.27,1.274v2.56
				c0,0.705,0.564,1.275,1.27,1.275h0.646c0.377,0,0.705-0.173,0.938-0.43c0.043,0.055,0.076,0.109,0.119,0.161 M146.389,14.075
				c0-0.032,0-0.063,0-0.092c0-4.723,2.965-7.933,6.604-7.933c3.646,0,6.607,3.21,6.607,7.933c0,4.722-2.971,9.193-6.609,9.193"/>
		</g>
	</g>
	<path fill="none" stroke="#FFFFFF" stroke-width="1.5" stroke-miterlimit="10" d="M151.094,18.697
		c-2.238,0-3.996-1.528-4.797-2.167"/>
	<path fill="#FFFFFF" d="M153.659,18.581c0,0.782-0.633,1.411-1.41,1.411c-0.781,0-1.414-0.629-1.414-1.411
		c0-0.779,0.633-1.408,1.414-1.408C153.026,17.173,153.659,17.802,153.659,18.581z"/>
	<g>
		<g>
			<path fill="none" stroke="#41C363" stroke-width="1.5" stroke-miterlimit="10" d="M151.862,29.918h10.248
				c1.229,0,2.346-1.118,2.346-2.344c0.014-1.629-1.111-2.123-4.125-3.438c-0.682-0.297-1.449-0.631-2.322-1.031l-0.043-0.02"/>
		</g>
	</g>
	<path fill="none" stroke="#41C363" stroke-width="1.5" stroke-miterlimit="10" d="M152.989,23.179
		c-2.412,0-4.523-1.691-5.676-4.208c-0.348-0.649-0.689-2.078-0.689-2.078c-0.146-0.727-0.238-2.119-0.238-2.908"/>
</g>
<rect x="135.984" y="34.016" fill="#8B7100" fill-opacity="0" width="34" height="34.001"/>
<g>
	<g>
		<g>
			<path fill="none" stroke="#FFFFFF" stroke-width="1.5" stroke-miterlimit="10" d="M147.971,57.121
				c-0.875,0.397-1.645,0.734-2.324,1.031c-3.012,1.313-4.137,1.81-4.137,3.438c0,1.227,1.119,2.344,2.344,2.344h8.039"/>
		</g>
	</g>
	<g>
		<g>
			<path fill="none" stroke="#FFFFFF" stroke-width="1.5" stroke-miterlimit="10" d="M159.635,50.29
				c0.238,0.309,0.584,0.523,1.002,0.523h0.645c0.705,0,1.271-0.572,1.271-1.277v-2.558c0.002-0.704-0.57-1.275-1.271-1.275h-0.643
				c0-4.223-3.426-8.277-7.646-8.277s-7.645,4.056-7.645,8.277h-0.646c-0.703,0-1.27,0.571-1.27,1.274v2.56
				c0,0.705,0.564,1.275,1.27,1.275h0.646c0.377,0,0.705-0.173,0.938-0.43c0.043,0.055,0.076,0.108,0.119,0.161 M146.389,48.092
				c0-0.032,0-0.063,0-0.092c0-4.724,2.965-7.934,6.604-7.934c3.646,0,6.607,3.21,6.607,7.934c0,4.722-2.971,9.193-6.609,9.193"/>
		</g>
	</g>
	<path fill="none" stroke="#FFFFFF" stroke-width="1.5" stroke-miterlimit="10" d="M151.094,52.714
		c-2.238,0-3.996-1.528-4.797-2.167"/>
	<path fill="#FFFFFF" d="M153.659,52.598c0,0.782-0.633,1.411-1.41,1.411c-0.781,0-1.414-0.629-1.414-1.411
		c0-0.779,0.633-1.408,1.414-1.408C153.026,51.189,153.659,51.818,153.659,52.598z"/>
	<g>
		<g>
			<path fill="none" stroke="#000000" stroke-width="1.5" stroke-miterlimit="10" d="M151.862,63.935h10.248
				c1.229,0,2.346-1.118,2.346-2.344c0.014-1.629-1.111-2.123-4.125-3.438c-0.682-0.297-1.449-0.631-2.322-1.031l-0.043-0.02"/>
		</g>
	</g>
	<path fill="none" stroke="#000000" stroke-width="1.5" stroke-miterlimit="10" d="M152.989,57.195
		c-2.412,0-4.523-1.691-5.676-4.209c-0.348-0.648-0.689-2.078-0.689-2.078c-0.146-0.727-0.238-2.118-0.238-2.907"/>
</g>
<line fill="none" stroke="#FFFFFF" stroke-width="2" stroke-linecap="round" stroke-linejoin="round" stroke-miterlimit="10" x1="73" y1="10.069" x2="85.177" y2="3.305"/>
<line fill="none" stroke="#FFFFFF" stroke-width="1.5" stroke-linecap="round" stroke-linejoin="round" stroke-miterlimit="10" x1="75.387" y1="8.909" x2="75.387" y2="24.344"/>
<line fill="none" stroke="#FFFFFF" stroke-width="2" stroke-linecap="round" stroke-linejoin="round" stroke-miterlimit="10" x1="97.264" y1="10.069" x2="85.087" y2="3.305"/>
<line fill="none" stroke="#FFFFFF" stroke-width="1.5" stroke-linecap="round" stroke-linejoin="round" stroke-miterlimit="10" x1="94.788" y1="8.909" x2="94.788" y2="24.344"/>
<g>
	<g>
		<g>
			<path fill="none" stroke="#41C363" stroke-width="1.5" stroke-miterlimit="10" d="M85.648,17.964v-0.66
				c0-1.82,1.479-3.299,3.3-3.299h0.66v0.66c0,1.819-1.48,3.299-3.299,3.299H85.648z M84.329,17.304v0.66h-0.66
				c-1.819,0-3.299-1.48-3.299-3.299v-0.66h0.661C82.848,14.005,84.329,15.484,84.329,17.304z"/>
		</g>
	</g>
	
		<line fill="none" stroke="#41C363" stroke-width="1.5" stroke-linecap="round" stroke-linejoin="round" stroke-miterlimit="10" x1="84.989" y1="18.274" x2="84.989" y2="24.379"/>
</g>
<path fill="none" stroke="#FFFFFF" stroke-width="1.5" stroke-linecap="round" stroke-linejoin="round" stroke-miterlimit="10" d="
	M97.633,27.17L97.633,27.17c0-1.393-1.257-2.521-2.809-2.521H74.898c-1.552,0-2.81,1.128-2.81,2.521v2.26h25.544V27.17z"/>
<rect x="67.984" y="34.016" fill="#8B7100" fill-opacity="0" width="34" height="34.001"/>
<line fill="none" stroke="#FFFFFF" stroke-width="2" stroke-linecap="round" stroke-linejoin="round" stroke-miterlimit="10" x1="73" y1="44.086" x2="85.177" y2="37.321"/>
<line fill="none" stroke="#FFFFFF" stroke-width="1.5" stroke-linecap="round" stroke-linejoin="round" stroke-miterlimit="10" x1="75.387" y1="42.926" x2="75.387" y2="58.36"/>
<line fill="none" stroke="#FFFFFF" stroke-width="2" stroke-linecap="round" stroke-linejoin="round" stroke-miterlimit="10" x1="97.264" y1="44.086" x2="85.087" y2="37.321"/>
<line fill="none" stroke="#FFFFFF" stroke-width="1.5" stroke-linecap="round" stroke-linejoin="round" stroke-miterlimit="10" x1="94.788" y1="42.926" x2="94.788" y2="58.36"/>
<g>
	<g>
		<g>
			<path fill="none" stroke="#000000" stroke-width="1.5" stroke-miterlimit="10" d="M85.648,51.98v-0.66
				c0-1.819,1.479-3.299,3.3-3.299h0.66v0.66c0,1.818-1.48,3.299-3.299,3.299H85.648z M84.329,51.32v0.66h-0.66
				c-1.819,0-3.299-1.48-3.299-3.299v-0.66h0.661C82.848,48.021,84.329,49.501,84.329,51.32z"/>
		</g>
	</g>
	
		<line fill="none" stroke="#000000" stroke-width="1.5" stroke-linecap="round" stroke-linejoin="round" stroke-miterlimit="10" x1="84.989" y1="52.291" x2="84.989" y2="58.396"/>
</g>
<path fill="none" stroke="#FFFFFF" stroke-width="1.5" stroke-linecap="round" stroke-linejoin="round" stroke-miterlimit="10" d="
	M97.633,61.187L97.633,61.187c0-1.393-1.257-2.521-2.809-2.521H74.898c-1.552,0-2.81,1.128-2.81,2.521v2.261h25.544V61.187z"/>
<g>
	<g>
		<path fill="none" stroke="#FFFFFF" stroke-width="1.5" stroke-linecap="round" stroke-miterlimit="10" d="M263.55,14.053
			c-2.398,0.006-4.796,0.004-7.198,0.004c-2.409,0-4.822,0.002-7.232,0"/>
		<path fill="none" stroke="#41C363" stroke-width="1.5" stroke-miterlimit="10" d="M259.173,21.295c0-1.499,1.177-2.697,2.67-2.703
			c1.474-0.005,2.715,1.217,2.72,2.691c0,1.443-1.246,2.724-2.69,2.729C260.417,24.025,259.185,22.788,259.173,21.295z"/>
		<path fill="none" stroke="#FFFFFF" stroke-width="1.5" stroke-linecap="round" stroke-miterlimit="10" d="M255.76,9.469
			c-2.398,0.006,2.994,0.004,0.592,0.004c-2.409,0-4.822,0.002-7.232,0"/>
		<path fill="none" stroke="#FFFFFF" stroke-width="1.5" stroke-linecap="round" stroke-miterlimit="10" d="M254.831,18.979
			c-2.397,0.006,2.994,0.004,0.592,0.004c-2.408,0-3.893,0.002-6.303,0"/>
		<path fill="none" stroke="#FFFFFF" stroke-width="1.5" stroke-linecap="round" stroke-miterlimit="10" d="M252.59,23.735
			c-2.398,0.006,2.994,0.004,0.592,0.004c-2.409,0-1.652,0.002-4.063,0"/>
	</g>
	<path fill="none" stroke="#FFFFFF" stroke-width="1.5" stroke-miterlimit="10" d="M245.457,19.385c0,2.63,0,5.261,0,7.89
		c0,0.835,0.353,1.353,1.055,1.522c0.155,0.037,0.324,0.034,0.487,0.034c2.4,0.003,4.8,0,7.202,0.005"/>
	<path fill="none" stroke="#FFFFFF" stroke-width="1.5" stroke-miterlimit="10" d="M267.555,14.864
		c-0.016-3.099-0.007-6.198-0.013-9.295c0-0.759-0.372-1.276-1.031-1.446c-0.163-0.042-0.344-0.042-0.516-0.042
		c-3.753-0.001-7.506-0.001-11.262-0.001"/>
	<path fill="none" stroke="#41C363" stroke-width="1.5" stroke-miterlimit="10" d="M254.815,4.081c-6.338-0.001-1.496-0.002-7.836,0
		c-0.993,0-1.522,0.527-1.522,1.508c-0.002,7.229,0,6.63,0,13.857"/>
	<path fill="none" stroke="#FFFFFF" stroke-width="1.5" stroke-miterlimit="10" d="M253.718,28.836
		c2.402-0.005,9.895-0.002,12.295-0.005c0.163,0,0.332,0.003,0.487-0.034c0.702-0.169,1.055-0.687,1.055-1.522
		c0-2.629,0-10.875,0-13.505"/>
</g>
<rect x="238.001" y="34.016" fill="#8B7100" fill-opacity="0" width="33.998" height="34.001"/>
<g>
	<g>
		<path fill="none" stroke="#FFFFFF" stroke-width="1.5" stroke-linecap="round" stroke-miterlimit="10" d="M263.55,48.069
			c-2.398,0.006-4.796,0.004-7.198,0.004c-2.409,0-4.822,0.002-7.232,0"/>
		<path fill="none" stroke="#000000" stroke-width="1.5" stroke-miterlimit="10" d="M259.173,55.312c0-1.499,1.177-2.696,2.67-2.702
			c1.474-0.006,2.715,1.217,2.72,2.69c0,1.443-1.246,2.725-2.69,2.729C260.417,58.042,259.185,56.805,259.173,55.312z"/>
		<path fill="none" stroke="#FFFFFF" stroke-width="1.5" stroke-linecap="round" stroke-miterlimit="10" d="M255.76,43.485
			c-2.398,0.006,2.994,0.004,0.592,0.004c-2.409,0-4.822,0.002-7.232,0"/>
		<path fill="none" stroke="#FFFFFF" stroke-width="1.5" stroke-linecap="round" stroke-miterlimit="10" d="M254.831,52.995
			c-2.397,0.006,2.994,0.004,0.592,0.004c-2.408,0-3.893,0.002-6.303,0"/>
		<path fill="none" stroke="#FFFFFF" stroke-width="1.5" stroke-linecap="round" stroke-miterlimit="10" d="M252.59,57.751
			c-2.398,0.007,2.994,0.005,0.592,0.005c-2.409,0-1.652,0.002-4.063,0"/>
	</g>
	<path fill="none" stroke="#FFFFFF" stroke-width="1.5" stroke-miterlimit="10" d="M245.457,53.401c0,2.63,0,5.261,0,7.89
		c0,0.836,0.353,1.354,1.055,1.522c0.155,0.037,0.324,0.034,0.487,0.034c2.4,0.003,4.8,0,7.202,0.005"/>
	<path fill="none" stroke="#FFFFFF" stroke-width="1.5" stroke-miterlimit="10" d="M267.555,48.88
		c-0.016-3.099-0.007-6.197-0.013-9.295c0-0.759-0.372-1.276-1.031-1.446c-0.163-0.042-0.344-0.041-0.516-0.041
		c-3.753-0.001-7.506-0.001-11.262-0.001"/>
	<path fill="none" stroke="#000000" stroke-width="1.5" stroke-miterlimit="10" d="M254.815,38.098
		c-6.338-0.001-1.496-0.002-7.836,0c-0.993,0-1.522,0.527-1.522,1.508c-0.002,7.229,0,6.63,0,13.857"/>
	<path fill="none" stroke="#FFFFFF" stroke-width="1.5" stroke-miterlimit="10" d="M253.718,62.853
		c2.402-0.005,9.895-0.002,12.295-0.005c0.163,0,0.332,0.003,0.487-0.034c0.702-0.169,1.055-0.687,1.055-1.522
		c0-2.629,0-10.874,0-13.505"/>
</g>
<g>
	<path fill="none" stroke="#FFFFFF" stroke-width="1.5" stroke-miterlimit="10" d="M210.312,18.146c0,2.353,0,6.707,0,9.059
		c0,0.747,0.315,1.21,0.943,1.361c0.139,0.033,0.29,0.03,0.436,0.03c2.146,0.003,7.135,0,9.283,0.005"/>
	<path fill="none" stroke="#FFFFFF" stroke-width="1.5" stroke-miterlimit="10" d="M230.765,15.878
		c-0.014-2.771-0.006-7.317-0.012-10.088c0-0.679-0.332-1.142-0.922-1.293c-0.146-0.038-0.308-0.037-0.461-0.037
		c-3.356-0.001-6.713-0.001-10.072-0.001"/>
	<path fill="none" stroke="#41C363" stroke-width="1.5" stroke-miterlimit="10" d="M219.371,4.46c-5.668-0.001-2.027-0.002-7.697,0
		c-0.888,0-1.361,0.472-1.361,1.349c-0.002,6.465,0,5.93,0,12.394"/>
</g>
<g>
	<line fill="none" stroke="#FFFFFF" stroke-width="1.5" stroke-miterlimit="1" x1="213.742" y1="23.579" x2="220.974" y2="23.579"/>
	<g>
		<line fill="none" stroke="#FFFFFF" stroke-width="1.5" stroke-miterlimit="1" x1="213.742" y1="20.26" x2="220.974" y2="20.26"/>
	</g>
	<g>
		
			<line fill="none" stroke="#FFFFFF" stroke-width="1.5" stroke-miterlimit="1" x1="213.742" y1="16.892" x2="220.974" y2="16.892"/>
	</g>
</g>
<polygon fill="none" stroke="#FFFFFF" stroke-width="1.3" stroke-linecap="round" stroke-linejoin="round" stroke-miterlimit="10" points="
	224.578,12.656 224.578,12.656 214.164,12.656 214.164,12.656 214.164,8.953 214.164,8.953 224.578,8.953 224.578,8.953 "/>
<g>
	<g>
		<path fill="none" stroke="#41C363" stroke-width="1.5" stroke-miterlimit="10" d="M224.156,16.892
			c6.437,0.809,11.491,6.107,12.266,12.247"/>
	</g>
	<g>
		<path fill="none" stroke="#FFFFFF" stroke-width="1.5" stroke-miterlimit="10" d="M224.147,21.407
			c4.159,0.792,7.109,4.228,7.733,7.733"/>
	</g>
	<g>
		<path fill="#41C363" d="M225.578,25.999c0.718,0.002,1.287,0.586,1.279,1.319c-0.009,0.704-0.583,1.259-1.306,1.257
			c-0.722-0.004-1.283-0.583-1.28-1.321C224.285,26.557,224.864,25.996,225.578,25.999z"/>
	</g>
</g>
<rect x="203.981" y="34.016" fill="#8B7100" fill-opacity="0" width="33.999" height="34.001"/>
<g>
	<path fill="none" stroke="#FFFFFF" stroke-width="1.5" stroke-miterlimit="10" d="M210.312,52.163c0,2.353,0,6.707,0,9.059
		c0,0.747,0.315,1.21,0.943,1.361c0.139,0.033,0.29,0.03,0.436,0.03c2.146,0.003,7.135,0,9.283,0.005"/>
	<path fill="none" stroke="#FFFFFF" stroke-width="1.5" stroke-miterlimit="10" d="M230.765,49.895
		c-0.014-2.771-0.006-7.317-0.012-10.088c0-0.679-0.332-1.142-0.922-1.293c-0.146-0.038-0.308-0.037-0.461-0.037
		c-3.356-0.001-6.713-0.001-10.072-0.001"/>
</g>
<g>
	<line fill="none" stroke="#FFFFFF" stroke-width="1.5" stroke-miterlimit="1" x1="213.742" y1="57.596" x2="220.974" y2="57.596"/>
	<g>
		
			<line fill="none" stroke="#FFFFFF" stroke-width="1.5" stroke-miterlimit="1" x1="213.742" y1="54.276" x2="220.974" y2="54.276"/>
	</g>
	<g>
		
			<line fill="none" stroke="#FFFFFF" stroke-width="1.5" stroke-miterlimit="1" x1="213.742" y1="50.908" x2="220.974" y2="50.908"/>
	</g>
</g>
<polygon fill="none" stroke="#FFFFFF" stroke-width="1.3" stroke-linecap="round" stroke-linejoin="round" stroke-miterlimit="10" points="
	224.578,46.673 224.578,46.673 214.164,46.673 214.164,46.673 214.164,42.97 214.164,42.97 224.578,42.97 224.578,42.97 "/>
<g>
	<g>
		<path fill="#FFFFFF" stroke="#000000" stroke-width="1.5" stroke-miterlimit="10" d="M224.156,50.908
			c6.437,0.809,11.491,6.107,12.266,12.246"/>
	</g>
	<g>
		<path fill="none" stroke="#FFFFFF" stroke-width="1.5" stroke-miterlimit="10" d="M224.147,55.424
			c4.159,0.791,7.109,4.228,7.733,7.732"/>
	</g>
	<g>
		<path d="M225.578,60.015c0.718,0.002,1.287,0.586,1.279,1.319c-0.009,0.704-0.583,1.26-1.306,1.257
			c-0.722-0.004-1.283-0.583-1.28-1.321C224.285,60.573,224.864,60.013,225.578,60.015z"/>
	</g>
	<path fill="none" stroke="#000000" stroke-width="1.5" stroke-miterlimit="10" d="M219.371,38.477
		c-5.668-0.001-2.027-0.002-7.697,0c-0.888,0-1.361,0.472-1.361,1.349c-0.002,6.465,0,5.93,0,12.394"/>
</g>
<g>
	
		<rect x="178.856" y="8.453" fill="none" stroke="#FFFFFF" stroke-width="1.5" stroke-miterlimit="10" width="15.862" height="15.864"/>
	
		<rect x="183.342" y="12.939" fill="none" stroke="#FFFFFF" stroke-width="1.5" stroke-miterlimit="10" width="6.89" height="6.891"/>
	<g>
		<polyline fill="none" stroke="#FFFFFF" stroke-width="1.5" stroke-miterlimit="10" points="181.686,7.656 181.686,3.656 
			179.257,3.656 		"/>
		<polyline fill="none" stroke="#FFFFFF" stroke-width="1.5" stroke-miterlimit="10" points="191.769,7.656 191.769,3.656 
			194.198,3.656 		"/>
		<line fill="none" stroke="#FFFFFF" stroke-width="1.5" stroke-miterlimit="10" x1="188.642" y1="7.656" x2="188.642" y2="3.656"/>
		<line fill="none" stroke="#FFFFFF" stroke-width="1.5" stroke-miterlimit="10" x1="185.179" y1="7.656" x2="185.179" y2="3.656"/>
	</g>
	<g>
		<polyline fill="none" stroke="#FFFFFF" stroke-width="1.5" stroke-miterlimit="10" points="181.686,24.966 181.686,28.966 
			179.257,28.966 		"/>
		<polyline fill="none" stroke="#FFFFFF" stroke-width="1.5" stroke-miterlimit="10" points="191.769,24.966 191.769,28.966 
			194.198,28.966 		"/>
		
			<line fill="none" stroke="#FFFFFF" stroke-width="1.5" stroke-miterlimit="10" x1="188.642" y1="24.966" x2="188.642" y2="28.966"/>
		
			<line fill="none" stroke="#FFFFFF" stroke-width="1.5" stroke-miterlimit="10" x1="185.179" y1="24.966" x2="185.179" y2="28.966"/>
	</g>
	<g>
		<polyline fill="none" stroke="#FFFFFF" stroke-width="1.5" stroke-miterlimit="10" points="195.452,21.701 199.452,21.701 
			199.452,24.129 		"/>
		<polyline fill="none" stroke="#FFFFFF" stroke-width="1.5" stroke-miterlimit="10" points="195.452,11.617 199.452,11.617 
			199.452,9.189 		"/>
		
			<line fill="none" stroke="#FFFFFF" stroke-width="1.5" stroke-miterlimit="10" x1="195.452" y1="14.746" x2="199.452" y2="14.746"/>
		
			<line fill="none" stroke="#FFFFFF" stroke-width="1.5" stroke-miterlimit="10" x1="195.452" y1="18.208" x2="199.452" y2="18.208"/>
	</g>
	<g>
		<polyline fill="none" stroke="#FFFFFF" stroke-width="1.5" stroke-miterlimit="10" points="178.109,21.701 174.109,21.701 
			174.109,24.129 		"/>
		<polyline fill="none" stroke="#FFFFFF" stroke-width="1.5" stroke-miterlimit="10" points="178.109,11.617 174.109,11.617 
			174.109,9.189 		"/>
		
			<line fill="none" stroke="#FFFFFF" stroke-width="1.5" stroke-miterlimit="10" x1="178.109" y1="14.746" x2="174.109" y2="14.746"/>
		
			<line fill="none" stroke="#FFFFFF" stroke-width="1.5" stroke-miterlimit="10" x1="178.109" y1="18.208" x2="174.109" y2="18.208"/>
	</g>
	<polyline fill="none" stroke="#41C363" stroke-width="1.5" stroke-miterlimit="10" points="178.856,16.709 178.856,8.453 
		186.787,8.453 	"/>
	<polyline fill="none" stroke="#41C363" stroke-width="1.5" stroke-miterlimit="10" points="186.461,24.316 194.718,24.316 
		194.718,16.385 	"/>
</g>
<rect x="169.965" y="33.999" fill="#8B7100" fill-opacity="0" width="34" height="34.001"/>
<g>
	
		<rect x="178.856" y="42.452" fill="none" stroke="#FFFFFF" stroke-width="1.5" stroke-miterlimit="10" width="15.862" height="15.864"/>
	
		<rect x="183.342" y="46.938" fill="none" stroke="#FFFFFF" stroke-width="1.5" stroke-miterlimit="10" width="6.89" height="6.892"/>
	<g>
		<polyline fill="none" stroke="#FFFFFF" stroke-width="1.5" stroke-miterlimit="10" points="181.686,41.656 181.686,37.656 
			179.257,37.656 		"/>
		<polyline fill="none" stroke="#FFFFFF" stroke-width="1.5" stroke-miterlimit="10" points="191.769,41.656 191.769,37.656 
			194.198,37.656 		"/>
		
			<line fill="none" stroke="#FFFFFF" stroke-width="1.5" stroke-miterlimit="10" x1="188.642" y1="41.656" x2="188.642" y2="37.656"/>
		
			<line fill="none" stroke="#FFFFFF" stroke-width="1.5" stroke-miterlimit="10" x1="185.179" y1="41.656" x2="185.179" y2="37.656"/>
	</g>
	<g>
		<polyline fill="none" stroke="#FFFFFF" stroke-width="1.5" stroke-miterlimit="10" points="181.686,58.966 181.686,62.966 
			179.257,62.966 		"/>
		<polyline fill="none" stroke="#FFFFFF" stroke-width="1.5" stroke-miterlimit="10" points="191.769,58.966 191.769,62.966 
			194.198,62.966 		"/>
		
			<line fill="none" stroke="#FFFFFF" stroke-width="1.5" stroke-miterlimit="10" x1="188.642" y1="58.966" x2="188.642" y2="62.966"/>
		
			<line fill="none" stroke="#FFFFFF" stroke-width="1.5" stroke-miterlimit="10" x1="185.179" y1="58.966" x2="185.179" y2="62.966"/>
	</g>
	<g>
		<polyline fill="none" stroke="#FFFFFF" stroke-width="1.5" stroke-miterlimit="10" points="195.452,55.701 199.452,55.701 
			199.452,58.129 		"/>
		<polyline fill="none" stroke="#FFFFFF" stroke-width="1.5" stroke-miterlimit="10" points="195.452,45.617 199.452,45.617 
			199.452,43.189 		"/>
		
			<line fill="none" stroke="#FFFFFF" stroke-width="1.5" stroke-miterlimit="10" x1="195.452" y1="48.745" x2="199.452" y2="48.745"/>
		
			<line fill="none" stroke="#FFFFFF" stroke-width="1.5" stroke-miterlimit="10" x1="195.452" y1="52.208" x2="199.452" y2="52.208"/>
	</g>
	<g>
		<polyline fill="none" stroke="#FFFFFF" stroke-width="1.5" stroke-miterlimit="10" points="178.109,55.701 174.109,55.701 
			174.109,58.129 		"/>
		<polyline fill="none" stroke="#FFFFFF" stroke-width="1.5" stroke-miterlimit="10" points="178.109,45.617 174.109,45.617 
			174.109,43.189 		"/>
		
			<line fill="none" stroke="#FFFFFF" stroke-width="1.5" stroke-miterlimit="10" x1="178.109" y1="48.745" x2="174.109" y2="48.745"/>
		
			<line fill="none" stroke="#FFFFFF" stroke-width="1.5" stroke-miterlimit="10" x1="178.109" y1="52.208" x2="174.109" y2="52.208"/>
	</g>
	<polyline fill="none" stroke="#000000" stroke-width="1.5" stroke-miterlimit="10" points="178.856,50.709 178.856,42.452 
		186.787,42.452 	"/>
	<polyline fill="none" stroke="#000000" stroke-width="1.5" stroke-miterlimit="10" points="186.461,58.316 194.718,58.316 
		194.718,50.385 	"/>
</g>
</svg>
