<?xml version="1.0" encoding="utf-8"?>
<!-- Generator: Adobe Illustrator 16.0.0, SVG Export Plug-In . SVG Version: 6.00 Build 0)  -->
<!DOCTYPE svg PUBLIC "-//W3C//DTD SVG 1.1//EN" "http://www.w3.org/Graphics/SVG/1.1/DTD/svg11.dtd">
<svg version="1.1" id="Isolation_Mode" xmlns="http://www.w3.org/2000/svg" xmlns:xlink="http://www.w3.org/1999/xlink" x="0px"
	 y="0px" width="23px" height="23.011px" viewBox="-2.998 0 23 23.011" enable-background="new -2.998 0 23 23.011"
	 xml:space="preserve">
<g>
	<path d="M0,23.011c0-6.293,0-8.821,0-15.119c0.672,0,1.323,0,2.017,0c0-0.185-0.002-0.33,0-0.475
		c0.018-1.59-0.034-0.077,0.071-1.661C2.287,2.76,4.973,0.188,7.98,0.013c3.434-0.199,6.249,1.979,6.886,5.341
		c0.067,0.352,0.095,0.715,0.097,1.074c0.012,1.502,0.005-0.102,0.005,1.444c0.681,0,1.345,0,2.036,0c0,6.313,0,8.853,0,15.139
		C11.336,23.011,5.686,23.011,0,23.011z M1.556,9.457c0,5.267,0,6.772,0,12.005c4.654,0,9.271,0,13.906,0c0-5.256,0-6.762,0-12.005
		C10.816,9.457,6.199,9.457,1.556,9.457z M3.637,7.863c3.238,0,6.497,0,9.777,0c0-1.491,0.004,0.152-0.003-1.311
		c-0.001-0.309-0.024-0.621-0.071-0.926c-0.354-2.311-2.512-4.121-4.878-4.099C6.069,1.549,3.854,3.402,3.665,5.736
		C3.523,7.46,3.637,6.098,3.637,7.863z"/>
	<path d="M9.074,18.764c-0.395,0-0.751,0-1.133,0c0-0.772,0-1.532,0-2.298c-0.524-0.178-0.937-0.469-1.217-0.93
		c-0.441-0.725-0.398-1.652,0.113-2.336c0.495-0.662,1.361-0.971,2.16-0.767c0.842,0.215,1.444,0.89,1.555,1.739
		c0.124,0.949-0.364,1.813-1.266,2.193c-0.165,0.069-0.22,0.15-0.216,0.322C9.079,17.375,9.074,18.053,9.074,18.764z M8.5,15.384
		c0.496,0,0.932-0.438,0.93-0.936c-0.002-0.5-0.437-0.933-0.936-0.928c-0.501,0.003-0.931,0.436-0.931,0.934
		C7.564,14.953,8.002,15.387,8.5,15.384z"/>
</g>
</svg>
