<?xml version="1.0" encoding="utf-8"?>
<!-- Generator: Adobe Illustrator 16.0.0, SVG Export Plug-In . SVG Version: 6.00 Build 0)  -->
<!DOCTYPE svg PUBLIC "-//W3C//DTD SVG 1.1//EN" "http://www.w3.org/Graphics/SVG/1.1/DTD/svg11.dtd">
<svg version="1.1" id="Capa_1" xmlns="http://www.w3.org/2000/svg" xmlns:xlink="http://www.w3.org/1999/xlink" x="0px" y="0px"
	 width="25px" height="29.473px" viewBox="0 0 25 29.473" enable-background="new 0 0 25 29.473" xml:space="preserve">
<title>engine-icon</title>
<g>
	<g>
		<g>
			<path fill="#ED734C" d="M17.285,16.563V5.165c0-2.643-2.144-4.785-4.785-4.785c-2.644,0-4.786,2.143-4.786,4.785v11.398
				c-1.468,1.315-2.393,3.225-2.393,5.352c0,3.964,3.214,7.178,7.179,7.178c3.963,0,7.179-3.214,7.179-7.178
				C19.679,19.788,18.754,17.879,17.285,16.563z M12.5,26.7c-2.644,0-4.786-2.144-4.786-4.785c0-1.382,0.585-2.664,1.596-3.568
				l0.797-0.713V5.165c0-1.321,1.072-2.393,2.393-2.393s2.392,1.071,2.392,2.393v12.469l0.797,0.713
				c1.011,0.904,1.597,2.186,1.597,3.568C17.285,24.557,15.142,26.7,12.5,26.7z"/>
		</g>
	</g>
	<g>
		<g>
			<rect x="11.303" y="9.951" fill="#ED734C" width="2.393" height="14.356"/>
		</g>
	</g>
	<g>
		<g>
			<circle fill="#ED734C" cx="12.5" cy="21.914" r="3.589"/>
		</g>
	</g>
</g>
</svg>
