<?xml version="1.0" encoding="utf-8"?>
<!-- Generator: Adobe Illustrator 16.0.0, SVG Export Plug-In . SVG Version: 6.00 Build 0)  -->
<!DOCTYPE svg PUBLIC "-//W3C//DTD SVG 1.1//EN" "http://www.w3.org/Graphics/SVG/1.1/DTD/svg11.dtd">
<svg version="1.1" id="Capa_1" xmlns="http://www.w3.org/2000/svg" xmlns:xlink="http://www.w3.org/1999/xlink" x="0px" y="0px"
	 width="25px" height="29.473px" viewBox="0 0 25 29.473" enable-background="new 0 0 25 29.473" xml:space="preserve">
<title>engine-icon</title>
<g>
	<path fill="#5496CF" d="M18.2,7.054c-2.563-3.456-5.162-6.252-5.188-6.28C12.88,0.631,12.694,0.551,12.5,0.551
		s-0.38,0.08-0.512,0.223c-0.026,0.028-2.625,2.824-5.188,6.28C3.3,11.775,1.525,15.439,1.525,17.947
		c0,6.052,4.923,10.975,10.975,10.975c6.053,0,10.975-4.923,10.975-10.975C23.475,15.439,21.7,11.775,18.2,7.054z M13.597,25.37
		c-0.575,0.136-1.168,0.205-1.762,0.205c-4.225,0-7.66-3.437-7.66-7.66c0-0.582,0.179-1.637,1.033-3.355
		c0.086-0.173,0.283-0.258,0.468-0.203s0.304,0.234,0.281,0.427c-0.02,0.164-0.029,0.32-0.029,0.462c0,4.526,3.219,8.46,7.655,9.351
		c0.183,0.035,0.315,0.195,0.319,0.382C13.904,25.164,13.777,25.327,13.597,25.37z"/>
</g>
</svg>
