<?xml version="1.0" encoding="utf-8"?>
<!-- Generator: Adobe Illustrator 16.0.0, SVG Export Plug-In . SVG Version: 6.00 Build 0)  -->
<!DOCTYPE svg PUBLIC "-//W3C//DTD SVG 1.1//EN" "http://www.w3.org/Graphics/SVG/1.1/DTD/svg11.dtd">
<svg version="1.1" id="Capa_1" xmlns="http://www.w3.org/2000/svg" xmlns:xlink="http://www.w3.org/1999/xlink" x="0px" y="0px"
	 width="25px" height="29.473px" viewBox="0 0 25 29.473" enable-background="new 0 0 25 29.473" xml:space="preserve">
<path fill="#72809A" d="M23.073,9.824H20.22V7.018h-2.808V4.164h1.403V2.761H16.01v4.257h-1.404V2.761h-1.403v4.257h-1.403V2.761
	h-1.403v4.257H8.992V2.761H6.185v1.403h1.404v2.854H4.781v2.807H1.929V8.421H0.524v2.807h4.257v1.403H0.524v1.404h4.257v1.402H0.524
	v1.403h4.257v1.404H0.524v2.806h1.404v-1.403h2.853v2.808h2.808v2.854H6.185v1.403h2.808v-4.257h1.403v4.257h1.403v-4.257h1.403
	v4.257h1.403v-4.257h1.404v4.257h2.806v-1.403h-1.403v-2.854h2.808v-2.808h2.854v1.403h1.402v-2.806H20.22v-1.404h4.256v-1.403
	H20.22v-1.402h4.256v-1.404H20.22v-1.403h4.256V8.421h-1.402V9.824z M17.412,19.647H7.589V9.824h9.823V19.647z"/>
<path fill="#72809A" d="M16.009,11.228H8.991v7.018h7.018V11.228z M11.798,16.841h-1.403v-1.403h1.403V16.841z M11.798,14.035
	h-1.403v-1.404h1.403V14.035z M14.604,16.841h-1.403v-1.403h1.403V16.841z M14.604,14.035h-1.403v-1.404h1.403V14.035z"/>
</svg>
