<?xml version="1.0" encoding="utf-8"?>
<!-- Generator: Adobe Illustrator 16.0.0, SVG Export Plug-In . SVG Version: 6.00 Build 0)  -->
<!DOCTYPE svg PUBLIC "-//W3C//DTD SVG 1.1//EN" "http://www.w3.org/Graphics/SVG/1.1/DTD/svg11.dtd">
<svg version="1.1" id="Capa_1" xmlns="http://www.w3.org/2000/svg" xmlns:xlink="http://www.w3.org/1999/xlink" x="0px" y="0px"
	 width="23px" height="23px" viewBox="-0.579 -2.833 23 23" enable-background="new -0.579 -2.833 23 23" xml:space="preserve">
<path d="M1.344,5.292l9.385,8.232c0.147,0.088,0.313,0.131,0.481,0.131c0.167,0,0.333-0.043,0.481-0.131l8.808-8.232
	c0.433-0.252,0.565-0.79,0.301-1.199c-0.266-0.41-0.831-0.538-1.263-0.285l-8.327,7.95L2.307,3.81
	C1.875,3.558,1.31,3.685,1.043,4.094C0.777,4.502,0.913,5.042,1.344,5.292z"/>
<g>
	<g>
		<path d="M21.566-0.001H0.272c-0.471,0-0.851,0.361-0.851,0.809v15.717c0,0.445,0.38,0.81,0.852,0.81H21.57
			c0.469,0,0.852-0.362,0.852-0.81V0.808C22.417,0.36,22.037-0.001,21.566-0.001z M20.715,15.715H1.123V1.616h19.592V15.715
			L20.715,15.715z"/>
	</g>
</g>
</svg>
