<?xml version="1.0" encoding="utf-8"?>
<!-- Generator: Adobe Illustrator 16.0.0, SVG Export Plug-In . SVG Version: 6.00 Build 0)  -->
<!DOCTYPE svg PUBLIC "-//W3C//DTD SVG 1.1//EN" "http://www.w3.org/Graphics/SVG/1.1/DTD/svg11.dtd">
<svg version="1.1" id="Capa_1" xmlns="http://www.w3.org/2000/svg" xmlns:xlink="http://www.w3.org/1999/xlink" x="0px" y="0px"
	 width="25px" height="29.473px" viewBox="0 0 25 29.473" enable-background="new 0 0 25 29.473" xml:space="preserve">
<title>engine-icon</title>
<g>
	<g>
		<g>
			<path fill="#D6B33B" d="M24.662,16.921c0,6.729-5.476,12.204-12.206,12.204c-6.729,0-12.205-5.475-12.205-12.204
				c0-3.262,1.271-6.329,3.58-8.633C4.18,7.938,4.64,7.763,5.099,7.763c0.459,0,0.918,0.175,1.269,0.526
				c0.701,0.702,0.7,1.836-0.002,2.537c-1.627,1.627-2.526,3.792-2.526,6.095c0,4.751,3.866,8.614,8.616,8.614
				c4.753,0,8.617-3.863,8.617-8.614c0-2.301-0.896-4.465-2.523-6.093c-0.7-0.7-0.699-1.836,0.001-2.537
				c0.702-0.701,1.837-0.7,2.538,0C23.393,10.597,24.662,13.662,24.662,16.921z"/>
		</g>
	</g>
	<g>
		<path fill="#D6B33B" d="M9.214,19.184l5.491-6.096c0.227-0.25,0.064-0.674-0.255-0.674h-0.437c-0.3,0-0.467-0.381-0.281-0.64
			l2.913-4.056c0.186-0.259,0.018-0.64-0.281-0.64H14.9c-0.295,0-0.463-0.371-0.287-0.631l3.722-5.467
			c0.176-0.261,0.009-0.631-0.286-0.631h-5.884c-0.136,0-0.261,0.085-0.32,0.218L8.969,6.995c-0.119,0.263,0.055,0.571,0.32,0.571
			h1.326c0.265,0,0.438,0.308,0.319,0.57l-1.965,4.396c-0.119,0.262,0.055,0.571,0.32,0.571h1.25c0.264,0,0.437,0.304,0.321,0.566
			l-2.22,5.062C8.463,19.133,8.929,19.498,9.214,19.184z"/>
	</g>
</g>
</svg>
