<?xml version="1.0" encoding="utf-8"?>
<!-- Generator: Adobe Illustrator 16.0.0, SVG Export Plug-In . SVG Version: 6.00 Build 0)  -->
<!DOCTYPE svg PUBLIC "-//W3C//DTD SVG 1.1//EN" "http://www.w3.org/Graphics/SVG/1.1/DTD/svg11.dtd">
<svg version="1.1" id="Isolation_Mode" xmlns="http://www.w3.org/2000/svg" xmlns:xlink="http://www.w3.org/1999/xlink" x="0px"
	 y="0px" width="24px" height="24px" viewBox="-5.04 -2 24 24" enable-background="new -5.04 -2 24 24" xml:space="preserve">
<g>
	<path fill="none" stroke="#000000" stroke-width="1.5" stroke-miterlimit="10" d="M0.081,18.906c0-5.092,0-6.329,0-11.425
		c0.543,0,1.071,0,1.631,0c0-0.151,0-0.269,0-0.385C1.727,5.81,1.687,7.035,1.771,5.754c0.162-2.426,2.333-4.507,4.767-4.65
		c2.78-0.162,5.056,1.603,5.573,4.322c0.056,0.284,0.075,0.579,0.077,0.87c0.009,1.216,0.005-0.081,0.005,1.168
		c0.552,0,1.086,0,1.646,0c0,5.109,0,6.356,0,11.442C9.255,18.906,4.681,18.906,0.081,18.906z"/>
	<path fill="none" stroke="#000000" stroke-width="1.5" stroke-miterlimit="10" d="M1.246,7.479c3.659,0,7.207,0,10.988,0"/>
	<path fill="none" stroke="#000000" stroke-width="1.5" stroke-miterlimit="10" d="M7.1,13.105c0.601,0,1.124-0.53,1.122-1.128
		c-0.003-0.607-0.525-1.13-1.128-1.123c-0.605,0.002-1.125,0.526-1.125,1.128C5.97,12.584,6.499,13.107,7.1,13.105z"/>
	<path fill="none" stroke="#000000" stroke-width="1.5" stroke-miterlimit="10" d="M7.114,16.093c0-1.09,0-2.163,0-3.244"/>
	<path fill="none" stroke="#41C363" stroke-width="1.5" stroke-miterlimit="10" d="M0.081,11.707c0-5.092,0,0.868,0-4.227
		c0.543,0,1.071,0,1.631,0c0-0.15,0-0.269,0-0.384c0.015-1.288-0.025-0.062,0.059-1.344c0.162-2.424,2.333-4.505,4.767-4.648"/>
</g>
</svg>
