<?xml version="1.0" encoding="UTF-8"?>
<!-- Generator: Adobe Illustrator 16.0.3, SVG Export Plug-In . SVG Version: 6.00 Build 0)  -->
<!DOCTYPE svg PUBLIC "-//W3C//DTD SVG 1.1//EN" "http://www.w3.org/Graphics/SVG/1.1/DTD/svg11.dtd">
<svg version="1.1" id="Isolation_Mode" xmlns="http://www.w3.org/2000/svg" xmlns:xlink="http://www.w3.org/1999/xlink" x="0px" y="0px" width="24px" height="24px" viewBox="0 0 24 24" enable-background="new 0 0 24 24" xml:space="preserve">
<g>
	<path fill="none" stroke="#000000" stroke-width="1.5" stroke-miterlimit="10" d="M11.198,20.693   c0.053-0.244,0.105-0.479,0.151-0.717c0.09-0.448,0.177-0.896,0.264-1.348c0.034-0.173,0.067-0.346,0.103-0.521   c0.005-0.024,0.023-0.051,0.042-0.072c0.745-0.748,1.493-1.491,2.238-2.237c0.236-0.236,0.468-0.474,0.704-0.707   c0.671-0.671,1.336-1.346,2.017-2.008c0.425-0.412,0.941-0.531,1.503-0.348c0.556,0.182,0.895,0.582,0.994,1.161   c0.082,0.5-0.063,0.941-0.424,1.301c-1.646,1.649-3.291,3.293-4.938,4.939c-0.016,0.02-0.045,0.035-0.073,0.042   c-0.768,0.152-1.537,0.306-2.305,0.457C11.383,20.654,11.295,20.672,11.198,20.693z"/>
</g>
<g>
	<path fill="none" stroke="#42C35F" stroke-width="1.5" stroke-miterlimit="10" d="M13.777,20.178   c-0.768,0.152-1.537,0.305-2.306,0.457c-0.088,0.02-0.177,0.037-0.273,0.059c0.053-0.244,0.105-0.479,0.151-0.717   c0.09-0.448,0.177-0.896,0.264-1.348c0.034-0.173,0.067-0.346,0.103-0.521c0.005-0.024,0.023-0.051,0.042-0.072   c0.745-0.748,1.493-1.491,2.238-2.237l2.122-2.126"/>
</g>
<g>
	<path fill="none" stroke="#42C35F" stroke-width="1.5" stroke-miterlimit="10" d="M12.961,13.561   c-0.697-0.628-1.621-1.01-2.632-1.01"/>
	<circle fill="none" stroke="#000000" stroke-width="1.5" stroke-miterlimit="10" cx="10.329" cy="6.757" r="3.644"/>
	<path fill="none" stroke="#41C363" stroke-width="1.5" stroke-miterlimit="10" d="M10.329,12.551c-2.169,0-3.932,1.759-3.932,3.931   "/>
	<path fill="none" stroke="#000000" stroke-width="1.5" stroke-miterlimit="10" d="M6.397,16.481v4.45h2.396"/>
</g>
</svg>