<?xml version="1.0" encoding="utf-8"?>
<!-- Generator: Adobe Illustrator 16.0.3, SVG Export Plug-In . SVG Version: 6.00 Build 0)  -->
<!DOCTYPE svg PUBLIC "-//W3C//DTD SVG 1.1//EN" "http://www.w3.org/Graphics/SVG/1.1/DTD/svg11.dtd">
<svg version="1.1" id="Capa_1" xmlns="http://www.w3.org/2000/svg" xmlns:xlink="http://www.w3.org/1999/xlink" x="0px" y="0px"
	 width="20px" height="20px" viewBox="0 0 20 20" enable-background="new 0 0 20 20" xml:space="preserve">
<g>
	<path fill="none" stroke="#000000" stroke-width="1.5" stroke-miterlimit="10" d="M4.122,15.293l2.733,2.715
		c0.095,0.098,0.228,0.152,0.363,0.152c0.133,0,0.266-0.053,0.361-0.152L17.837,7.755C18.587,7.006,19,6.013,19,4.957
		c0-1.059-0.414-2.051-1.162-2.796 M18.018,7.521l-5.516-5.487"/>
</g>
<path fill="none" stroke="#41C363" stroke-width="1.5" stroke-miterlimit="10" d="M17.839,2.161c-1.542-1.547-4.052-1.547-5.594,0
	L1.988,12.414c-0.081,0.08-0.131,0.184-0.145,0.293l-0.762,5.629c-0.023,0.162,0.034,0.322,0.146,0.434
	c0.095,0.097,0.229,0.152,0.362,0.152c0.023,0,0.047,0,0.07-0.004l3.113,0.012"/>
</svg>
