<?xml version="1.0" encoding="utf-8"?>
<!-- Generator: Adobe Illustrator 16.0.0, SVG Export Plug-In . SVG Version: 6.00 Build 0)  -->
<!DOCTYPE svg PUBLIC "-//W3C//DTD SVG 1.1//EN" "http://www.w3.org/Graphics/SVG/1.1/DTD/svg11.dtd">
<svg version="1.1" id="Layer_1" xmlns="http://www.w3.org/2000/svg" xmlns:xlink="http://www.w3.org/1999/xlink" x="0px" y="0px"
	 width="22px" height="22px" viewBox="0 0 22 22" enable-background="new 0 0 22 22" xml:space="preserve">
<g>
	
		<rect x="4.668" y="4.722" fill="none" stroke="#000000" stroke-width="1.2" stroke-miterlimit="10" width="12.674" height="12.675"/>
	<rect x="8.252" y="8.306" fill="none" stroke="#000000" stroke-width="1.5" stroke-miterlimit="10" width="5.507" height="5.506"/>
	<g>
		<polyline fill="none" stroke="#000000" stroke-miterlimit="10" points="6.964,4.175 6.964,0.979 5.024,0.979 		"/>
		<polyline fill="none" stroke="#000000" stroke-miterlimit="10" points="15.021,4.175 15.021,0.979 16.962,0.979 		"/>
		<line fill="none" stroke="#000000" stroke-miterlimit="10" x1="12.522" y1="4.175" x2="12.522" y2="0.979"/>
		<line fill="none" stroke="#000000" stroke-miterlimit="10" x1="9.756" y1="4.175" x2="9.756" y2="0.979"/>
	</g>
	<g>
		<polyline fill="none" stroke="#000000" stroke-miterlimit="10" points="6.929,17.914 6.929,21.11 4.989,21.11 		"/>
		<polyline fill="none" stroke="#000000" stroke-miterlimit="10" points="14.986,17.914 14.986,21.11 16.927,21.11 		"/>
		<line fill="none" stroke="#000000" stroke-miterlimit="10" x1="12.487" y1="17.914" x2="12.487" y2="21.11"/>
		<line fill="none" stroke="#000000" stroke-miterlimit="10" x1="9.721" y1="17.914" x2="9.721" y2="21.11"/>
	</g>
	<g>
		<polyline fill="none" stroke="#000000" stroke-miterlimit="10" points="17.929,15.308 21.124,15.308 21.124,17.246 		"/>
		<polyline fill="none" stroke="#000000" stroke-miterlimit="10" points="17.929,7.25 21.124,7.25 21.124,5.31 		"/>
		<line fill="none" stroke="#000000" stroke-miterlimit="10" x1="17.929" y1="9.75" x2="21.124" y2="9.75"/>
		<line fill="none" stroke="#000000" stroke-miterlimit="10" x1="17.929" y1="12.515" x2="21.124" y2="12.515"/>
	</g>
	<g>
		<polyline fill="none" stroke="#000000" stroke-miterlimit="10" points="4.072,15.308 0.876,15.308 0.876,17.246 		"/>
		<polyline fill="none" stroke="#000000" stroke-miterlimit="10" points="4.072,7.25 0.876,7.25 0.876,5.31 		"/>
		<line fill="none" stroke="#000000" stroke-miterlimit="10" x1="4.072" y1="9.75" x2="0.876" y2="9.75"/>
		<line fill="none" stroke="#000000" stroke-miterlimit="10" x1="4.072" y1="12.515" x2="0.876" y2="12.515"/>
	</g>
	<polyline fill="none" stroke="#41C363" stroke-width="1.2" stroke-miterlimit="10" points="4.668,11.318 4.668,4.722 11.005,4.722 
			"/>
	<polyline fill="none" stroke="#41C363" stroke-width="1.2" stroke-miterlimit="10" points="10.744,17.396 17.342,17.396 
		17.342,11.059 	"/>
</g>
</svg>
