<?xml version="1.0" encoding="utf-8"?>
<!-- Generator: Adobe Illustrator 16.0.0, SVG Export Plug-In . SVG Version: 6.00 Build 0)  -->
<!DOCTYPE svg PUBLIC "-//W3C//DTD SVG 1.1//EN" "http://www.w3.org/Graphics/SVG/1.1/DTD/svg11.dtd">
<svg version="1.1" id="Capa_1" xmlns="http://www.w3.org/2000/svg" xmlns:xlink="http://www.w3.org/1999/xlink" x="0px" y="0px"
	 width="30px" height="30px" viewBox="-1 -0.416 30 30" enable-background="new -1 -0.416 30 30" xml:space="preserve">
<title>engine-icon</title>
<g id="XMLID_170_">
	<g>
		<path id="XMLID_65_" fill="#8A19A5" d="M12.981,18.31c-0.403-3.168-2.918-5.686-6.086-6.087V0.505c0-0.492-0.399-0.892-0.89-0.892
			c-0.493,0-0.892,0.4-0.892,0.892v11.718c-3.167,0.402-5.684,2.919-6.086,6.087H12.981z"/>
		<path id="XMLID_64_" fill="#8A19A5" d="M-1.029,20.091v0.37c0,1.213,0.986,2.199,2.198,2.199h9.671
			c1.211,0,2.198-0.986,2.198-2.199v-0.37H-1.029z"/>
		<path id="XMLID_63_" fill="#8A19A5" d="M29.029,19.977V5.773c0-1.751-1.424-3.173-3.173-3.173h-7.063
			c-1.749,0-3.173,1.422-3.173,3.173v14.204H29.029L29.029,19.977z M24.746,9.472c-0.384,0.307-0.945,0.245-1.251-0.139l-1.17-1.463
			l-1.171,1.463c-0.175,0.219-0.434,0.333-0.695,0.333c-0.196,0-0.392-0.063-0.556-0.194c-0.384-0.309-0.447-0.868-0.139-1.253
			l1.865-2.332c0.168-0.212,0.425-0.335,0.695-0.335s0.526,0.124,0.694,0.335l1.865,2.332C25.193,8.604,25.131,9.164,24.746,9.472z
			 M24.885,16.007l-1.865,2.331c-0.168,0.212-0.424,0.335-0.694,0.335s-0.527-0.123-0.695-0.335l-1.865-2.331
			c-0.309-0.385-0.245-0.945,0.139-1.254c0.384-0.306,0.945-0.245,1.251,0.141l1.171,1.461l1.17-1.461
			c0.306-0.385,0.867-0.446,1.251-0.141C25.131,15.062,25.193,15.622,24.885,16.007z M24.189,12.917H20.46
			c-0.493,0-0.892-0.398-0.892-0.891c0-0.491,0.398-0.891,0.892-0.891h3.729c0.492,0,0.892,0.399,0.892,0.891
			C25.081,12.518,24.682,12.917,24.189,12.917z"/>
		<path id="XMLID_62_" fill="#8A19A5" d="M15.62,21.759v1.635c0,1.749,1.424,3.172,3.173,3.172h7.063
			c1.749,0,3.173-1.423,3.173-3.172v-1.635H15.62z M21.434,23.771c0-0.492,0.398-0.891,0.892-0.891c0.491,0,0.891,0.398,0.891,0.891
			v0.072c0,0.492-0.399,0.891-0.891,0.891c-0.493,0-0.892-0.398-0.892-0.891V23.771z"/>
		<path id="XMLID_61_" fill="#8A19A5" d="M3.617,24.444c0.427,0.761,1.243,1.276,2.175,1.276h0.424c0.933,0,1.749-0.516,2.175-1.276
			H3.617z"/>
		<path id="XMLID_60_" fill="#8A19A5" d="M6.005,26.973c-0.493,0-0.892,0.399-0.892,0.891v0.8c0,0.492,0.399,0.892,0.892,0.892
			c0.491,0,0.89-0.399,0.89-0.892v-0.8C6.895,27.372,6.496,26.973,6.005,26.973z"/>
		<path id="XMLID_59_" fill="#8A19A5" d="M9.387,26.168c-0.301-0.39-0.86-0.461-1.25-0.161c-0.39,0.302-0.461,0.861-0.161,1.25
			l0.488,0.634c0.175,0.228,0.439,0.346,0.707,0.346c0.19,0,0.382-0.061,0.543-0.185c0.39-0.302,0.462-0.86,0.162-1.25L9.387,26.168
			z"/>
		<path id="XMLID_58_" fill="#8A19A5" d="M2.68,26.277l-0.539,0.592c-0.331,0.364-0.305,0.927,0.059,1.258
			c0.171,0.155,0.385,0.232,0.599,0.232c0.243,0,0.483-0.098,0.66-0.291l0.539-0.592c0.331-0.363,0.305-0.927-0.059-1.258
			C3.575,25.886,3.011,25.912,2.68,26.277z"/>
	</g>
</g>
</svg>
