<?xml version="1.0" encoding="utf-8"?>
<!-- Generator: Adobe Illustrator 16.0.0, SVG Export Plug-In . SVG Version: 6.00 Build 0)  -->
<!DOCTYPE svg PUBLIC "-//W3C//DTD SVG 1.1//EN" "http://www.w3.org/Graphics/SVG/1.1/DTD/svg11.dtd">
<svg version="1.1" id="Layer_1" xmlns="http://www.w3.org/2000/svg" xmlns:xlink="http://www.w3.org/1999/xlink" x="0px" y="0px"
	 width="340.036px" height="68px" viewBox="0 0 340.036 68" enable-background="new 0 0 340.036 68" xml:space="preserve">
<rect fill="#8B7100" fill-opacity="0" width="34" height="34"/>
<rect x="34" fill="#8B7100" fill-opacity="0" width="34" height="34"/>
<rect x="68" fill="#8B7100" fill-opacity="0" width="34" height="34"/>
<rect x="102" fill="#8B7100" fill-opacity="0" width="34" height="34"/>
<rect x="136" fill="#8B7100" fill-opacity="0" width="34" height="34"/>
<rect x="170" fill="#8B7100" fill-opacity="0" width="34" height="34"/>
<rect x="204" fill="#8B7100" fill-opacity="0" width="34" height="34"/>
<rect x="238" fill="#8B7100" fill-opacity="0" width="34" height="34"/>
<g>
	<g>
		<g>
			<path fill="#97999D" d="M26.098,10.566c-0.345-0.345-0.887-0.396-1.291-0.12c-1.52,1.035-9.142,6.245-9.96,7.064
				c-1.188,1.188-1.188,3.121,0,4.31c0.595,0.594,1.374,0.892,2.153,0.892c0.78,0,1.56-0.298,2.154-0.892
				c0.818-0.82,6.029-8.443,7.064-9.963C26.495,11.454,26.443,10.912,26.098,10.566z M17.718,20.383
				c-0.395,0.396-1.04,0.396-1.435,0c-0.396-0.396-0.396-1.04,0-1.437c0.318-0.314,2.481-1.858,5.144-3.71
				C19.576,17.901,18.032,20.065,17.718,20.383z"/>
			<path fill="#97999D" d="M8.682,24.39L7.43,25.002c-0.917-1.637-1.398-3.466-1.398-5.337c0-1.371,0.252-2.684,0.713-3.895
				l1.437,0.689c0.142,0.067,0.291,0.101,0.437,0.101c0.379,0,0.743-0.213,0.917-0.577c0.242-0.506,0.029-1.112-0.476-1.354
				l-1.417-0.682c1.762-2.875,4.813-4.88,8.341-5.205v1.527c0,0.561,0.456,1.016,1.015,1.016c0.563,0,1.015-0.455,1.015-1.016V8.742
				c1.212,0.108,2.382,0.418,3.492,0.919c0.511,0.231,1.113,0.003,1.344-0.508c0.23-0.512,0.003-1.113-0.509-1.344
				c-1.684-0.761-3.482-1.146-5.344-1.146c-3.473,0-6.737,1.353-9.194,3.809C5.354,12.928,4,16.193,4,19.665
				c0,2.566,0.762,5.063,2.203,7.218c0.192,0.291,0.515,0.451,0.844,0.451c0.151,0,0.301-0.034,0.444-0.104l2.082-1.014
				c0.503-0.246,0.713-0.854,0.467-1.359C9.796,24.353,9.188,24.144,8.682,24.39z"/>
			<path fill="#97999D" d="M28.855,14.321c-0.231-0.512-0.832-0.739-1.345-0.508c-0.511,0.231-0.739,0.833-0.508,1.343
				c0.642,1.42,0.967,2.938,0.967,4.509c0,1.874-0.483,3.705-1.403,5.346l-1.309-0.623c-0.507-0.241-1.113-0.025-1.354,0.48
				c-0.242,0.506-0.025,1.112,0.48,1.354l2.134,1.015c0.14,0.067,0.289,0.099,0.435,0.099c0.329,0,0.651-0.159,0.844-0.451
				C29.238,24.729,30,22.234,30,19.668C30.001,17.803,29.616,16.006,28.855,14.321z"/>
		</g>
	</g>
</g>
<g>
	<g>
		<path fill="#97999D" d="M156.514,15.42c0.604,0.276,1.203,0.51,1.764,0.817c0.568,0.309,1.105,0.674,1.643,1.044
			c0.338,0.232,0.468,0.582,0.355,0.989c-0.104,0.389-0.385,0.611-0.785,0.664c-0.262,0.035-0.48-0.053-0.686-0.201
			c-1.104-0.817-2.309-1.43-3.645-1.76c-1.054-0.257-2.12-0.359-3.204-0.278c-2.127,0.161-4.025,0.915-5.664,2.273
			c-1.846,1.532-3.014,3.487-3.434,5.862c-0.104,0.575-0.142,1.167-0.174,1.754c-0.023,0.529-0.449,0.911-0.935,0.903
			c-0.53-0.008-0.924-0.437-0.912-1.002c0.019-1.058,0.168-2.099,0.47-3.115c0.598-2.014,1.655-3.744,3.162-5.208
			c1.225-1.188,2.653-2.043,4.245-2.638c0.046-0.017,0.089-0.034,0.13-0.052c0.012-0.006,0.021-0.02,0.053-0.044
			c-1.64-1.318-2.582-2.997-2.576-5.131c0.008-1.74,0.65-3.242,1.893-4.453c2.492-2.431,6.26-2.389,8.684-0.277
			c1.521,1.325,2.271,3.02,2.193,5.029C159.012,12.599,158.068,14.186,156.514,15.42z M148.165,10.318
			c-0.019,2.46,2.006,4.492,4.479,4.507c2.543,0.015,4.584-1.98,4.604-4.484c0.02-2.449-2.029-4.495-4.517-4.511
			C150.217,5.813,148.18,7.816,148.165,10.318z"/>
	</g>
	<g>
		<rect x="147.749" y="24.397" fill="#97999D" width="11.425" height="1.686"/>
		<g>
			<path fill="#97999D" d="M161.313,28.603c-2.123,0-3.852-1.727-3.852-3.85s1.729-3.848,3.852-3.848s3.85,1.727,3.85,3.848
				C165.161,26.876,163.436,28.603,161.313,28.603z M161.313,23.01c-0.963,0-1.742,0.782-1.742,1.741
				c0,0.963,0.781,1.744,1.742,1.744s1.74-0.782,1.74-1.744C163.053,23.792,162.271,23.01,161.313,23.01z"/>
		</g>
		<g>
			<rect x="148.6" y="25.24" fill="#97999D" width="2.107" height="2.855"/>
		</g>
		<g>
			<rect x="153.359" y="25.24" fill="#97999D" width="2.104" height="4.76"/>
		</g>
	</g>
</g>
<g>
	<path fill="#97999D" d="M50.961,6.672c-3.067,0-5.562,2.496-5.562,5.564c0,1.239,0.411,2.382,1.104,3.309
		c-1.358,0.948-2.175,2.363-2.175,3.878v7.906h1.546v-7.906c0-1.079,0.654-2.103,1.73-2.763c0.935,0.711,2.095,1.137,3.358,1.137
		c1.277,0,2.45-0.437,3.391-1.164c1.105,0.66,1.773,1.693,1.773,2.79v7.904h1.546v-7.904c0-1.54-0.836-2.967-2.226-3.914
		c0.672-0.917,1.073-2.049,1.073-3.273C56.524,9.167,54.028,6.672,50.961,6.672z M50.961,16.251c-2.214,0-4.014-1.802-4.014-4.015
		c0-2.215,1.8-4.017,4.014-4.017c2.213,0,4.016,1.802,4.016,4.017C54.977,14.449,53.174,16.251,50.961,16.251z"/>
	<path fill="#97999D" d="M38.547,18.17c0-0.475,0.269-0.927,0.718-1.262c0.573,0.381,1.26,0.605,1.999,0.605
		c2.003,0,3.631-1.626,3.631-3.626c0-2.002-1.627-3.629-3.631-3.629c-1.999,0-3.624,1.627-3.624,3.629
		c0,0.695,0.208,1.34,0.547,1.891C37.439,16.396,37,17.254,37,18.167v4.59h1.548L38.547,18.17L38.547,18.17z M41.263,11.812
		c1.147,0,2.081,0.932,2.081,2.081c0,1.146-0.934,2.077-2.081,2.077s-2.08-0.933-2.08-2.077
		C39.186,12.743,40.117,11.812,41.263,11.812z"/>
	<path fill="#97999D" d="M63.782,15.758c0.331-0.547,0.532-1.185,0.532-1.866c0-2.004-1.626-3.631-3.628-3.631
		c-2.001,0-3.627,1.627-3.627,3.631c0,1.999,1.625,3.625,3.627,3.625c0.751,0,1.45-0.229,2.025-0.619
		c0.459,0.331,0.737,0.789,0.737,1.273v4.59H65V18.17C65,17.242,64.55,16.375,63.782,15.758z M60.689,15.97
		c-1.147,0-2.081-0.933-2.081-2.078c0-1.148,0.934-2.081,2.081-2.081s2.08,0.933,2.08,2.081
		C62.767,15.036,61.835,15.97,60.689,15.97z"/>
</g>
<g>
	<g>
		<g>
			<path fill="#97999D" d="M224.844,21.973v-0.469c0.131-0.104,0.26-0.222,0.383-0.342c0.979-1.076,1.59-2.434,1.756-3.874
				c0.879-0.133,1.668-0.604,2.207-1.313c0.734-1.041,0.807-2.539,0.188-4.422c-0.037-0.105-0.104-0.2-0.203-0.264l-0.278-0.19
				c0.041-1.695-0.545-3.348-1.646-4.639c-1.369-1.539-3.471-2.318-6.25-2.329c-2.774,0-4.875,0.789-6.246,2.308
				c-1.102,1.291-1.686,2.943-1.646,4.641l-0.279,0.188c-0.094,0.063-0.166,0.155-0.201,0.264c-0.615,1.891-0.549,3.38,0.188,4.424
				c0.535,0.71,1.328,1.188,2.207,1.326c0.168,1.444,0.783,2.802,1.764,3.882c0.119,0.12,0.246,0.235,0.381,0.342v0.469
				c-1.945,0.377-9.719,2.201-9.588,7.386c0,0.277,0.229,0.506,0.508,0.506h25.836c0.281,0,0.508-0.23,0.508-0.506
				C234.563,24.174,226.79,22.35,224.844,21.973z M214.713,16.149c-0.433-0.145-0.805-0.42-1.072-0.787l0.021,0.003
				c-0.508-0.739-0.557-1.862-0.102-3.348l0.373-0.249c0.156-0.103,0.24-0.285,0.223-0.472c-0.086-1.519,0.408-3.016,1.389-4.184
				c1.146-1.302,2.99-1.952,5.463-1.964c2.474-0.011,4.313,0.661,5.48,1.964c0.977,1.169,1.469,2.664,1.385,4.184
				c-0.02,0.187,0.066,0.369,0.226,0.472l0.368,0.249c0.453,1.478,0.427,2.609-0.1,3.348c-0.271,0.37-0.65,0.646-1.082,0.789
				c0.613-0.695,0.918-1.616,0.828-2.539c-0.092-0.561-0.387-1.065-0.814-1.427c-0.219-5.082-3.782-5.651-5.319-5.651
				c-0.321-0.002-0.647,0.021-0.97,0.071c-0.317-0.051-0.647-0.073-0.969-0.071c-1.526,0-5.084,0.559-5.319,5.651
				c-0.437,0.358-0.729,0.861-0.828,1.418C213.801,14.532,214.1,15.451,214.713,16.149z M226.275,11.982
				c-2.131,0.123-4.25-0.409-6.073-1.526c-0.205-0.146-0.488-0.117-0.66,0.065c-1.019,1.092-2.873,1.348-3.767,1.402
				c0.272-3.594,2.445-4.376,4.279-4.376c0.293-0.002,0.584,0.021,0.87,0.07c0.066,0.016,0.136,0.016,0.203,0
				c0.287-0.049,0.578-0.072,0.869-0.07c1.814,0,4,0.802,4.254,4.425L226.275,11.982z M215.954,16.245l0.02,0.006
				c0.002-0.127-0.047-0.247-0.127-0.342c-0.695-0.799-1.021-1.525-0.932-2.124c0.041-0.334,0.205-0.64,0.463-0.859
				c0.67,0,3.053-0.127,4.574-1.442c1.719,0.988,3.664,1.514,5.645,1.523c0.342,0,0.688,0,1.049-0.056
				c0.246,0.213,0.41,0.51,0.455,0.835c0.09,0.589-0.232,1.326-0.932,2.124c-0.082,0.093-0.129,0.215-0.127,0.342
				c0,0,0,0.101,0,0.264l-2.959,1.586c-0.586-0.556-1.515-0.529-2.066,0.058c-0.561,0.586-0.531,1.515,0.055,2.068
				c0.584,0.556,1.516,0.532,2.072-0.056c0.256-0.271,0.398-0.631,0.398-1.007c0.002-0.048,0.002-0.092,0-0.139l2.332-1.249
				c-0.199,1.004-0.67,1.931-1.363,2.684c-0.902,0.868-2.117,1.325-3.371,1.259h-0.252c-1.246,0.062-2.467-0.393-3.365-1.254
				C215.918,18.862,215.954,16.271,215.954,16.245z M222.525,19.163c0,0.249-0.2,0.452-0.452,0.452
				c-0.248,0-0.451-0.201-0.451-0.452c0-0.25,0.203-0.452,0.451-0.452C222.325,18.71,222.525,18.914,222.525,19.163z
				 M220.493,28.821h-11.886c0.399-3.817,6.606-5.414,8.55-5.825v0.911c0,1.152,1.401,2.032,3.336,2.182V28.821L220.493,28.821z
				 M218.174,23.903v-0.015V22.15c0.846,0.393,1.77,0.586,2.699,0.569h0.252c0.934,0.018,1.854-0.177,2.699-0.569v1.752
				c0,0.484-1.104,1.178-2.824,1.178C219.277,25.086,218.174,24.388,218.174,23.903z M221.508,28.835v-2.754
				c1.934-0.132,3.336-1.018,3.336-2.183V23.01c1.959,0.404,8.133,2.001,8.549,5.824L221.508,28.835L221.508,28.835z"/>
			<path fill="#97999D" d="M233.917,30h-25.836c-0.354,0-0.642-0.287-0.642-0.64c-0.127-5.129,7.16-7.014,9.586-7.496v-0.292
				c-0.11-0.092-0.224-0.195-0.342-0.315c-0.983-1.081-1.603-2.412-1.789-3.857c-0.879-0.163-1.653-0.645-2.188-1.36
				c-0.771-1.087-0.842-2.617-0.211-4.545c0.045-0.136,0.135-0.254,0.258-0.335l0.223-0.146c-0.021-1.711,0.57-3.361,1.68-4.659
				C216.061,4.79,218.198,4,221,4c2.824,0.011,4.961,0.81,6.354,2.373c1.105,1.3,1.703,2.952,1.682,4.658l0.219,0.147
				c0.117,0.074,0.209,0.194,0.256,0.333c0.634,1.928,0.563,3.455-0.202,4.542c-0.548,0.718-1.32,1.191-2.192,1.353
				c-0.189,1.445-0.806,2.772-1.781,3.846c-0.135,0.132-0.242,0.233-0.347,0.318v0.293c2.427,0.483,9.72,2.368,9.58,7.5
				C234.559,29.713,234.271,30,233.917,30z M220.999,4.27c-2.726,0-4.791,0.762-6.146,2.263c-1.078,1.263-1.651,2.878-1.61,4.548
				l0.002,0.073l-0.345,0.229c-0.069,0.047-0.125,0.116-0.149,0.194c-0.601,1.845-0.543,3.293,0.172,4.304
				c0.516,0.683,1.27,1.138,2.117,1.271l0.102,0.016l0.014,0.102c0.164,1.427,0.766,2.744,1.729,3.806
				c0.125,0.127,0.244,0.235,0.365,0.326l0.053,0.042v0.644l-0.108,0.022c-2.258,0.435-9.604,2.248-9.479,7.248
				c0,0.207,0.168,0.376,0.375,0.376h25.836c0.205,0,0.373-0.168,0.373-0.372c0.135-5.004-7.215-6.817-9.473-7.254l-0.109-0.021
				v-0.646l0.055-0.039c0.109-0.088,0.229-0.194,0.373-0.335c0.957-1.051,1.551-2.365,1.717-3.791l0.016-0.102l0.104-0.018
				c0.843-0.128,1.597-0.575,2.115-1.259c0.711-1.011,0.771-2.458,0.166-4.298c-0.027-0.083-0.08-0.149-0.147-0.194l-0.345-0.233
				l0.002-0.072c0.043-1.666-0.528-3.282-1.61-4.551C225.811,5.047,223.741,4.277,220.999,4.27z M233.542,28.972h-12.168v-3.016
				l0.127-0.008c1.891-0.128,3.207-0.972,3.207-2.047v-1.056l0.162,0.034c1.926,0.397,8.229,2.004,8.655,5.941L233.542,28.972z
				 M221.645,28.701h11.598c-0.539-3.553-6.244-5.09-8.264-5.524V23.9c0,1.201-1.359,2.139-3.334,2.306V28.701L221.645,28.701z
				 M220.627,28.955h-12.168l0.016-0.148c0.412-3.896,6.729-5.533,8.652-5.941l0.164-0.034v1.077c0,1.06,1.319,1.9,3.211,2.044
				l0.125,0.013V28.955L220.627,28.955z M208.762,28.687h11.596v-2.475c-1.969-0.185-3.338-1.122-3.338-2.304v-0.744
				C215,23.609,209.282,25.177,208.762,28.687z M221,25.217c-1.701,0-2.961-0.692-2.961-1.313V21.94l0.19,0.09
				c0.781,0.364,1.656,0.558,2.524,0.558l0.369-0.002l0.127,0.002c0.873,0,1.72-0.188,2.515-0.558l0.192-0.09v1.964
				C223.959,24.524,222.695,25.217,221,25.217z M218.311,22.359v1.53c0,0.383,1.018,1.059,2.676,1.059
				c1.686,0,2.705-0.675,2.705-1.044V22.36c-0.773,0.329-1.594,0.495-2.438,0.495l-0.379-0.001l-0.117,0.001
				C219.918,22.854,219.077,22.685,218.311,22.359z M221.374,21.86c-0.08,0-0.16-0.002-0.24-0.007h-0.24
				c-1.309,0.059-2.533-0.402-3.461-1.291c-1.609-1.607-1.609-4.206-1.609-4.315l0.002-0.117c-0.018-0.048-0.041-0.09-0.074-0.127
				c-0.733-0.847-1.057-1.596-0.961-2.234c0.047-0.367,0.229-0.704,0.51-0.941l0.037-0.032h0.052c0.478,0,2.93-0.067,4.487-1.41
				l0.07-0.063l0.084,0.048c1.697,0.976,3.627,1.497,5.576,1.506c0.332,0,0.674,0,1.025-0.054l0.063-0.011l0.049,0.04
				c0.271,0.235,0.451,0.561,0.502,0.919c0.092,0.632-0.236,1.404-0.959,2.232c-0.063,0.071-0.098,0.159-0.096,0.249v0.345
				l-3.113,1.67l-0.072-0.065c-0.246-0.235-0.569-0.365-0.914-0.365c-0.37,0-0.711,0.148-0.963,0.415
				c-0.246,0.257-0.375,0.595-0.367,0.95c0.013,0.354,0.158,0.685,0.414,0.927c0.248,0.235,0.572,0.364,0.916,0.364
				c0.371,0,0.711-0.147,0.964-0.415c0.235-0.247,0.364-0.572,0.364-0.915c0.002-0.049,0.002-0.09,0.002-0.133l-0.004-0.085
				l2.656-1.424l-0.057,0.278c-0.203,1.026-0.688,1.977-1.395,2.75C223.73,21.396,222.584,21.86,221.374,21.86z M220.883,21.585
				h0.26c0.084,0.003,0.158,0.006,0.234,0.006c1.139,0,2.221-0.436,3.045-1.228c0.604-0.658,1.035-1.461,1.258-2.33l-2.004,1.071
				c0,0.021,0,0.043,0,0.064c0,0.406-0.154,0.795-0.438,1.094c-0.301,0.316-0.725,0.5-1.161,0.5c-0.41,0-0.804-0.157-1.101-0.439
				c-0.31-0.292-0.486-0.688-0.5-1.115c-0.011-0.427,0.146-0.833,0.438-1.143c0.303-0.323,0.715-0.499,1.16-0.499
				c0.381,0,0.738,0.132,1.025,0.372l2.803-1.502V16.25c-0.002-0.157,0.057-0.309,0.164-0.429c0.668-0.767,0.979-1.464,0.896-2.018
				c-0.041-0.271-0.168-0.522-0.367-0.711c-0.348,0.049-0.682,0.049-1.004,0.049c-1.967-0.01-3.91-0.525-5.627-1.496
				c-1.582,1.304-3.953,1.408-4.539,1.415c-0.211,0.195-0.344,0.454-0.381,0.741c-0.082,0.553,0.229,1.25,0.897,2.021
				c0.104,0.118,0.162,0.271,0.16,0.43l-0.002,0.174l-0.015-0.004c0.023,0.61,0.211,2.633,1.523,3.947
				C218.493,21.204,219.657,21.648,220.883,21.585L220.883,21.585L220.883,21.585z M222.073,19.749
				c-0.322,0-0.587-0.263-0.587-0.586c0-0.325,0.265-0.589,0.587-0.589c0.323,0,0.588,0.264,0.588,0.589
				C222.661,19.486,222.396,19.749,222.073,19.749z M222.073,18.844c-0.175,0-0.316,0.144-0.316,0.319
				c0,0.175,0.145,0.316,0.316,0.316c0.176,0,0.317-0.142,0.317-0.316C222.391,18.987,222.249,18.844,222.073,18.844z
				 M226.848,16.443l0.332-0.378c0.59-0.667,0.879-1.555,0.795-2.438c-0.086-0.511-0.357-0.988-0.771-1.334l-0.045-0.038
				l-0.002-0.059c-0.216-4.985-3.697-5.523-5.185-5.523h-0.031c-0.31,0-0.614,0.023-0.918,0.069l-0.021,0.004l-0.021-0.004
				c-0.305-0.046-0.61-0.069-0.918-0.069c-1.517,0-4.985,0.538-5.219,5.523l-0.003,0.059l-0.047,0.037
				c-0.409,0.343-0.688,0.816-0.778,1.338c-0.08,0.875,0.209,1.764,0.795,2.43l0.332,0.377l-0.478-0.16
				c-0.457-0.155-0.852-0.442-1.143-0.836l-0.197-0.272l0.068,0.014c-0.391-0.776-0.381-1.852,0.035-3.202l0.016-0.046l0.412-0.274
				c0.115-0.078,0.178-0.209,0.162-0.346c-0.088-1.569,0.416-3.087,1.416-4.284c1.168-1.324,3.037-1.999,5.564-2.008h0.063
				c2.471,0,4.328,0.674,5.521,2.006c1.006,1.204,1.508,2.725,1.418,4.28c-0.018,0.143,0.052,0.273,0.164,0.352l0.412,0.276
				l0.016,0.044c0.466,1.531,0.427,2.696-0.122,3.467c-0.287,0.394-0.687,0.684-1.146,0.839L226.848,16.443z M227.422,12.126
				c0.436,0.382,0.725,0.9,0.818,1.465c0.071,0.778-0.117,1.554-0.525,2.204c0.207-0.136,0.389-0.307,0.537-0.51
				c0.49-0.689,0.522-1.762,0.096-3.184l-0.33-0.224c-0.197-0.131-0.309-0.359-0.283-0.596c0.086-1.483-0.396-2.936-1.354-4.083
				c-1.139-1.27-2.93-1.915-5.32-1.915h-0.059c-2.445,0.011-4.25,0.655-5.361,1.917c-0.955,1.143-1.436,2.595-1.354,4.086
				c0.024,0.231-0.082,0.46-0.281,0.592l-0.332,0.223c-0.422,1.405-0.389,2.476,0.098,3.188l0.104,0.152
				c0.121,0.132,0.252,0.247,0.397,0.344c-0.405-0.648-0.597-1.421-0.522-2.19c0.1-0.575,0.393-1.092,0.828-1.471
				c0.27-5.161,3.896-5.722,5.448-5.722l0,0c0.345,0,0.664,0.022,0.972,0.069c0.313-0.047,0.627-0.069,0.938-0.069h0.032
				C223.529,6.404,227.174,6.963,227.422,12.126z M225.674,12.134c-1.957,0-3.873-0.54-5.541-1.563
				c-0.162-0.117-0.371-0.089-0.492,0.043c-1.076,1.157-3.055,1.396-3.854,1.444l-0.154,0.01l0.014-0.155
				c0.285-3.719,2.559-4.5,4.414-4.5l0,0c0.322,0,0.611,0.024,0.895,0.073c0.06,0.013,0.103,0.012,0.152,0.001
				c0.285-0.05,0.576-0.074,0.867-0.074c1.537,0,4.104,0.582,4.412,4.464l0.543,0.194l-0.643,0.044
				C226.081,12.128,225.877,12.134,225.674,12.134z M219.911,10.229c0.135,0,0.262,0.041,0.37,0.119
				c1.744,1.066,3.775,1.595,5.832,1.508c-0.293-3.445-2.391-4.172-4.11-4.172c-0.002,0-0.002,0-0.002,0
				c-0.306,0-0.58,0.021-0.845,0.068c-0.079,0.018-0.172,0.02-0.256-0.001c-0.262-0.044-0.537-0.066-0.813-0.066
				c-1.746,0-3.842,0.715-4.162,4.096c0.848-0.066,2.57-0.328,3.521-1.349C219.566,10.303,219.736,10.229,219.911,10.229z"/>
		</g>
	</g>
</g>
<g>
	<g>
		<g>
			<path fill="#97999D" d="M194.479,24.102c-0.689-0.303-1.477-0.645-2.365-1.054l-0.037-0.019l-0.033,0.031
				c-0.297,0.29-0.631,0.563-0.981,0.814l-0.093,0.064l0.103,0.049c1.119,0.521,2.091,0.947,2.91,1.306
				c3.049,1.33,3.431,1.589,3.431,2.313c0,0.498-0.486,1.102-1.099,1.102h-18.617c-0.608,0-1.103-0.602-1.103-1.102
				c0-0.725,0.388-0.983,3.435-2.313c0.82-0.358,1.791-0.786,2.91-1.306l0.101-0.049l-0.09-0.064
				c-0.353-0.251-0.687-0.524-0.984-0.814l-0.029-0.031l-0.041,0.019c-0.895,0.409-1.68,0.751-2.365,1.054
				c-3.074,1.343-4.221,1.844-4.221,3.507c0,1.252,1.137,2.392,2.391,2.392h18.615c1.25,0,2.395-1.139,2.395-2.392
				C198.7,25.945,197.549,25.444,194.479,24.102z"/>
		</g>
	</g>
	<g>
		<g>
			<path fill="#97999D" d="M196.102,11.8h-1.301c0-4.308-3.488-7.8-7.801-7.8c-4.31,0-7.801,3.492-7.801,7.8h-1.3
				c-0.719,0-1.301,0.582-1.301,1.3V17c0,0.718,0.582,1.3,1.301,1.3h1.3c0.385,0,0.721-0.173,0.959-0.438
				c0.041,0.057,0.073,0.113,0.12,0.167c0.9,3.562,3.572,6.154,6.722,6.154c3.229,0,5.944-2.721,6.776-6.413
				c0.236,0.315,0.597,0.532,1.022,0.532h1.3c0.721,0,1.301-0.582,1.301-1.3v-3.9C197.4,12.382,196.82,11.8,196.102,11.8z M179.2,17
				h-1.3v-3.9h1.3V17z M187,22.89c-2.103,0-3.939-1.482-4.943-3.685c1.541,0.671,3.561,1.045,4.943,1.045
				c0.358,0,0.649-0.29,0.649-0.65c0-0.359-0.289-0.649-0.649-0.649c-2.285,0-4.724-0.914-5.541-1.566
				c-0.135-0.636-0.213-1.301-0.213-1.993c0-4.136,2.582-7.499,5.754-7.499s5.758,3.364,5.758,7.499
				C192.754,19.526,190.172,22.89,187,22.89z M193.484,11.957C192.411,8.81,189.909,6.6,187,6.6c-2.904,0-5.41,2.21-6.48,5.357
				c0-0.056-0.02-0.104-0.02-0.157c0-3.583,2.916-6.5,6.5-6.5c3.586,0,6.5,2.917,6.5,6.5
				C193.5,11.854,193.486,11.902,193.484,11.957z M196.102,17h-1.301v-3.9h1.301V17z"/>
		</g>
	</g>
</g>
<rect y="34" fill="#8B7100" fill-opacity="0" width="34" height="34"/>
<rect x="34" y="34" fill="#8B7100" fill-opacity="0" width="34" height="34"/>
<rect x="68" y="34" fill="#8B7100" fill-opacity="0" width="34" height="34"/>
<rect x="102" y="34" fill="#8B7100" fill-opacity="0" width="34" height="34"/>
<rect x="136" y="34" fill="#8B7100" fill-opacity="0" width="34" height="34"/>
<rect x="170" y="34" fill="#8B7100" fill-opacity="0" width="34" height="34"/>
<rect x="204" y="34" fill="#8B7100" fill-opacity="0" width="34" height="34"/>
<rect x="238" y="34" fill="#8B7100" fill-opacity="0" width="34" height="34"/>
<g>
	<g>
		<g>
			<path fill="#FFFFFF" d="M26.098,44.566c-0.345-0.346-0.887-0.396-1.291-0.121c-1.52,1.035-9.142,6.246-9.96,7.063
				c-1.188,1.188-1.188,3.121,0,4.313c0.595,0.594,1.374,0.892,2.153,0.892c0.78,0,1.56-0.298,2.154-0.892
				c0.818-0.82,6.029-8.443,7.064-9.963C26.495,45.454,26.443,44.912,26.098,44.566z M17.718,54.383
				c-0.395,0.396-1.04,0.396-1.435,0c-0.396-0.396-0.396-1.04,0-1.438c0.318-0.313,2.481-1.857,5.144-3.709
				C19.576,51.9,18.032,54.064,17.718,54.383z"/>
			<path fill="#FFFFFF" d="M8.682,58.391L7.43,59.002c-0.917-1.637-1.398-3.466-1.398-5.337c0-1.371,0.252-2.685,0.713-3.896
				l1.437,0.688c0.142,0.064,0.291,0.104,0.437,0.104c0.379,0,0.743-0.213,0.917-0.578c0.242-0.506,0.029-1.111-0.476-1.354
				l-1.417-0.683c1.762-2.875,4.813-4.881,8.341-5.204v1.526c0,0.562,0.456,1.017,1.015,1.017c0.563,0,1.015-0.455,1.015-1.017
				v-1.526c1.212,0.106,2.382,0.418,3.492,0.919c0.511,0.23,1.113,0.003,1.344-0.51c0.23-0.512,0.003-1.111-0.509-1.344
				c-1.684-0.762-3.482-1.146-5.344-1.146c-3.473,0-6.737,1.354-9.194,3.811C5.354,46.928,4,50.193,4,53.665
				c0,2.565,0.762,5.063,2.203,7.218c0.192,0.291,0.515,0.451,0.844,0.451c0.151,0,0.301-0.034,0.444-0.104l2.082-1.017
				c0.503-0.243,0.713-0.854,0.467-1.356C9.796,58.354,9.188,58.145,8.682,58.391z"/>
			<path fill="#FFFFFF" d="M28.855,48.32c-0.231-0.512-0.832-0.738-1.345-0.508c-0.511,0.229-0.739,0.834-0.508,1.344
				c0.642,1.42,0.967,2.938,0.967,4.509c0,1.874-0.483,3.705-1.403,5.346l-1.309-0.622c-0.507-0.242-1.113-0.023-1.354,0.479
				c-0.242,0.506-0.025,1.112,0.48,1.354l2.134,1.014c0.14,0.068,0.289,0.1,0.435,0.1c0.329,0,0.651-0.159,0.844-0.451
				C29.238,58.729,30,56.234,30,53.668C30.001,51.803,29.616,50.006,28.855,48.32z"/>
		</g>
	</g>
</g>
<g>
	<g>
		<path fill="#FFFFFF" d="M156.514,49.42c0.604,0.275,1.203,0.51,1.764,0.816c0.568,0.31,1.105,0.675,1.643,1.045
			c0.338,0.232,0.468,0.582,0.355,0.988c-0.104,0.39-0.385,0.609-0.785,0.664c-0.262,0.032-0.48-0.056-0.686-0.201
			c-1.104-0.817-2.309-1.433-3.645-1.762c-1.054-0.259-2.12-0.357-3.204-0.277c-2.127,0.162-4.025,0.914-5.664,2.271
			c-1.846,1.531-3.014,3.486-3.434,5.861c-0.104,0.572-0.142,1.168-0.174,1.754c-0.023,0.527-0.449,0.911-0.935,0.9
			c-0.53-0.008-0.924-0.437-0.912-1.002c0.019-1.059,0.168-2.1,0.47-3.112c0.598-2.017,1.655-3.743,3.162-5.208
			c1.225-1.188,2.653-2.043,4.245-2.641c0.046-0.017,0.089-0.033,0.13-0.051c0.012-0.007,0.021-0.021,0.053-0.045
			c-1.64-1.318-2.582-2.996-2.576-5.131c0.008-1.74,0.65-3.242,1.893-4.453c2.492-2.431,6.26-2.389,8.684-0.277
			c1.521,1.326,2.271,3.021,2.193,5.029C159.012,46.6,158.068,48.186,156.514,49.42z M148.165,44.318
			c-0.019,2.459,2.006,4.492,4.479,4.507c2.543,0.015,4.584-1.979,4.604-4.484c0.02-2.448-2.029-4.495-4.517-4.511
			C150.217,39.813,148.18,41.816,148.165,44.318z"/>
	</g>
	<g>
		<rect x="147.749" y="58.396" fill="#FFFFFF" width="11.425" height="1.687"/>
		<g>
			<path fill="#FFFFFF" d="M161.313,62.604c-2.123,0-3.852-1.728-3.852-3.852c0-2.123,1.729-3.848,3.852-3.848
				s3.85,1.727,3.85,3.848C165.161,60.876,163.436,62.604,161.313,62.604z M161.313,57.01c-0.963,0-1.742,0.781-1.742,1.74
				c0,0.963,0.781,1.744,1.742,1.744s1.74-0.782,1.74-1.744C163.053,57.791,162.271,57.01,161.313,57.01z"/>
		</g>
		<g>
			<rect x="148.6" y="59.24" fill="#FFFFFF" width="2.107" height="2.855"/>
		</g>
		<g>
			<rect x="153.359" y="59.24" fill="#FFFFFF" width="2.104" height="4.76"/>
		</g>
	</g>
</g>
<g>
	<path fill="#FFFFFF" d="M50.961,40.672c-3.067,0-5.562,2.496-5.562,5.564c0,1.238,0.411,2.382,1.104,3.309
		c-1.358,0.948-2.175,2.363-2.175,3.878v7.906h1.546v-7.906c0-1.079,0.654-2.103,1.73-2.763c0.935,0.711,2.095,1.137,3.358,1.137
		c1.277,0,2.45-0.438,3.391-1.164c1.105,0.66,1.773,1.693,1.773,2.79v7.904h1.546v-7.904c0-1.54-0.836-2.967-2.226-3.914
		c0.672-0.917,1.073-2.049,1.073-3.272C56.524,43.167,54.028,40.672,50.961,40.672z M50.961,50.251
		c-2.214,0-4.014-1.802-4.014-4.015c0-2.215,1.8-4.02,4.014-4.02c2.213,0,4.016,1.805,4.016,4.02
		C54.977,48.449,53.174,50.251,50.961,50.251z"/>
	<path fill="#FFFFFF" d="M38.547,52.17c0-0.475,0.269-0.927,0.718-1.262c0.573,0.381,1.26,0.605,1.999,0.605
		c2.003,0,3.631-1.629,3.631-3.629c0-2.002-1.627-3.629-3.631-3.629c-1.999,0-3.624,1.627-3.624,3.629
		c0,0.695,0.208,1.342,0.547,1.893C37.439,50.396,37,51.254,37,52.167v4.59h1.548L38.547,52.17L38.547,52.17z M41.263,45.813
		c1.147,0,2.081,0.934,2.081,2.08s-0.934,2.078-2.081,2.078s-2.08-0.934-2.08-2.078C39.186,46.743,40.117,45.813,41.263,45.813z"/>
	<path fill="#FFFFFF" d="M63.782,49.758c0.331-0.547,0.532-1.185,0.532-1.865c0-2.004-1.626-3.632-3.628-3.632
		c-2.001,0-3.627,1.628-3.627,3.632c0,1.998,1.625,3.625,3.627,3.625c0.751,0,1.45-0.229,2.025-0.619
		c0.459,0.33,0.737,0.789,0.737,1.272v4.59H65V52.17C65,51.242,64.55,50.375,63.782,49.758z M60.689,49.971
		c-1.147,0-2.081-0.934-2.081-2.078c0-1.146,0.934-2.082,2.081-2.082s2.08,0.936,2.08,2.082
		C62.767,49.036,61.835,49.971,60.689,49.971z"/>
</g>
<g>
	<g>
		<g>
			<path fill="#FFFFFF" d="M224.844,55.973v-0.469c0.131-0.104,0.26-0.222,0.383-0.342c0.979-1.076,1.59-2.434,1.756-3.874
				c0.879-0.134,1.668-0.604,2.207-1.313c0.734-1.041,0.807-2.539,0.188-4.422c-0.037-0.104-0.104-0.199-0.203-0.264l-0.278-0.189
				c0.041-1.695-0.545-3.349-1.646-4.64c-1.369-1.539-3.471-2.317-6.25-2.329c-2.774,0-4.875,0.789-6.246,2.309
				c-1.102,1.291-1.686,2.942-1.646,4.643l-0.279,0.188c-0.094,0.063-0.166,0.154-0.201,0.266c-0.615,1.891-0.549,3.38,0.188,4.424
				c0.535,0.71,1.328,1.188,2.207,1.326c0.168,1.443,0.783,2.802,1.764,3.882c0.119,0.12,0.246,0.233,0.381,0.342v0.47
				c-1.945,0.377-9.719,2.201-9.588,7.388c0,0.276,0.229,0.506,0.508,0.506h25.836c0.281,0,0.508-0.229,0.508-0.506
				C234.563,58.174,226.79,56.35,224.844,55.973z M214.713,50.148c-0.433-0.146-0.805-0.42-1.072-0.787l0.021,0.004
				c-0.508-0.739-0.557-1.862-0.102-3.348l0.373-0.25c0.156-0.104,0.24-0.285,0.223-0.474c-0.086-1.521,0.408-3.019,1.389-4.187
				c1.146-1.301,2.99-1.949,5.463-1.963c2.474-0.012,4.313,0.66,5.48,1.963c0.977,1.17,1.469,2.664,1.385,4.187
				c-0.02,0.188,0.066,0.369,0.226,0.474l0.368,0.25c0.453,1.478,0.427,2.606-0.1,3.348c-0.271,0.369-0.65,0.646-1.082,0.789
				c0.613-0.695,0.918-1.616,0.828-2.539c-0.092-0.561-0.387-1.065-0.814-1.428c-0.219-5.082-3.782-5.65-5.319-5.65
				c-0.321-0.002-0.647,0.021-0.97,0.07c-0.317-0.051-0.647-0.072-0.969-0.07c-1.526,0-5.084,0.559-5.319,5.65
				c-0.437,0.356-0.729,0.859-0.828,1.418C213.801,48.532,214.1,49.451,214.713,50.148z M226.275,45.982
				c-2.131,0.123-4.25-0.409-6.073-1.526c-0.205-0.146-0.488-0.117-0.66,0.065c-1.019,1.092-2.873,1.348-3.767,1.399
				c0.272-3.594,2.445-4.376,4.279-4.376c0.293-0.002,0.584,0.021,0.87,0.07c0.066,0.016,0.136,0.016,0.203,0
				c0.287-0.051,0.578-0.072,0.869-0.07c1.814,0,4,0.805,4.254,4.428L226.275,45.982z M215.954,50.245l0.02,0.006
				c0.002-0.127-0.047-0.247-0.127-0.342c-0.695-0.8-1.021-1.525-0.932-2.124c0.041-0.334,0.205-0.641,0.463-0.859
				c0.67,0,3.053-0.127,4.574-1.441c1.719,0.988,3.664,1.516,5.645,1.522c0.342,0,0.688,0,1.049-0.056
				c0.246,0.213,0.41,0.51,0.455,0.835c0.09,0.589-0.232,1.325-0.932,2.124c-0.082,0.093-0.129,0.215-0.127,0.342
				c0,0,0,0.102,0,0.264l-2.959,1.586c-0.586-0.556-1.515-0.526-2.066,0.061c-0.561,0.586-0.531,1.515,0.055,2.066
				c0.584,0.558,1.516,0.531,2.072-0.057c0.256-0.271,0.398-0.631,0.398-1.007c0.002-0.048,0.002-0.092,0-0.14l2.332-1.248
				c-0.199,1.004-0.67,1.931-1.363,2.684c-0.902,0.868-2.117,1.325-3.371,1.26h-0.252c-1.246,0.063-2.467-0.394-3.365-1.255
				C215.918,52.861,215.954,50.271,215.954,50.245z M222.525,53.163c0,0.249-0.2,0.452-0.452,0.452
				c-0.248,0-0.451-0.201-0.451-0.452c0-0.25,0.203-0.452,0.451-0.452C222.325,52.71,222.525,52.914,222.525,53.163z M220.493,62.82
				h-11.886c0.399-3.816,6.606-5.413,8.55-5.824v0.911c0,1.151,1.401,2.032,3.336,2.182V62.82L220.493,62.82z M218.174,57.902
				v-0.014V56.15c0.846,0.393,1.77,0.586,2.699,0.566h0.252c0.934,0.02,1.854-0.177,2.699-0.566v1.752
				c0,0.481-1.104,1.178-2.824,1.178C219.277,59.086,218.174,58.389,218.174,57.902z M221.508,62.835v-2.754
				c1.934-0.132,3.336-1.019,3.336-2.183V57.01c1.959,0.404,8.133,2.001,8.549,5.824L221.508,62.835L221.508,62.835z"/>
			<path fill="#FFFFFF" d="M233.917,64h-25.836c-0.354,0-0.642-0.287-0.642-0.641c-0.127-5.129,7.16-7.014,9.586-7.495v-0.292
				c-0.11-0.092-0.224-0.195-0.342-0.315c-0.983-1.081-1.603-2.411-1.789-3.856c-0.879-0.164-1.653-0.646-2.188-1.358
				c-0.771-1.087-0.842-2.617-0.211-4.545c0.045-0.138,0.135-0.254,0.258-0.335l0.223-0.146c-0.021-1.711,0.57-3.361,1.68-4.658
				c1.408-1.563,3.547-2.354,6.35-2.354c2.824,0.012,4.961,0.811,6.353,2.373c1.106,1.3,1.705,2.952,1.681,4.658l0.219,0.146
				c0.119,0.072,0.209,0.192,0.26,0.332c0.631,1.928,0.563,3.454-0.205,4.543c-0.547,0.717-1.32,1.189-2.191,1.354
				c-0.188,1.443-0.807,2.771-1.781,3.846c-0.135,0.133-0.243,0.233-0.346,0.317v0.294c2.426,0.482,9.717,2.367,9.578,7.5
				C234.559,63.713,234.271,64,233.917,64z M220.999,38.27c-2.726,0-4.791,0.765-6.146,2.266c-1.078,1.263-1.651,2.878-1.61,4.548
				l0.002,0.071l-0.345,0.229c-0.069,0.048-0.125,0.116-0.149,0.194c-0.601,1.845-0.543,3.293,0.172,4.304
				c0.516,0.685,1.27,1.14,2.117,1.271l0.102,0.018l0.014,0.104c0.164,1.428,0.766,2.744,1.729,3.807
				c0.125,0.127,0.244,0.234,0.365,0.326l0.053,0.041v0.645l-0.108,0.021c-2.258,0.436-9.604,2.248-9.479,7.248
				c0,0.207,0.168,0.377,0.375,0.377h25.836c0.205,0,0.373-0.168,0.373-0.373c0.135-5.004-7.215-6.816-9.473-7.254l-0.109-0.021
				v-0.646l0.055-0.039c0.109-0.088,0.229-0.192,0.373-0.336c0.957-1.051,1.551-2.362,1.717-3.791l0.016-0.102l0.104-0.018
				c0.843-0.129,1.597-0.575,2.115-1.26c0.711-1.013,0.771-2.457,0.166-4.297c-0.027-0.084-0.08-0.149-0.147-0.195l-0.345-0.232
				l0.002-0.072c0.043-1.666-0.528-3.281-1.61-4.551C225.811,39.047,223.741,38.277,220.999,38.27z M233.542,62.973h-12.168v-3.017
				l0.127-0.008c1.891-0.128,3.207-0.972,3.207-2.048v-1.055l0.162,0.031c1.926,0.396,8.229,2.004,8.655,5.939L233.542,62.973z
				 M221.645,62.701h11.598c-0.539-3.553-6.244-5.09-8.264-5.524V57.9c0,1.201-1.359,2.139-3.334,2.306V62.701L221.645,62.701z
				 M220.627,62.955h-12.168l0.016-0.148c0.412-3.896,6.729-5.533,8.652-5.938l0.164-0.034v1.077c0,1.062,1.319,1.897,3.211,2.044
				l0.125,0.013V62.955L220.627,62.955z M208.762,62.688h11.596v-2.476c-1.969-0.185-3.338-1.122-3.338-2.304v-0.744
				C215,57.609,209.282,59.177,208.762,62.688z M221,59.217c-1.701,0-2.961-0.691-2.961-1.313v-1.965l0.19,0.09
				c0.781,0.365,1.656,0.559,2.524,0.559l0.369-0.002l0.127,0.002c0.873,0,1.72-0.188,2.515-0.559l0.192-0.09v1.965
				C223.959,58.523,222.695,59.217,221,59.217z M218.311,56.359v1.529c0,0.383,1.018,1.06,2.676,1.06
				c1.686,0,2.705-0.675,2.705-1.044v-1.545c-0.773,0.33-1.594,0.496-2.438,0.496l-0.379-0.002l-0.117,0.002
				C219.918,56.854,219.077,56.686,218.311,56.359z M221.374,55.859c-0.08,0-0.16-0.002-0.24-0.006h-0.24
				c-1.309,0.059-2.533-0.402-3.461-1.291c-1.609-1.607-1.609-4.207-1.609-4.315l0.002-0.117c-0.018-0.048-0.041-0.09-0.074-0.127
				c-0.733-0.847-1.057-1.596-0.961-2.233c0.047-0.367,0.229-0.705,0.51-0.939l0.037-0.032h0.052c0.478,0,2.93-0.065,4.487-1.409
				l0.07-0.063l0.084,0.048c1.697,0.979,3.627,1.497,5.576,1.506c0.332,0,0.674,0,1.025-0.054l0.063-0.013l0.049,0.039
				c0.271,0.235,0.451,0.563,0.502,0.92c0.092,0.631-0.236,1.403-0.959,2.231c-0.063,0.071-0.098,0.159-0.096,0.249v0.346
				l-3.113,1.67l-0.072-0.063c-0.246-0.235-0.569-0.365-0.914-0.365c-0.37,0-0.711,0.146-0.963,0.415
				c-0.246,0.257-0.375,0.598-0.367,0.95c0.013,0.354,0.158,0.687,0.414,0.927c0.248,0.235,0.572,0.364,0.916,0.364
				c0.371,0,0.711-0.146,0.964-0.415c0.235-0.247,0.364-0.572,0.364-0.915c0.002-0.052,0.002-0.09,0.002-0.136l-0.004-0.084
				l2.656-1.424l-0.057,0.277c-0.203,1.026-0.688,1.977-1.395,2.75C223.73,55.396,222.584,55.859,221.374,55.859z M220.883,55.585
				h0.26c0.084,0.003,0.158,0.006,0.234,0.006c1.139,0,2.221-0.437,3.045-1.228c0.604-0.658,1.035-1.461,1.258-2.33l-2.004,1.07
				c0,0.021,0,0.043,0,0.063c0,0.406-0.154,0.795-0.438,1.094c-0.301,0.316-0.725,0.5-1.161,0.5c-0.41,0-0.804-0.154-1.101-0.438
				c-0.31-0.293-0.486-0.688-0.5-1.115c-0.011-0.428,0.146-0.833,0.438-1.145c0.303-0.321,0.715-0.498,1.16-0.498
				c0.381,0,0.738,0.133,1.025,0.371l2.803-1.502V50.25c-0.002-0.157,0.057-0.309,0.164-0.43c0.668-0.766,0.979-1.463,0.896-2.02
				c-0.041-0.271-0.168-0.521-0.367-0.711c-0.348,0.051-0.682,0.051-1.004,0.051c-1.967-0.012-3.91-0.524-5.627-1.496
				c-1.582,1.305-3.953,1.406-4.539,1.416c-0.211,0.192-0.344,0.453-0.381,0.738c-0.082,0.555,0.229,1.25,0.897,2.021
				c0.104,0.117,0.162,0.271,0.16,0.431l-0.002,0.174l-0.015-0.004c0.023,0.61,0.211,2.634,1.523,3.947
				C218.493,55.204,219.657,55.648,220.883,55.585L220.883,55.585L220.883,55.585z M222.073,53.749
				c-0.322,0-0.587-0.263-0.587-0.586c0-0.325,0.265-0.589,0.587-0.589c0.323,0,0.588,0.264,0.588,0.589
				C222.661,53.486,222.396,53.749,222.073,53.749z M222.073,52.844c-0.175,0-0.316,0.146-0.316,0.319s0.145,0.315,0.316,0.315
				c0.176,0,0.317-0.144,0.317-0.315C222.391,52.986,222.249,52.844,222.073,52.844z M226.848,50.443l0.332-0.379
				c0.59-0.666,0.879-1.557,0.795-2.438c-0.086-0.511-0.357-0.987-0.771-1.334l-0.045-0.038l-0.002-0.061
				c-0.216-4.983-3.697-5.521-5.185-5.521h-0.031c-0.31,0-0.614,0.021-0.918,0.069l-0.021,0.004l-0.021-0.004
				c-0.305-0.048-0.61-0.069-0.918-0.069c-1.517,0-4.985,0.538-5.219,5.521l-0.003,0.061l-0.047,0.037
				c-0.409,0.343-0.688,0.814-0.778,1.338c-0.08,0.875,0.209,1.766,0.795,2.432l0.332,0.377l-0.478-0.16
				c-0.457-0.154-0.852-0.441-1.143-0.836l-0.197-0.271l0.068,0.016c-0.391-0.775-0.381-1.854,0.035-3.203l0.016-0.045l0.412-0.273
				c0.115-0.078,0.178-0.209,0.162-0.348c-0.088-1.567,0.416-3.086,1.416-4.282c1.168-1.324,3.037-1.999,5.564-2.009h0.063
				c2.471,0,4.328,0.675,5.521,2.006c1.006,1.203,1.508,2.726,1.418,4.279c-0.018,0.145,0.052,0.272,0.164,0.354l0.412,0.275
				l0.016,0.043c0.466,1.531,0.427,2.695-0.122,3.469c-0.287,0.395-0.687,0.684-1.146,0.839L226.848,50.443z M227.422,46.126
				c0.436,0.382,0.725,0.899,0.818,1.465c0.071,0.778-0.117,1.554-0.525,2.204c0.207-0.136,0.389-0.307,0.537-0.51
				c0.49-0.689,0.522-1.762,0.096-3.184l-0.33-0.227c-0.197-0.131-0.309-0.357-0.283-0.598c0.086-1.481-0.396-2.936-1.354-4.082
				c-1.139-1.271-2.93-1.914-5.32-1.914h-0.059c-2.445,0.011-4.25,0.652-5.361,1.917c-0.955,1.143-1.436,2.595-1.354,4.086
				c0.024,0.229-0.082,0.46-0.281,0.592l-0.332,0.226c-0.422,1.402-0.389,2.476,0.098,3.188l0.104,0.152
				c0.121,0.132,0.252,0.246,0.397,0.344c-0.405-0.648-0.597-1.422-0.522-2.189c0.1-0.576,0.393-1.093,0.828-1.472
				c0.27-5.161,3.896-5.722,5.448-5.722l0,0c0.345,0,0.664,0.021,0.972,0.068c0.313-0.049,0.627-0.068,0.938-0.068h0.032
				C223.529,40.404,227.174,40.963,227.422,46.126z M225.674,46.134c-1.957,0-3.873-0.54-5.541-1.563
				c-0.162-0.114-0.371-0.088-0.492,0.046c-1.076,1.155-3.055,1.396-3.854,1.442l-0.154,0.01l0.014-0.153
				c0.285-3.722,2.559-4.5,4.414-4.5l0,0c0.322,0,0.611,0.022,0.895,0.071c0.06,0.015,0.103,0.014,0.152,0
				c0.285-0.049,0.576-0.071,0.867-0.071c1.537,0,4.104,0.582,4.412,4.464l0.543,0.191l-0.643,0.047
				C226.081,46.128,225.877,46.134,225.674,46.134z M219.911,44.229c0.135,0,0.262,0.041,0.37,0.119
				c1.744,1.066,3.775,1.596,5.832,1.508c-0.293-3.442-2.391-4.172-4.11-4.172c-0.002,0-0.002,0-0.002,0
				c-0.306,0-0.58,0.021-0.845,0.068c-0.079,0.018-0.172,0.02-0.256-0.001c-0.262-0.044-0.537-0.065-0.813-0.065
				c-1.746,0-3.842,0.715-4.162,4.098c0.848-0.066,2.57-0.328,3.521-1.352C219.566,44.303,219.736,44.229,219.911,44.229z"/>
		</g>
	</g>
</g>
<g>
	<g>
		<g>
			<path fill="#FFFFFF" d="M194.479,58.102c-0.689-0.303-1.477-0.645-2.365-1.054l-0.037-0.019l-0.033,0.031
				c-0.297,0.289-0.631,0.563-0.981,0.813l-0.093,0.063l0.103,0.049c1.119,0.521,2.091,0.947,2.91,1.309
				c3.049,1.33,3.431,1.589,3.431,2.313c0,0.498-0.486,1.104-1.099,1.104h-18.617c-0.608,0-1.103-0.604-1.103-1.104
				c0-0.726,0.388-0.981,3.435-2.313c0.82-0.355,1.791-0.786,2.91-1.309l0.101-0.049l-0.09-0.063
				c-0.353-0.251-0.687-0.523-0.984-0.813l-0.029-0.031l-0.041,0.019c-0.895,0.409-1.68,0.751-2.365,1.054
				c-3.074,1.344-4.221,1.844-4.221,3.508c0,1.252,1.137,2.394,2.391,2.394h18.615c1.25,0,2.395-1.142,2.395-2.394
				C198.7,59.945,197.549,59.443,194.479,58.102z"/>
		</g>
	</g>
	<g>
		<g>
			<path fill="#FFFFFF" d="M196.102,45.8h-1.301c0-4.308-3.488-7.8-7.801-7.8c-4.31,0-7.801,3.492-7.801,7.8h-1.3
				c-0.719,0-1.301,0.582-1.301,1.3V51c0,0.718,0.582,1.3,1.301,1.3h1.3c0.385,0,0.721-0.173,0.959-0.438
				c0.041,0.06,0.073,0.113,0.12,0.168c0.9,3.563,3.572,6.154,6.722,6.154c3.229,0,5.944-2.722,6.776-6.414
				c0.236,0.315,0.597,0.532,1.022,0.532h1.3c0.721,0,1.301-0.581,1.301-1.3v-3.9C197.4,46.382,196.82,45.8,196.102,45.8z M179.2,51
				h-1.3v-3.9h1.3V51z M187,56.891c-2.103,0-3.939-1.48-4.943-3.686c1.541,0.671,3.561,1.045,4.943,1.045
				c0.358,0,0.649-0.29,0.649-0.65c0-0.356-0.289-0.646-0.649-0.646c-2.285,0-4.724-0.914-5.541-1.566
				c-0.135-0.636-0.213-1.301-0.213-1.99c0-4.139,2.582-7.5,5.754-7.5s5.758,3.362,5.758,7.5
				C192.754,53.525,190.172,56.891,187,56.891z M193.484,45.957c-1.073-3.146-3.575-5.357-6.483-5.357
				c-2.904,0-5.41,2.211-6.479,5.357c0-0.057-0.021-0.104-0.021-0.157c0-3.583,2.916-6.5,6.5-6.5c3.586,0,6.5,2.917,6.5,6.5
				C193.5,45.854,193.486,45.902,193.484,45.957z M196.102,51h-1.301v-3.9h1.301V51z"/>
		</g>
	</g>
</g>
<g>
	<path fill="#97999D" d="M266.458,11.732h-3.08V8.704h-3.027v-3.08h1.516V4.109h-3.029v4.595h-1.516V4.109h-1.514v4.595h-1.516
		V4.109h-1.517v4.595h-1.515V4.109h-3.03v1.515h1.517v3.08h-3.029v3.029h-3.078v-1.514h-1.516v3.029h4.594v1.515h-4.594v1.515h4.594
		v1.515h-4.594v1.515h4.594v1.515h-4.594v3.029h1.516v-1.515h3.078v3.029h3.029v3.08h-1.517v1.515h3.03v-4.595h1.515v4.595h1.517
		v-4.595h1.516v4.595h1.514v-4.595h1.516v4.595h3.029v-1.515h-1.516v-3.08h3.027v-3.029h3.08v1.515h1.516v-3.029h-4.596v-1.515
		h4.596v-1.515h-4.596v-1.515h4.596v-1.515h-4.596v-1.515h4.596v-3.029h-1.516V11.732z M260.35,22.335h-10.604V11.732h10.604V22.335
		z"/>
	<path fill="#97999D" d="M258.834,13.247h-7.572v7.574h7.572V13.247z M254.292,19.306h-1.517v-1.515h1.517V19.306z M254.292,16.276
		h-1.517v-1.515h1.517V16.276z M257.32,19.306h-1.516v-1.515h1.516V19.306z M257.32,16.276h-1.516v-1.515h1.516V16.276z"/>
</g>
<g>
	<path fill="#FFFFFF" d="M266.458,45.749h-3.08v-3.028h-3.027v-3.08h1.516v-1.516h-3.029v4.596h-1.516v-4.596h-1.514v4.596h-1.516
		v-4.596h-1.517v4.596h-1.515v-4.596h-3.03v1.516h1.517v3.08h-3.029v3.028h-3.078v-1.515h-1.516v3.029h4.594v1.514h-4.594v1.516
		h4.594v1.516h-4.594v1.516h4.594v1.515h-4.594v3.029h1.516v-1.517h3.078v3.029h3.029v3.08h-1.517v1.516h3.03v-4.596h1.515v4.596
		h1.517v-4.596h1.516v4.596h1.514v-4.596h1.516v4.596h3.029v-1.516h-1.516v-3.08h3.027v-3.029h3.08v1.517h1.516v-3.029h-4.596
		v-1.515h4.596v-1.516h-4.596v-1.516h4.596v-1.516h-4.596v-1.514h4.596v-3.029h-1.516V45.749z M260.35,56.352h-10.604V45.749h10.604
		V56.352z"/>
	<path fill="#FFFFFF" d="M258.834,47.264h-7.572v7.573h7.572V47.264z M254.292,53.322h-1.517v-1.516h1.517V53.322z M254.292,50.293
		h-1.517v-1.516h1.517V50.293z M257.32,53.322h-1.516v-1.516h1.516V53.322z M257.32,50.293h-1.516v-1.516h1.516V50.293z"/>
</g>
<g>
	<path fill="#97999D" d="M77.231,6.48c-1.04,0-1.886,0.845-1.886,1.885c0,1.039,0.846,1.884,1.886,1.884
		c1.039,0,1.885-0.846,1.885-1.884C79.116,7.325,78.271,6.48,77.231,6.48z M77.231,9.412c-0.578,0-1.048-0.47-1.048-1.046
		c0-0.578,0.47-1.049,1.048-1.049c0.577,0,1.047,0.471,1.047,1.049C78.278,8.942,77.809,9.412,77.231,9.412z"/>
	<circle fill="#97999D" cx="93.779" cy="7.736" r="0.419"/>
	<circle fill="#97999D" cx="92.103" cy="7.736" r="0.419"/>
	<circle fill="#97999D" cx="94.616" cy="8.993" r="0.419"/>
	<circle fill="#97999D" cx="92.94" cy="8.993" r="0.419"/>
	<circle fill="#97999D" cx="90.427" cy="7.736" r="0.419"/>
	<circle fill="#97999D" cx="91.264" cy="8.993" r="0.419"/>
	<circle fill="#97999D" cx="88.751" cy="7.736" r="0.419"/>
	<circle fill="#97999D" cx="89.588" cy="8.993" r="0.419"/>
	<circle fill="#97999D" cx="87.076" cy="7.736" r="0.419"/>
	<circle fill="#97999D" cx="87.913" cy="8.993" r="0.419"/>
	<path fill="#97999D" d="M77.231,14.439c-1.04,0-1.886,0.846-1.886,1.884c0,1.039,0.846,1.886,1.886,1.886
		c1.039,0,1.885-0.847,1.885-1.886C79.116,15.285,78.271,14.439,77.231,14.439z M77.231,17.372c-0.578,0-1.048-0.47-1.048-1.048
		c0-0.577,0.47-1.048,1.048-1.048c0.577,0,1.047,0.471,1.047,1.048C78.278,16.902,77.809,17.372,77.231,17.372z"/>
	<path fill="#97999D" d="M77.231,22.398c-1.04,0-1.886,0.846-1.886,1.885c0,1.039,0.846,1.884,1.886,1.884
		c1.039,0,1.885-0.845,1.885-1.884C79.116,23.245,78.271,22.398,77.231,22.398z M77.231,25.331c-0.578,0-1.048-0.469-1.048-1.047
		c0-0.578,0.47-1.048,1.048-1.048c0.577,0,1.047,0.47,1.047,1.048C78.278,24.862,77.809,25.331,77.231,25.331z"/>
	<path fill="#97999D" stroke="#97999D" stroke-width="0.5" stroke-miterlimit="10" d="M97.967,10.833V5.896
		c0-1.065-0.865-1.931-1.929-1.931H74.762c-1.064,0-1.93,0.866-1.93,1.931v4.936c0,0.616,0.294,1.158,0.744,1.512
		c-0.45,0.354-0.744,0.896-0.744,1.512v4.936c0,0.614,0.294,1.158,0.744,1.512c-0.45,0.354-0.744,0.896-0.744,1.512v4.936
		c0,1.064,0.866,1.93,1.93,1.93h11.677c1.125,0.206,2.355,0.313,3.568,0.313c3.633,0,7.464-0.941,7.915-2.745
		c0.029-0.056,0.044-0.12,0.044-0.187v-3.77v-0.158v-0.157v-3.457v-0.156v-0.157v-3.614v-0.156c0-0.063-0.015-0.122-0.04-0.174
		c-0.145-0.613-0.69-1.13-1.493-1.544C97.309,12.537,97.967,11.76,97.967,10.833z M73.67,18.793v-4.937
		c0-0.603,0.49-1.092,1.092-1.092h8.739c-0.757,0.406-1.272,0.908-1.412,1.501c-0.025,0.054-0.041,0.112-0.041,0.174v0.156v3.614
		v0.157v0.156v1.362h-7.286C74.16,19.884,73.67,19.396,73.67,18.793z M83.148,16.221c0.02,0.013,0.04,0.025,0.059,0.037
		c0.074,0.046,0.15,0.092,0.23,0.136c0.023,0.012,0.045,0.024,0.068,0.038c0.097,0.052,0.199,0.103,0.305,0.152
		c0.017,0.008,0.035,0.016,0.051,0.022c0.092,0.042,0.188,0.084,0.286,0.123c0.029,0.013,0.058,0.025,0.086,0.036
		c0.116,0.045,0.234,0.09,0.355,0.131c0.007,0.002,0.014,0.005,0.02,0.007c0.117,0.041,0.237,0.079,0.358,0.114
		c0.033,0.011,0.066,0.02,0.1,0.03c0.121,0.035,0.243,0.069,0.368,0.102c0.01,0.003,0.02,0.006,0.03,0.008
		c0.135,0.035,0.273,0.067,0.413,0.099c0.035,0.008,0.071,0.016,0.105,0.022c0.12,0.027,0.242,0.051,0.364,0.075
		c0.024,0.004,0.049,0.01,0.072,0.014c0.144,0.027,0.289,0.052,0.436,0.075c0.035,0.005,0.071,0.01,0.105,0.016
		c0.123,0.018,0.246,0.036,0.369,0.053c0.035,0.004,0.068,0.009,0.103,0.014c0.149,0.019,0.3,0.037,0.453,0.052
		c0.029,0.003,0.061,0.005,0.091,0.009c0.129,0.013,0.257,0.023,0.386,0.034c0.038,0.003,0.077,0.007,0.116,0.01
		c0.154,0.01,0.308,0.021,0.461,0.029c0.023,0.001,0.045,0.001,0.067,0.003c0.136,0.006,0.272,0.011,0.41,0.016
		c0.041,0,0.081,0.002,0.124,0.002c0.156,0.004,0.312,0.007,0.469,0.007c0.155,0,0.311-0.002,0.467-0.007
		c0.041,0,0.083-0.002,0.124-0.002c0.137-0.005,0.272-0.009,0.41-0.016c0.021-0.002,0.043-0.002,0.065-0.003
		c0.154-0.008,0.309-0.019,0.463-0.029c0.039-0.003,0.077-0.006,0.117-0.01c0.128-0.009,0.256-0.021,0.384-0.034
		c0.031-0.003,0.063-0.007,0.092-0.009c0.153-0.016,0.303-0.034,0.454-0.052c0.034-0.005,0.068-0.009,0.101-0.014
		c0.125-0.017,0.247-0.035,0.368-0.053c0.036-0.006,0.072-0.011,0.106-0.016c0.146-0.023,0.292-0.048,0.436-0.075
		c0.025-0.004,0.048-0.01,0.072-0.014c0.123-0.023,0.245-0.048,0.363-0.075c0.036-0.007,0.071-0.016,0.107-0.022
		c0.138-0.031,0.276-0.064,0.413-0.099c0.009-0.002,0.019-0.005,0.029-0.008c0.125-0.032,0.248-0.066,0.369-0.102
		c0.033-0.01,0.067-0.019,0.098-0.03c0.123-0.036,0.242-0.074,0.359-0.114c0.006-0.002,0.013-0.005,0.02-0.007
		c0.122-0.042,0.24-0.086,0.354-0.131c0.029-0.011,0.058-0.023,0.087-0.036c0.099-0.039,0.192-0.08,0.286-0.123
		c0.017-0.007,0.034-0.015,0.051-0.022c0.105-0.049,0.207-0.1,0.304-0.152c0.024-0.013,0.047-0.025,0.069-0.038
		c0.08-0.044,0.156-0.09,0.23-0.136c0.02-0.012,0.04-0.024,0.058-0.037c0.087-0.055,0.17-0.114,0.248-0.173
		c0.004-0.004,0.011-0.007,0.015-0.011v2.089c-0.01,0.048-0.016,0.098-0.009,0.149c0.006,0.03,0.01,0.06,0.01,0.091
		c0,0.046-0.013,0.093-0.023,0.139c-0.009,0.037-0.02,0.074-0.036,0.109c-0.014,0.031-0.031,0.063-0.05,0.094
		c-0.018,0.032-0.037,0.065-0.06,0.096c-0.033,0.042-0.069,0.087-0.109,0.131c-0.016,0.017-0.031,0.033-0.049,0.05
		c-0.886,0.858-3.503,1.634-6.794,1.634c-3.289,0-5.904-0.774-6.792-1.633c-0.019-0.019-0.035-0.037-0.052-0.054
		c-0.04-0.042-0.076-0.085-0.106-0.126c-0.024-0.032-0.046-0.066-0.064-0.099c-0.018-0.03-0.033-0.061-0.046-0.09
		c-0.016-0.039-0.028-0.076-0.037-0.113c-0.011-0.046-0.024-0.091-0.024-0.137c0-0.03,0.003-0.06,0.009-0.089
		c0.009-0.055,0.003-0.109-0.009-0.161v-2.08c0.005,0.003,0.011,0.006,0.016,0.011C82.979,16.106,83.062,16.164,83.148,16.221z
		 M97.07,22.384c-0.014,0.031-0.031,0.063-0.05,0.095c-0.018,0.031-0.037,0.063-0.06,0.095c-0.033,0.044-0.069,0.087-0.11,0.13
		c-0.016,0.018-0.031,0.034-0.048,0.05c-0.886,0.858-3.503,1.632-6.794,1.632c-3.289,0-5.904-0.774-6.793-1.631
		c-0.018-0.018-0.035-0.035-0.051-0.054c-0.04-0.042-0.075-0.083-0.106-0.126c-0.024-0.034-0.045-0.066-0.064-0.1
		c-0.018-0.03-0.033-0.059-0.046-0.09c-0.016-0.038-0.027-0.076-0.037-0.113c-0.009-0.04-0.019-0.079-0.021-0.12v-0.049
		c0.002-0.02,0.002-0.038,0.005-0.057c0.006-0.037-0.002-0.071-0.006-0.107l-0.002-2.056v-0.077
		c0.017,0.012,0.037,0.025,0.054,0.037c0.053,0.041,0.108,0.078,0.165,0.116c0.046,0.031,0.095,0.062,0.143,0.092
		c0.075,0.047,0.15,0.092,0.23,0.136c0.001,0,0.001,0,0.002,0.001c0.875,0.477,2.075,0.82,3.403,1.027
		c0.011,0.002,0.021,0.005,0.032,0.006c0.428,0.065,0.868,0.118,1.314,0.156c0.096,0.008,0.19,0.017,0.286,0.023
		c0.094,0.007,0.188,0.013,0.282,0.018c0.127,0.006,0.253,0.014,0.379,0.018c0.074,0.003,0.147,0.007,0.222,0.009
		c0.204,0.006,0.407,0.009,0.61,0.009c0.203,0,0.406-0.002,0.61-0.009c0.075-0.002,0.148-0.005,0.223-0.009
		c0.126-0.004,0.251-0.01,0.376-0.018c0.095-0.004,0.19-0.011,0.284-0.018c0.094-0.007,0.188-0.015,0.281-0.022
		c0.451-0.038,0.895-0.091,1.328-0.158c0.007,0,0.013-0.002,0.02-0.002c1.45-0.228,2.749-0.618,3.636-1.165
		c0.048-0.029,0.096-0.059,0.142-0.089c0.056-0.038,0.111-0.076,0.164-0.116c0.019-0.014,0.041-0.027,0.059-0.042v2.09
		c-0.011,0.049-0.018,0.098-0.009,0.147c0.004,0.031,0.008,0.061,0.008,0.092c0,0.046-0.013,0.093-0.023,0.14
		C97.096,22.312,97.086,22.349,97.07,22.384z M74.762,27.843c-0.602,0-1.092-0.49-1.092-1.091v-4.937
		c0-0.603,0.49-1.092,1.092-1.092h7.286v1.256v0.157v0.158v3.77v0.418h0.124c0.007,0.017,0.017,0.032,0.024,0.047
		c0.015,0.031,0.031,0.062,0.048,0.093c0.034,0.061,0.074,0.124,0.116,0.184c0.043,0.061,0.091,0.119,0.143,0.177
		c0.025,0.03,0.051,0.059,0.079,0.087c0.162,0.166,0.354,0.321,0.576,0.466c0.007,0.004,0.015,0.01,0.023,0.015
		c0.161,0.103,0.334,0.201,0.523,0.293L74.762,27.843L74.762,27.843z M97.129,25.956c-0.004,0.014-0.006,0.027-0.008,0.04
		c-0.172,1.045-3.07,2.163-7.114,2.163c-1.29,0-2.461-0.115-3.467-0.304v-0.002c-2.083-0.395-3.236-1.06-3.559-1.622
		c0,0,0,0,0-0.001c-0.015-0.025-0.025-0.053-0.037-0.077c-0.021-0.052-0.042-0.105-0.05-0.156l-0.003-2.415
		c0.015,0.012,0.034,0.022,0.048,0.034c0.053,0.041,0.108,0.079,0.165,0.117c0.046,0.031,0.094,0.06,0.143,0.091
		c0.075,0.045,0.15,0.092,0.231,0.137h0.001c0.875,0.477,2.076,0.821,3.404,1.028c0.01,0.002,0.021,0.003,0.031,0.005
		c0.428,0.067,0.869,0.118,1.315,0.157c0.096,0.008,0.189,0.017,0.286,0.023c0.094,0.007,0.188,0.011,0.282,0.017
		c0.127,0.008,0.251,0.013,0.379,0.019c0.074,0.002,0.147,0.007,0.221,0.008c0.205,0.006,0.409,0.01,0.612,0.01
		c0.203,0,0.406-0.003,0.609-0.009c0.076-0.002,0.149-0.007,0.224-0.009c0.125-0.004,0.251-0.011,0.376-0.018
		c0.094-0.006,0.189-0.011,0.284-0.018c0.094-0.007,0.188-0.016,0.281-0.022c0.451-0.038,0.895-0.091,1.328-0.158
		c0.007-0.001,0.013-0.002,0.019-0.002c1.451-0.228,2.75-0.618,3.636-1.165c0.049-0.029,0.096-0.06,0.143-0.091
		c0.056-0.036,0.111-0.076,0.163-0.115c0.02-0.015,0.04-0.026,0.059-0.041v2.376H97.129z M97.129,14.596
		c0,1.063-3.046,2.251-7.122,2.251c-4.076,0-7.122-1.188-7.122-2.251c0-0.054,0.013-0.107,0.028-0.163
		c0.018-0.054,0.039-0.11,0.073-0.165c0.001-0.002,0.003-0.006,0.004-0.008c0.14-0.234,0.42-0.483,0.854-0.726
		c0.018-0.01,0.037-0.02,0.056-0.03c0.074-0.04,0.152-0.08,0.235-0.119c0.096-0.045,0.195-0.091,0.3-0.133
		c0.021-0.01,0.042-0.018,0.063-0.026c0.486-0.194,1.073-0.366,1.732-0.508c0.208-0.042,0.417-0.083,0.634-0.12
		c0.057-0.009,0.114-0.019,0.172-0.029c1.875-0.288,4.063-0.288,5.938,0c0.06,0.01,0.115,0.02,0.174,0.03
		c0.216,0.035,0.424,0.076,0.628,0.119C95.821,13.154,97.129,13.901,97.129,14.596z M97.129,10.833c0,0.603-0.49,1.093-1.092,1.093
		h-1.94c-0.024-0.006-0.051-0.009-0.076-0.015c-0.274-0.06-0.558-0.112-0.847-0.158c-0.028-0.004-0.057-0.009-0.084-0.013
		c-0.99-0.154-2.045-0.232-3.083-0.232s-2.093,0.078-3.082,0.232c-0.029,0.004-0.058,0.009-0.087,0.013
		c-0.288,0.046-0.57,0.098-0.843,0.158c-0.025,0.005-0.053,0.009-0.078,0.014H74.762c-0.602,0.001-1.092-0.489-1.092-1.092V5.896
		c0-0.603,0.49-1.093,1.092-1.093h21.275c0.602,0,1.092,0.49,1.092,1.093V10.833z"/>
</g>
<g>
	<path fill="#FFFFFF" d="M77.231,40.496c-1.04,0-1.886,0.846-1.886,1.886c0,1.038,0.846,1.884,1.886,1.884
		c1.039,0,1.885-0.846,1.885-1.884C79.116,41.342,78.271,40.496,77.231,40.496z M77.231,43.428c-0.578,0-1.048-0.47-1.048-1.046
		c0-0.577,0.47-1.049,1.048-1.049c0.577,0,1.047,0.472,1.047,1.049C78.278,42.958,77.809,43.428,77.231,43.428z"/>
	<circle fill="#FFFFFF" cx="93.779" cy="41.752" r="0.419"/>
	<circle fill="#FFFFFF" cx="92.103" cy="41.752" r="0.419"/>
	<circle fill="#FFFFFF" cx="94.616" cy="43.009" r="0.418"/>
	<circle fill="#FFFFFF" cx="92.94" cy="43.009" r="0.418"/>
	<circle fill="#FFFFFF" cx="90.427" cy="41.752" r="0.419"/>
	<circle fill="#FFFFFF" cx="91.264" cy="43.009" r="0.418"/>
	<circle fill="#FFFFFF" cx="88.751" cy="41.752" r="0.419"/>
	<circle fill="#FFFFFF" cx="89.588" cy="43.009" r="0.418"/>
	<circle fill="#FFFFFF" cx="87.076" cy="41.752" r="0.419"/>
	<circle fill="#FFFFFF" cx="87.913" cy="43.009" r="0.418"/>
	<path fill="#FFFFFF" d="M77.231,48.456c-1.04,0-1.886,0.846-1.886,1.884c0,1.039,0.846,1.887,1.886,1.887
		c1.039,0,1.885-0.848,1.885-1.887C79.116,49.302,78.271,48.456,77.231,48.456z M77.231,51.389c-0.578,0-1.048-0.471-1.048-1.049
		c0-0.576,0.47-1.048,1.048-1.048c0.577,0,1.047,0.472,1.047,1.048C78.278,50.918,77.809,51.389,77.231,51.389z"/>
	<path fill="#FFFFFF" d="M77.231,56.415c-1.04,0-1.886,0.846-1.886,1.885s0.846,1.884,1.886,1.884c1.039,0,1.885-0.845,1.885-1.884
		S78.271,56.415,77.231,56.415z M77.231,59.348c-0.578,0-1.048-0.47-1.048-1.048c0-0.577,0.47-1.048,1.048-1.048
		c0.577,0,1.047,0.471,1.047,1.048C78.278,58.878,77.809,59.348,77.231,59.348z"/>
	<path fill="#FFFFFF" stroke="#FFFFFF" stroke-width="0.5" stroke-miterlimit="10" d="M97.967,44.85v-4.937
		c0-1.065-0.865-1.931-1.929-1.931H74.762c-1.064,0-1.93,0.865-1.93,1.931v4.937c0,0.614,0.294,1.157,0.744,1.512
		c-0.45,0.354-0.744,0.896-0.744,1.513v4.938c0,0.612,0.294,1.155,0.744,1.512c-0.45,0.354-0.744,0.896-0.744,1.512v4.936
		c0,1.064,0.866,1.933,1.93,1.933h11.677c1.125,0.206,2.355,0.313,3.568,0.313c3.633,0,7.464-0.94,7.915-2.744
		c0.029-0.058,0.044-0.119,0.044-0.188v-3.771v-0.157V56v-3.456v-0.155v-0.156v-3.613v-0.156c0-0.063-0.015-0.122-0.04-0.175
		c-0.145-0.613-0.69-1.13-1.493-1.544C97.309,46.555,97.967,45.775,97.967,44.85z M73.67,52.811v-4.938
		c0-0.604,0.49-1.094,1.092-1.094h8.739c-0.757,0.406-1.272,0.908-1.412,1.503c-0.025,0.054-0.041,0.11-0.041,0.175v0.154v3.613
		v0.157v0.156V53.9h-7.286C74.16,53.9,73.67,53.412,73.67,52.811z M83.148,50.236c0.02,0.014,0.04,0.023,0.059,0.037
		c0.074,0.047,0.15,0.093,0.23,0.137c0.023,0.013,0.045,0.023,0.068,0.038c0.097,0.052,0.199,0.103,0.305,0.151
		c0.017,0.008,0.035,0.016,0.051,0.021c0.092,0.043,0.188,0.084,0.286,0.123c0.029,0.013,0.058,0.022,0.086,0.034
		c0.116,0.046,0.234,0.091,0.355,0.133c0.007,0.002,0.014,0.005,0.02,0.007c0.117,0.041,0.237,0.079,0.358,0.114
		c0.033,0.011,0.066,0.02,0.1,0.029c0.121,0.033,0.243,0.067,0.368,0.103c0.01,0.003,0.02,0.006,0.03,0.008
		c0.135,0.035,0.273,0.067,0.413,0.101c0.035,0.008,0.071,0.016,0.105,0.021c0.12,0.026,0.242,0.054,0.364,0.075
		c0.024,0.004,0.049,0.01,0.072,0.014c0.144,0.027,0.289,0.053,0.436,0.075c0.035,0.006,0.071,0.01,0.105,0.019
		c0.123,0.018,0.246,0.034,0.369,0.053c0.035,0.004,0.068,0.009,0.103,0.014c0.149,0.02,0.3,0.036,0.453,0.052
		c0.029,0.005,0.061,0.007,0.091,0.009c0.129,0.015,0.257,0.023,0.386,0.034c0.038,0.003,0.077,0.007,0.116,0.011
		c0.154,0.012,0.308,0.021,0.461,0.028c0.023,0.001,0.045,0.001,0.067,0.003c0.136,0.008,0.272,0.012,0.41,0.016
		c0.041,0,0.081,0.002,0.124,0.002c0.156,0.007,0.312,0.009,0.469,0.009c0.155,0,0.311-0.002,0.467-0.009
		c0.041,0,0.083-0.002,0.124-0.002c0.137-0.004,0.272-0.008,0.41-0.016c0.021-0.002,0.043-0.002,0.065-0.003
		c0.154-0.009,0.309-0.019,0.463-0.028c0.039-0.004,0.077-0.006,0.117-0.011c0.128-0.009,0.256-0.021,0.384-0.034
		c0.031-0.002,0.063-0.006,0.092-0.009c0.153-0.016,0.303-0.032,0.454-0.052c0.034-0.005,0.068-0.01,0.101-0.014
		c0.125-0.019,0.247-0.035,0.368-0.053c0.036-0.009,0.072-0.013,0.106-0.019c0.146-0.022,0.292-0.048,0.436-0.075
		c0.025-0.004,0.048-0.01,0.072-0.014c0.123-0.021,0.245-0.049,0.363-0.075c0.036-0.007,0.071-0.017,0.107-0.021
		c0.138-0.031,0.276-0.063,0.413-0.101c0.009-0.002,0.019-0.005,0.029-0.008c0.125-0.032,0.248-0.065,0.369-0.103
		c0.033-0.012,0.067-0.021,0.098-0.029c0.123-0.035,0.242-0.073,0.359-0.114c0.006-0.002,0.013-0.005,0.02-0.007
		c0.122-0.042,0.24-0.087,0.354-0.133c0.029-0.012,0.058-0.021,0.087-0.034c0.099-0.039,0.192-0.08,0.286-0.123
		c0.017-0.007,0.034-0.017,0.051-0.021c0.105-0.051,0.207-0.102,0.304-0.151c0.024-0.015,0.047-0.025,0.069-0.038
		c0.08-0.044,0.156-0.09,0.23-0.137c0.02-0.014,0.04-0.023,0.058-0.037c0.087-0.055,0.17-0.113,0.248-0.172
		c0.004-0.006,0.011-0.008,0.015-0.013v2.091c-0.01,0.047-0.016,0.098-0.009,0.147c0.006,0.028,0.01,0.062,0.01,0.091
		c0,0.046-0.013,0.094-0.023,0.141c-0.009,0.037-0.02,0.071-0.036,0.107c-0.014,0.031-0.031,0.063-0.05,0.096
		c-0.018,0.03-0.037,0.063-0.06,0.096c-0.033,0.041-0.069,0.087-0.109,0.131c-0.016,0.017-0.031,0.033-0.049,0.05
		c-0.886,0.856-3.503,1.634-6.794,1.634c-3.289,0-5.904-0.773-6.792-1.633c-0.019-0.02-0.035-0.037-0.052-0.055
		c-0.04-0.043-0.076-0.086-0.106-0.127c-0.024-0.031-0.046-0.064-0.064-0.098c-0.018-0.031-0.033-0.063-0.046-0.092
		c-0.016-0.039-0.028-0.074-0.037-0.111c-0.011-0.047-0.024-0.094-0.024-0.139c0-0.029,0.003-0.061,0.009-0.089
		c0.009-0.056,0.003-0.108-0.009-0.161v-2.079c0.005,0.005,0.011,0.007,0.016,0.013C82.979,50.122,83.062,50.182,83.148,50.236z
		 M97.07,56.4c-0.014,0.031-0.031,0.063-0.05,0.095c-0.018,0.03-0.037,0.063-0.06,0.095c-0.033,0.044-0.069,0.087-0.11,0.131
		c-0.016,0.02-0.031,0.033-0.048,0.051c-0.886,0.857-3.503,1.633-6.794,1.633c-3.289,0-5.904-0.773-6.793-1.633
		c-0.018-0.018-0.035-0.035-0.051-0.054c-0.04-0.042-0.075-0.084-0.106-0.126c-0.024-0.033-0.045-0.066-0.064-0.1
		c-0.018-0.03-0.033-0.059-0.046-0.09c-0.016-0.038-0.027-0.076-0.037-0.113c-0.009-0.039-0.019-0.079-0.021-0.119v-0.05
		c0.002-0.021,0.002-0.037,0.005-0.058c0.006-0.037-0.002-0.07-0.006-0.106L82.886,53.9v-0.077c0.017,0.013,0.037,0.024,0.054,0.036
		c0.053,0.041,0.108,0.078,0.165,0.115c0.046,0.03,0.095,0.063,0.143,0.092c0.075,0.048,0.15,0.093,0.23,0.137
		c0.001,0,0.001,0,0.002,0.002c0.875,0.477,2.075,0.818,3.403,1.027c0.011,0.002,0.021,0.004,0.032,0.006
		c0.428,0.063,0.868,0.117,1.314,0.156c0.096,0.008,0.19,0.017,0.286,0.021c0.094,0.007,0.188,0.014,0.282,0.02
		c0.127,0.006,0.253,0.014,0.379,0.018c0.074,0.004,0.147,0.007,0.222,0.009c0.204,0.006,0.407,0.009,0.61,0.009
		c0.203,0,0.406-0.002,0.61-0.009c0.075-0.002,0.148-0.005,0.223-0.009c0.126-0.004,0.251-0.01,0.376-0.018
		c0.095-0.004,0.19-0.013,0.284-0.02c0.094-0.007,0.188-0.016,0.281-0.021c0.451-0.037,0.895-0.093,1.328-0.158
		c0.007,0,0.013-0.002,0.02-0.002c1.45-0.229,2.749-0.617,3.636-1.166c0.048-0.027,0.096-0.06,0.142-0.088
		c0.056-0.039,0.111-0.076,0.164-0.115c0.019-0.016,0.041-0.027,0.059-0.042v2.09c-0.011,0.049-0.018,0.099-0.009,0.147
		c0.004,0.028,0.008,0.061,0.008,0.092c0,0.046-0.013,0.094-0.023,0.14C97.096,56.328,97.086,56.365,97.07,56.4z M74.762,61.859
		c-0.602,0-1.092-0.489-1.092-1.092V55.83c0-0.604,0.49-1.094,1.092-1.094h7.286v1.257v0.155v0.158v3.771v0.418h0.124
		c0.007,0.018,0.017,0.031,0.024,0.048c0.015,0.031,0.031,0.063,0.048,0.095c0.034,0.061,0.074,0.123,0.116,0.184
		c0.043,0.061,0.091,0.117,0.143,0.177c0.025,0.03,0.051,0.06,0.079,0.087c0.162,0.166,0.354,0.321,0.576,0.466
		c0.007,0.005,0.015,0.011,0.023,0.017c0.161,0.104,0.334,0.201,0.523,0.293L74.762,61.859L74.762,61.859z M97.129,59.973
		c-0.004,0.014-0.006,0.026-0.008,0.039c-0.172,1.045-3.07,2.163-7.114,2.163c-1.29,0-2.461-0.114-3.467-0.304v-0.002
		c-2.083-0.396-3.236-1.061-3.559-1.622c0,0,0,0,0-0.002c-0.015-0.024-0.025-0.054-0.037-0.077c-0.021-0.052-0.042-0.104-0.05-0.156
		l-0.003-2.414c0.015,0.012,0.034,0.022,0.048,0.033c0.053,0.041,0.108,0.079,0.165,0.117c0.046,0.029,0.094,0.061,0.143,0.091
		c0.075,0.045,0.15,0.093,0.231,0.138h0.001c0.875,0.478,2.076,0.819,3.404,1.027c0.01,0.002,0.021,0.003,0.031,0.005
		c0.428,0.066,0.869,0.117,1.315,0.156c0.096,0.008,0.189,0.017,0.286,0.022c0.094,0.008,0.188,0.013,0.282,0.019
		c0.127,0.008,0.251,0.013,0.379,0.019c0.074,0.002,0.147,0.008,0.221,0.008c0.205,0.008,0.409,0.012,0.612,0.012
		c0.203,0,0.406-0.003,0.609-0.01c0.076-0.002,0.149-0.008,0.224-0.01c0.125-0.004,0.251-0.011,0.376-0.018
		c0.094-0.006,0.189-0.012,0.284-0.02c0.094-0.006,0.188-0.017,0.281-0.021c0.451-0.038,0.895-0.092,1.328-0.158
		c0.007-0.002,0.013-0.003,0.019-0.003c1.451-0.229,2.75-0.616,3.636-1.165c0.049-0.027,0.096-0.061,0.143-0.091
		c0.056-0.036,0.111-0.075,0.163-0.112c0.02-0.017,0.04-0.027,0.059-0.041v2.377H97.129L97.129,59.973z M97.129,48.611
		c0,1.063-3.046,2.252-7.122,2.252c-4.076,0-7.122-1.188-7.122-2.252c0-0.055,0.013-0.106,0.028-0.162
		c0.018-0.055,0.039-0.11,0.073-0.165c0.001-0.003,0.003-0.007,0.004-0.009c0.14-0.233,0.42-0.482,0.854-0.727
		c0.018-0.01,0.037-0.021,0.056-0.029c0.074-0.039,0.152-0.08,0.235-0.119c0.096-0.045,0.195-0.09,0.3-0.133
		c0.021-0.011,0.042-0.019,0.063-0.024c0.486-0.194,1.073-0.366,1.732-0.509c0.208-0.041,0.417-0.084,0.634-0.12
		c0.057-0.009,0.114-0.019,0.172-0.028c1.875-0.288,4.063-0.288,5.938,0c0.06,0.01,0.115,0.02,0.174,0.03
		c0.216,0.034,0.424,0.075,0.628,0.118C95.821,47.17,97.129,47.918,97.129,48.611z M97.129,44.85c0,0.604-0.49,1.094-1.092,1.094
		h-1.94c-0.024-0.006-0.051-0.01-0.076-0.017c-0.274-0.06-0.558-0.112-0.847-0.157c-0.028-0.004-0.057-0.01-0.084-0.014
		c-0.99-0.154-2.045-0.232-3.083-0.232s-2.093,0.078-3.082,0.232c-0.029,0.004-0.058,0.01-0.087,0.014
		c-0.288,0.045-0.57,0.1-0.843,0.157c-0.025,0.005-0.053,0.011-0.078,0.015H74.762c-0.602,0.002-1.092-0.487-1.092-1.092v-4.937
		c0-0.604,0.49-1.093,1.092-1.093h21.275c0.602,0,1.092,0.488,1.092,1.093V44.85z"/>
</g>
<g>
	<g>
		<path fill="#97999D" d="M131.257,8.909l-11.085-6.304c-0.723-0.414-1.622-0.414-2.344-0.001L106.741,8.91
			c-1.131,0.646-1.526,2.094-0.879,3.226c0.575,1.005,1.779,1.436,2.84,1.057v11.409c-0.917,0.325-1.576,1.201-1.576,2.229v1.576
			c0,0.435,0.353,0.788,0.789,0.788h22.171c0.435,0,0.788-0.353,0.788-0.788V26.83c0-1.027-0.659-1.904-1.576-2.229V13.19
			c1.099,0.389,2.285-0.082,2.842-1.055C132.785,11.003,132.389,9.556,131.257,8.909z M129.297,27.617h-20.595V26.83
			c0-0.435,0.354-0.789,0.788-0.789h19.019c0.435,0,0.788,0.354,0.788,0.789V27.617L129.297,27.617z M120.576,21.26
			c3.042,0,5.516-2.475,5.516-5.517v-1.576c0-0.435-0.352-0.788-0.788-0.788h-1.576c-2.004,0-3.763,1.075-4.729,2.677
			c-0.966-1.603-2.724-2.677-4.728-2.677h-1.576c-0.436,0-0.788,0.353-0.788,0.788v1.576c0,3.042,2.475,5.517,5.516,5.517h0.788
			v3.205h-7.934V12.338L119,7.38l8.721,4.958v12.127h-7.934V21.26H120.576z M119.788,19.684v-0.788c0-2.173,1.767-3.94,3.941-3.94
			h0.788v0.788c0,2.172-1.767,3.94-3.94,3.94H119.788z M118.212,18.896v0.788h-0.788c-2.173,0-3.94-1.768-3.94-3.94v-0.788h0.789
			C116.444,14.956,118.212,16.723,118.212,18.896z M130.771,11.354c-0.214,0.373-0.694,0.511-1.077,0.292
			c-0.043-0.024,0.165,0.093-10.304-5.858c-0.241-0.137-0.537-0.137-0.778,0c-0.597,0.339-9.836,5.592-10.307,5.86
			c-0.376,0.216-0.857,0.084-1.073-0.294c-0.217-0.379-0.084-0.859,0.292-1.074l11.087-6.305c0.121-0.069,0.255-0.104,0.391-0.104
			c0.136,0,0.271,0.035,0.393,0.104l11.084,6.304C130.854,10.494,130.985,10.975,130.771,11.354z"/>
	</g>
</g>
<g>
	<g>
		<path fill="#97999D" d="M131.257,8.909l-11.085-6.304c-0.723-0.414-1.622-0.414-2.344-0.001L106.741,8.91
			c-1.131,0.646-1.526,2.094-0.879,3.226c0.575,1.005,1.779,1.436,2.84,1.057v11.409c-0.917,0.325-1.576,1.201-1.576,2.229v1.576
			c0,0.435,0.353,0.788,0.789,0.788h22.171c0.435,0,0.788-0.353,0.788-0.788V26.83c0-1.027-0.659-1.904-1.576-2.229V13.19
			c1.099,0.389,2.285-0.082,2.842-1.055C132.785,11.003,132.389,9.556,131.257,8.909z M129.297,27.617h-20.595V26.83
			c0-0.435,0.354-0.789,0.788-0.789h19.019c0.435,0,0.788,0.354,0.788,0.789V27.617L129.297,27.617z M120.576,21.26
			c3.042,0,5.516-2.475,5.516-5.517v-1.576c0-0.435-0.352-0.788-0.788-0.788h-1.576c-2.004,0-3.763,1.075-4.729,2.677
			c-0.966-1.603-2.724-2.677-4.728-2.677h-1.576c-0.436,0-0.788,0.353-0.788,0.788v1.576c0,3.042,2.475,5.517,5.516,5.517h0.788
			v3.205h-7.934V12.338L119,7.38l8.721,4.958v12.127h-7.934V21.26H120.576z M119.788,19.684v-0.788c0-2.173,1.767-3.94,3.941-3.94
			h0.788v0.788c0,2.172-1.767,3.94-3.94,3.94H119.788z M118.212,18.896v0.788h-0.788c-2.173,0-3.94-1.768-3.94-3.94v-0.788h0.789
			C116.444,14.956,118.212,16.723,118.212,18.896z M130.771,11.354c-0.214,0.373-0.694,0.511-1.077,0.292
			c-0.043-0.024,0.165,0.093-10.304-5.858c-0.241-0.137-0.537-0.137-0.778,0c-0.597,0.339-9.836,5.592-10.307,5.86
			c-0.376,0.216-0.857,0.084-1.073-0.294c-0.217-0.379-0.084-0.859,0.292-1.074l11.087-6.305c0.121-0.069,0.255-0.104,0.391-0.104
			c0.136,0,0.271,0.035,0.393,0.104l11.084,6.304C130.854,10.494,130.985,10.975,130.771,11.354z"/>
	</g>
</g>
<g>
	<g>
		<path fill="#FFFFFF" d="M131.257,42.924l-11.085-6.305c-0.723-0.413-1.622-0.413-2.344-0.001l-11.087,6.307
			c-1.131,0.646-1.526,2.095-0.879,3.228c0.575,1.006,1.779,1.437,2.84,1.058v11.41c-0.917,0.323-1.576,1.2-1.576,2.229v1.574
			c0,0.436,0.353,0.788,0.789,0.788h22.171c0.435,0,0.788-0.354,0.788-0.788V60.85c0-1.026-0.659-1.904-1.576-2.229V47.206
			c1.099,0.39,2.285-0.082,2.842-1.056C132.785,45.02,132.389,43.57,131.257,42.924z M129.297,61.636h-20.595v-0.788
			c0-0.435,0.354-0.787,0.788-0.787h19.019c0.435,0,0.788,0.354,0.788,0.787V61.636L129.297,61.636z M120.576,55.277
			c3.042,0,5.516-2.478,5.516-5.52v-1.574c0-0.438-0.352-0.789-0.788-0.789h-1.576c-2.004,0-3.763,1.073-4.729,2.679
			c-0.966-1.604-2.724-2.679-4.728-2.679h-1.576c-0.436,0-0.788,0.354-0.788,0.789v1.574c0,3.042,2.475,5.52,5.516,5.52h0.788v3.205
			h-7.934V46.354L119,41.395l8.721,4.959v12.131h-7.934v-3.207H120.576L120.576,55.277z M119.788,53.701v-0.788
			c0-2.174,1.767-3.94,3.941-3.94h0.788v0.787c0,2.174-1.767,3.941-3.94,3.941H119.788z M118.212,52.913v0.788h-0.788
			c-2.173,0-3.94-1.77-3.94-3.941v-0.787h0.789C116.444,48.973,118.212,50.739,118.212,52.913z M130.771,45.369
			c-0.214,0.372-0.694,0.512-1.077,0.292c-0.043-0.024,0.165,0.093-10.304-5.859c-0.241-0.137-0.537-0.137-0.778,0
			c-0.597,0.341-9.836,5.593-10.307,5.861c-0.376,0.216-0.857,0.084-1.073-0.295c-0.217-0.379-0.084-0.859,0.292-1.073l11.087-6.307
			c0.121-0.068,0.255-0.104,0.391-0.104c0.136,0,0.271,0.035,0.393,0.104l11.084,6.305C130.854,44.51,130.985,44.99,130.771,45.369z
			"/>
	</g>
</g>
<rect x="272.017" fill="#8B7100" fill-opacity="0" width="33.999" height="34"/>
<g>
	<g>
		<path fill="none" stroke="#97999D" stroke-width="1.5" stroke-miterlimit="10" d="M289.208,28.865c-0.401,0-0.811,0-1.209,0
			c-1.687,0-5.182,0.002-6.867,0c-1.325-0.002-2.354-0.779-2.691-2.034c-0.063-0.249-0.091-0.516-0.091-0.775
			c-0.011-3.135-0.004-6.268-0.004-9.396c0-3.121-0.007-6.245,0-9.367c0.002-1.64,1.165-2.823,2.809-2.823
			c5.481-0.004,10.966,0.004,16.457-0.007c1.603-0.002,2.82,1.287,2.812,2.745c-0.019,2.708-0.002,8.127-0.008,10.836"/>
	</g>
	<g>
		<path fill="none" stroke="#97999D" stroke-width="1.5" stroke-miterlimit="10" d="M283.829,9.649
			c-0.102,0-0.188,0.082-0.188,0.185v2.382c0,0.104,0.084,0.186,0.188,0.186h10.49c0.104,0,0.186-0.078,0.186-0.186V9.834
			c0-0.104-0.082-0.185-0.186-0.185H283.829z"/>
	</g>
	<g>
		<g>
			<path fill="none" stroke="#97999D" stroke-width="1.5" stroke-miterlimit="10" d="M292.357,18.574
				c5.47,0.688,9.765,5.19,10.423,10.406"/>
		</g>
		<g>
			<path fill="none" stroke="#97999D" stroke-width="1.5" stroke-miterlimit="10" d="M292.349,22.411
				c3.534,0.673,6.041,3.593,6.571,6.571"/>
		</g>
		<g>
			<path fill="#97999D" d="M293.56,26.812c0.61,0.002,1.094,0.498,1.087,1.122c-0.007,0.598-0.495,1.07-1.109,1.068
				c-0.613-0.004-1.09-0.496-1.088-1.123C292.461,27.287,292.954,26.81,293.56,26.812z"/>
		</g>
	</g>
	<g>
		<path fill="none" stroke="#97999D" stroke-width="1.5" stroke-miterlimit="10" d="M288.898,16.435h-5.987"/>
	</g>
	<g>
		<path fill="none" stroke="#97999D" stroke-width="1.5" stroke-miterlimit="10" d="M288.898,20.256h-5.987"/>
	</g>
	<g>
		<path fill="none" stroke="#97999D" stroke-width="1.5" stroke-miterlimit="10" d="M288.898,24.079h-5.987"/>
	</g>
</g>
<rect x="272.017" y="34.014" fill="#8B7100" fill-opacity="0" width="33.999" height="34.005"/>
<g>
	<g>
		<path fill="none" stroke="#FFFFFF" stroke-width="1.5" stroke-miterlimit="10" d="M289.208,62.884c-0.401,0-0.811,0-1.209,0
			c-1.687,0-5.182,0.002-6.867,0c-1.325-0.002-2.354-0.78-2.691-2.034c-0.063-0.248-0.091-0.516-0.091-0.774
			c-0.011-3.136-0.004-6.271-0.004-9.398c0-3.122-0.007-6.245,0-9.368c0.002-1.642,1.165-2.824,2.809-2.824
			c5.481-0.004,10.966,0.005,16.457-0.006c1.603-0.002,2.82,1.287,2.812,2.744c-0.019,2.709-0.002,8.129-0.008,10.838"/>
	</g>
	<g>
		<path fill="none" stroke="#FFFFFF" stroke-width="1.5" stroke-miterlimit="10" d="M283.829,43.664
			c-0.102,0-0.188,0.082-0.188,0.186v2.383c0,0.104,0.084,0.186,0.188,0.186h10.49c0.104,0,0.186-0.078,0.186-0.186V43.85
			c0-0.104-0.082-0.186-0.186-0.186H283.829z"/>
	</g>
	<g>
		<g>
			<path fill="none" stroke="#FFFFFF" stroke-width="1.5" stroke-miterlimit="10" d="M292.357,52.591
				c5.47,0.688,9.765,5.191,10.423,10.408"/>
		</g>
		<g>
			<path fill="none" stroke="#FFFFFF" stroke-width="1.5" stroke-miterlimit="10" d="M292.349,56.43
				c3.534,0.672,6.041,3.594,6.571,6.571"/>
		</g>
		<g>
			<path fill="#FFFFFF" d="M293.56,60.83c0.61,0.002,1.094,0.498,1.087,1.121c-0.007,0.598-0.495,1.07-1.109,1.068
				c-0.613-0.004-1.09-0.496-1.088-1.123C292.461,61.307,292.954,60.828,293.56,60.83z"/>
		</g>
	</g>
	<g>
		<path fill="none" stroke="#FFFFFF" stroke-width="1.5" stroke-miterlimit="10" d="M288.898,50.451h-5.987"/>
	</g>
	<g>
		<path fill="none" stroke="#FFFFFF" stroke-width="1.5" stroke-miterlimit="10" d="M288.898,54.271h-5.987"/>
	</g>
	<g>
		<path fill="none" stroke="#FFFFFF" stroke-width="1.5" stroke-miterlimit="10" d="M288.898,58.098h-5.987"/>
	</g>
</g>
<rect x="306.037" fill="#8B7100" fill-opacity="0" width="33.999" height="34"/>
<g>
	<path fill="#97999D" d="M335.209,16.697c0,4.301,0,8.604,0,12.904c0,0.518-0.289,0.822-0.814,0.827
		c-0.899,0.01-1.795,0.002-2.694,0.002c-6.197,0-12.394,0.003-18.593-0.004c-0.222,0-0.462-0.045-0.664-0.137
		c-0.266-0.124-0.384-0.363-0.384-0.678c0.004-8.635,0.001-17.271,0.001-25.907c0-0.502,0.317-0.81,0.835-0.81
		c4.947,0,9.89,0,14.835,0c2.206,0,4.412,0,6.619,0c0.601,0,0.86,0.262,0.86,0.865C335.209,8.071,335.209,12.384,335.209,16.697z
		 M313.724,28.732c6.641,0,13.241,0,19.854,0c0-8.065,0-16.106,0-24.153c-6.63,0-13.242,0-19.854,0
		C313.724,12.64,313.724,20.675,313.724,28.732z"/>
	<path fill="#97999D" d="M331.587,23.308c-0.051,2.225-1.826,3.922-4.051,3.868c-2.141-0.051-3.835-1.863-3.777-4.037
		c0.058-2.12,1.856-3.844,3.964-3.794C329.89,19.389,331.641,21.187,331.587,23.308z M329.901,23.302
		c0.022-1.235-0.956-2.245-2.201-2.265c-1.226-0.024-2.249,0.974-2.263,2.206c-0.019,1.215,0.997,2.247,2.223,2.262
		C328.866,25.514,329.876,24.523,329.901,23.302z"/>
	<path fill="#97999D" d="M323.64,13.658c-2.092,0-4.186,0.003-6.279-0.009c-0.232,0-0.485-0.071-0.686-0.184
		c-0.291-0.158-0.422-0.528-0.336-0.833c0.093-0.33,0.306-0.562,0.653-0.635c0.13-0.026,0.264-0.029,0.396-0.029
		c4.177-0.002,8.354-0.002,12.529-0.001c0.661,0,1.052,0.315,1.052,0.843c0,0.484-0.369,0.84-0.914,0.845
		c-0.766,0.009-1.528,0.004-2.294,0.004C326.391,13.658,325.016,13.658,323.64,13.658z"/>
	<path fill="#97999D" d="M323.67,17.377c-2.105,0-4.211,0.009-6.314-0.01c-0.258-0.003-0.548-0.102-0.763-0.245
		c-0.248-0.165-0.333-0.47-0.252-0.773c0.08-0.31,0.28-0.53,0.595-0.616c0.135-0.038,0.283-0.044,0.427-0.044
		c4.186-0.004,8.372-0.001,12.561-0.005c0.347,0,0.662,0.057,0.88,0.359c0.351,0.481,0.121,1.146-0.458,1.292
		c-0.149,0.038-0.309,0.041-0.459,0.041C327.813,17.378,325.743,17.377,323.67,17.377z"/>
	<path fill="#97999D" d="M319.224,19.406c0.63,0,1.263-0.004,1.894,0.002c0.566,0.003,0.967,0.347,0.976,0.83
		c0.011,0.491-0.395,0.856-0.98,0.856c-1.274,0.005-2.548,0.005-3.824,0c-0.589,0-0.979-0.36-0.968-0.861
		c0.012-0.484,0.402-0.821,0.975-0.825C317.936,19.403,318.581,19.406,319.224,19.406z"/>
	<path fill="#97999D" d="M319.184,8.249c0.634,0,1.264-0.002,1.896,0c0.615,0.005,1.023,0.353,1.013,0.856
		c-0.009,0.492-0.418,0.83-1.011,0.832c-1.282,0.001-2.568,0-3.854,0c-0.396,0-0.681-0.18-0.843-0.538
		c-0.139-0.301-0.07-0.583,0.134-0.836c0.199-0.245,0.469-0.314,0.768-0.313C317.92,8.252,318.552,8.249,319.184,8.249z"/>
</g>
<rect x="306.037" y="34.016" fill="#8B7100" fill-opacity="0" width="33.999" height="34.001"/>
<g>
	<path fill="#FFFFFF" d="M335.209,50.714c0,4.301,0,8.604,0,12.904c0,0.518-0.289,0.821-0.814,0.826
		c-0.899,0.011-1.795,0.003-2.694,0.003c-6.197,0-12.394,0.003-18.593-0.005c-0.222,0-0.462-0.045-0.664-0.137
		c-0.266-0.124-0.384-0.363-0.384-0.678c0.004-8.635,0.001-17.271,0.001-25.906c0-0.503,0.317-0.811,0.835-0.811
		c4.947,0,9.89,0,14.835,0c2.206,0,4.412,0,6.619,0c0.601,0,0.86,0.263,0.86,0.866C335.209,42.087,335.209,46.4,335.209,50.714z
		 M313.724,62.749c6.641,0,13.241,0,19.854,0c0-8.065,0-16.106,0-24.153c-6.63,0-13.242,0-19.854,0
		C313.724,46.656,313.724,54.691,313.724,62.749z"/>
	<path fill="#FFFFFF" d="M331.587,57.324c-0.051,2.225-1.826,3.923-4.051,3.868c-2.141-0.052-3.835-1.863-3.777-4.037
		c0.058-2.12,1.856-3.845,3.964-3.795C329.89,53.405,331.641,55.203,331.587,57.324z M329.901,57.318
		c0.022-1.235-0.956-2.244-2.201-2.265c-1.226-0.024-2.249,0.974-2.263,2.205c-0.019,1.215,0.997,2.247,2.223,2.262
		C328.866,59.53,329.876,58.54,329.901,57.318z"/>
	<path fill="#FFFFFF" d="M323.64,47.674c-2.092,0-4.186,0.004-6.279-0.009c-0.232,0-0.485-0.071-0.686-0.184
		c-0.291-0.157-0.422-0.528-0.336-0.832c0.093-0.33,0.306-0.563,0.653-0.635c0.13-0.026,0.264-0.029,0.396-0.029
		c4.177-0.002,8.354-0.002,12.529-0.002c0.661,0,1.052,0.315,1.052,0.843c0,0.484-0.369,0.841-0.914,0.845
		c-0.766,0.01-1.528,0.004-2.294,0.004C326.391,47.674,325.016,47.674,323.64,47.674z"/>
	<path fill="#FFFFFF" d="M323.67,51.394c-2.105,0-4.211,0.01-6.314-0.01c-0.258-0.003-0.548-0.102-0.763-0.245
		c-0.248-0.165-0.333-0.47-0.252-0.773c0.08-0.31,0.28-0.53,0.595-0.616c0.135-0.038,0.283-0.044,0.427-0.044
		c4.186-0.004,8.372-0.001,12.561-0.005c0.347,0,0.662,0.057,0.88,0.359c0.351,0.481,0.121,1.146-0.458,1.292
		c-0.149,0.038-0.309,0.041-0.459,0.041C327.813,51.395,325.743,51.394,323.67,51.394z"/>
	<path fill="#FFFFFF" d="M319.224,53.422c0.63,0,1.263-0.004,1.894,0.003c0.566,0.003,0.967,0.347,0.976,0.829
		c0.011,0.491-0.395,0.856-0.98,0.856c-1.274,0.006-2.548,0.006-3.824,0c-0.589,0-0.979-0.359-0.968-0.861
		c0.012-0.483,0.402-0.821,0.975-0.824C317.936,53.42,318.581,53.422,319.224,53.422z"/>
	<path fill="#FFFFFF" d="M319.184,42.266c0.634,0,1.264-0.002,1.896,0c0.615,0.005,1.023,0.353,1.013,0.855
		c-0.009,0.492-0.418,0.83-1.011,0.832c-1.282,0.001-2.568,0-3.854,0c-0.396,0-0.681-0.18-0.843-0.538
		c-0.139-0.302-0.07-0.584,0.134-0.836c0.199-0.245,0.469-0.314,0.768-0.313C317.92,42.269,318.552,42.266,319.184,42.266z"/>
</g>
</svg>
