<?xml version="1.0" encoding="utf-8"?>
<!-- Generator: Adobe Illustrator 16.0.0, SVG Export Plug-In . SVG Version: 6.00 Build 0)  -->
<!DOCTYPE svg PUBLIC "-//W3C//DTD SVG 1.1//EN" "http://www.w3.org/Graphics/SVG/1.1/DTD/svg11.dtd">
<svg version="1.1" id="Capa_1" xmlns="http://www.w3.org/2000/svg" xmlns:xlink="http://www.w3.org/1999/xlink" x="0px" y="0px"
	 width="28px" height="32px" viewBox="0 0.431 28 32" enable-background="new 0 0.431 28 32" xml:space="preserve">
<title>engine-icon</title>
<g>
	<g>
		<path fill="#662722" d="M11.933,19.68h4.136v7.188h-4.136V19.68z"/>
	</g>
</g>
<g>
	<g>
		<path fill="#662722" d="M16.184,25.619h-4.367c-2.999,0.002-5.432,2.432-5.432,5.432v0.039c0,0.43,0.35,0.779,0.781,0.779h13.668
			c0.432,0,0.78-0.35,0.78-0.779v-0.039C21.614,28.051,19.183,25.619,16.184,25.619L16.184,25.619z"/>
	</g>
</g>
<path opacity="0.2" fill="#771C2F" d="M16.184,25.619h-1.873c3,0,5.432,2.432,5.432,5.432v0.039c0,0.43-0.35,0.779-0.78,0.779h1.872
	c0.432,0,0.78-0.35,0.78-0.779v-0.039C21.614,28.051,19.183,25.619,16.184,25.619z"/>
<g>
	<g>
		<circle fill="#662722" cx="14" cy="11.321" r="10.329"/>
	</g>
</g>
<g>
	<path fill="#FFFFFF" stroke="#FFFFFF" stroke-miterlimit="10" d="M16.258,14.32c-0.134,0-0.265-0.048-0.369-0.145l-3.497-3.27
		c-0.215-0.2-0.223-0.532-0.018-0.742c0.203-0.211,0.543-0.218,0.756-0.018l3.499,3.268c0.213,0.2,0.221,0.533,0.017,0.742
		C16.54,14.265,16.399,14.32,16.258,14.32L16.258,14.32z"/>
</g>
<g>
	<path fill="#FFFFFF" stroke="#FFFFFF" stroke-miterlimit="10" d="M21.885,11.114c0,0.268,0.217,0.484,0.484,0.484h1.957
		c0.002-0.092,0.004-0.184,0.004-0.277c0-0.232-0.009-0.463-0.023-0.691h-1.938C22.102,10.63,21.885,10.847,21.885,11.114
		L21.885,11.114z"/>
	<path fill="#FFFFFF" stroke="#FFFFFF" stroke-miterlimit="10" d="M14,3.229c0.268,0,0.484-0.217,0.484-0.484V1.004
		C14.324,0.996,14.162,0.992,14,0.992s-0.323,0.004-0.484,0.012v1.741C13.516,3.012,13.732,3.229,14,3.229z"/>
	<path fill="#FFFFFF" stroke="#FFFFFF" stroke-miterlimit="10" d="M6.115,11.114c0-0.267-0.217-0.484-0.485-0.484H3.693
		C3.679,10.859,3.67,11.09,3.67,11.322c0,0.093,0.001,0.185,0.004,0.277H5.63C5.898,11.598,6.115,11.382,6.115,11.114L6.115,11.114z
		"/>
	<path fill="#FFFFFF" stroke="#FFFFFF" stroke-miterlimit="10" d="M19.575,5.539c0.095,0.095,0.219,0.142,0.343,0.142
		s0.248-0.047,0.343-0.142l1.278-1.278c-0.221-0.235-0.453-0.461-0.694-0.675l-1.27,1.268C19.386,5.043,19.386,5.349,19.575,5.539z"
		/>
	<path fill="#FFFFFF" stroke="#FFFFFF" stroke-miterlimit="10" d="M21.736,18.166l-1.476-1.477c-0.189-0.189-0.496-0.189-0.686,0
		s-0.189,0.494,0,0.686l1.486,1.484C21.297,18.639,21.522,18.406,21.736,18.166L21.736,18.166z"/>
	<path fill="#FFFFFF" stroke="#FFFFFF" stroke-miterlimit="10" d="M6.461,4.26l1.278,1.278C7.834,5.634,7.958,5.68,8.082,5.68
		S8.33,5.634,8.424,5.539c0.189-0.189,0.189-0.496,0-0.685L7.156,3.586C6.914,3.8,6.683,4.025,6.461,4.26z"/>
	<path fill="#FFFFFF" stroke="#FFFFFF" stroke-miterlimit="10" d="M6.939,18.86l1.485-1.484c0.189-0.191,0.189-0.496,0-0.686
		c-0.189-0.189-0.496-0.189-0.685,0l-1.476,1.477C6.478,18.406,6.703,18.639,6.939,18.86L6.939,18.86z"/>
</g>
<g>
	<ellipse fill="#FFFFFF" cx="13.175" cy="10.846" rx="1.968" ry="1.968"/>
</g>
</svg>
