<?xml version="1.0" encoding="utf-8"?>
<!-- Generator: Adobe Illustrator 16.0.3, SVG Export Plug-In . SVG Version: 6.00 Build 0)  -->
<!DOCTYPE svg PUBLIC "-//W3C//DTD SVG 1.1//EN" "http://www.w3.org/Graphics/SVG/1.1/DTD/svg11.dtd">
<svg version="1.1" id="Layer_1" xmlns="http://www.w3.org/2000/svg" xmlns:xlink="http://www.w3.org/1999/xlink" x="0px" y="0px"
	 width="20px" height="20px" viewBox="0 0 20 20" enable-background="new 0 0 20 20" xml:space="preserve">
<path fill="none" stroke="#000000" stroke-width="1.5" stroke-miterlimit="10" d="M1.514,10.459c0.04-0.056,0.072-0.114,0.117-0.159
	c1.117-1.127,2.249-2.24,3.551-3.157c1.045-0.735,2.161-1.311,3.426-1.568c1.547-0.314,3.043-0.137,4.5,0.455
	c1.407,0.572,2.621,1.446,3.709,2.492c0.642,0.615,1.246,1.27,1.854,1.894c-0.014,0.045-0.384,0.42-0.39,0.428
	c-1.188,1.203-1.823,1.856-3.102,2.764c-1.238,0.879-2.587,1.506-4.099,1.725c-1.582,0.23-3.087-0.045-4.523-0.733
	c-1.102-0.527-2.047-1.274-2.93-2.103c-0.551-0.52-1.083-1.06-1.624-1.587C1.846,10.757,1.681,10.612,1.514,10.459z"/>
<path fill="none" stroke="#000000" stroke-width="1.5" stroke-miterlimit="10" d="M12.289,10.415c0-1.192-0.985-2.173-2.182-2.174
	c-1.202,0-2.188,0.973-2.19,2.163c-0.001,1.204,0.991,2.189,2.202,2.188C11.295,12.589,12.289,11.591,12.289,10.415z"/>
<path fill="none" stroke="#41C363" stroke-width="1.5" stroke-miterlimit="10" d="M3.627,12.496c-0.552-0.52-1.083-1.06-1.624-1.587
	c-0.157-0.152-0.322-0.296-0.489-0.45c0.04-0.056,0.072-0.114,0.117-0.159c1.117-1.127,2.248-2.24,3.552-3.157
	c1.044-0.735,2.16-1.311,3.425-1.568c1.548-0.314,3.044-0.137,4.499,0.455c1.41,0.572,2.623,1.446,3.709,2.492"/>
</svg>
